<svg width="295" height="266" viewBox="0 0 295 266" fill="none" xmlns="http://www.w3.org/2000/svg">
<g filter="url(#filter0_d_565_7465)">
<path fill-rule="evenodd" clip-rule="evenodd" d="M220.65 67.3345C165.499 67.3345 120.79 112.043 120.79 167.194C120.79 222.346 165.499 267.054 220.65 267.054C275.801 267.054 320.51 222.346 320.51 167.194C320.51 112.043 275.801 67.3345 220.65 67.3345ZM118.324 167.194C118.324 110.682 164.137 64.8688 220.65 64.8688C277.163 64.8688 322.976 110.682 322.976 167.194C322.976 223.707 277.163 269.52 220.65 269.52C164.137 269.52 118.324 223.707 118.324 167.194Z" fill="#F5F5F6"/>
<path fill-rule="evenodd" clip-rule="evenodd" d="M220.65 67.3345C165.499 67.3345 120.79 112.043 120.79 167.194C120.79 222.346 165.499 267.054 220.65 267.054C275.801 267.054 320.51 222.346 320.51 167.194C320.51 112.043 275.801 67.3345 220.65 67.3345ZM118.324 167.194C118.324 110.682 164.137 64.8688 220.65 64.8688C277.163 64.8688 322.976 110.682 322.976 167.194C322.976 223.707 277.163 269.52 220.65 269.52C164.137 269.52 118.324 223.707 118.324 167.194Z" stroke="#F5F5F6"/>
</g>
<g filter="url(#filter1_d_565_7465)">
<path d="M272.309 175.868C277.355 173.688 277.355 170.152 272.309 167.971L259.17 162.293L236.893 171.919L229.76 175.002C224.713 177.183 216.53 177.183 211.484 175.002L204.35 171.919L182.074 162.293L168.935 167.971C163.888 170.152 163.888 173.688 168.935 175.868L182.073 181.546L211.484 194.254C216.53 196.435 224.713 196.435 229.76 194.254L259.17 181.546L272.309 175.868Z" fill="#F5F5F6"/>
<path d="M182.073 181.546L211.484 194.254C216.53 196.435 224.713 196.435 229.76 194.254L259.17 181.546M182.073 181.546L168.935 175.868C163.888 173.688 163.888 170.152 168.935 167.971L182.074 162.293M182.073 181.546L168.935 187.223C163.888 189.404 163.888 192.939 168.935 195.12L211.484 213.506C216.53 215.687 224.713 215.687 229.76 213.506L272.309 195.12C277.355 192.939 277.355 189.404 272.309 187.223L259.17 181.546M259.17 181.546L272.309 175.868C277.355 173.688 277.355 170.152 272.309 167.971L259.17 162.293M182.074 162.293L204.35 171.919L211.484 175.002C216.53 177.183 224.713 177.183 229.76 175.002L236.893 171.919L259.17 162.293M182.074 162.293L168.935 156.616C163.888 154.435 163.888 150.899 168.935 148.719L182.073 143.041M259.17 162.293L272.309 156.616C277.355 154.435 277.355 150.899 272.309 148.719L259.17 143.041M182.073 143.041L168.935 137.364C163.888 135.183 163.888 131.648 168.935 129.467L211.484 111.081C216.53 108.9 224.713 108.9 229.76 111.081L272.309 129.467C277.355 131.648 277.355 135.183 272.309 137.364L259.17 143.041M182.073 143.041L204.35 152.668L211.484 155.75C216.53 157.931 224.713 157.931 229.76 155.75L236.893 152.668L259.17 143.041" stroke="#F5F5F6" stroke-width="2.62368" stroke-miterlimit="10"/>
</g>
<g filter="url(#filter2_f_565_7465)">
<rect x="84.9398" y="155.922" width="301.349" height="92.2129" transform="rotate(15 84.9398 155.922)" fill="#0D1821"/>
</g>
<g opacity="0.8" filter="url(#filter3_f_565_7465)">
<ellipse cx="258.919" cy="77.7707" rx="171.321" ry="65.6514" transform="rotate(15 258.919 77.7707)" fill="#0D1821"/>
</g>
<defs>
<filter id="filter0_d_565_7465" x="116.076" y="62.6199" width="212.148" height="212.148" filterUnits="userSpaceOnUse" color-interpolation-filters="sRGB">
<feFlood flood-opacity="0" result="BackgroundImageFix"/>
<feColorMatrix in="SourceAlpha" type="matrix" values="0 0 0 0 0 0 0 0 0 0 0 0 0 0 0 0 0 0 127 0" result="hardAlpha"/>
<feOffset dx="1.49925" dy="1.49925"/>
<feGaussianBlur stdDeviation="1.87406"/>
<feComposite in2="hardAlpha" operator="out"/>
<feColorMatrix type="matrix" values="0 0 0 0 0 0 0 0 0 0 0 0 0 0 0 0 0 0 0.1 0"/>
<feBlend mode="normal" in2="BackgroundImageFix" result="effect1_dropShadow_565_7465"/>
<feBlend mode="normal" in="SourceGraphic" in2="effect1_dropShadow_565_7465" result="shape"/>
</filter>
<filter id="filter1_d_565_7465" x="161.589" y="105.884" width="121.064" height="115.817" filterUnits="userSpaceOnUse" color-interpolation-filters="sRGB">
<feFlood flood-opacity="0" result="BackgroundImageFix"/>
<feColorMatrix in="SourceAlpha" type="matrix" values="0 0 0 0 0 0 0 0 0 0 0 0 0 0 0 0 0 0 127 0" result="hardAlpha"/>
<feOffset dx="1.49925" dy="1.49925"/>
<feGaussianBlur stdDeviation="1.87406"/>
<feComposite in2="hardAlpha" operator="out"/>
<feColorMatrix type="matrix" values="0 0 0 0 0 0 0 0 0 0 0 0 0 0 0 0 0 0 0.1 0"/>
<feBlend mode="normal" in2="BackgroundImageFix" result="effect1_dropShadow_565_7465"/>
<feBlend mode="normal" in="SourceGraphic" in2="effect1_dropShadow_565_7465" result="shape"/>
</filter>
<filter id="filter2_f_565_7465" x="0.503746" y="95.3521" width="436.086" height="288.205" filterUnits="userSpaceOnUse" color-interpolation-filters="sRGB">
<feFlood flood-opacity="0" result="BackgroundImageFix"/>
<feBlend mode="normal" in="SourceGraphic" in2="BackgroundImageFix" result="shape"/>
<feGaussianBlur stdDeviation="30.2848" result="effect1_foregroundBlur_565_7465"/>
</filter>
<filter id="filter3_f_565_7465" x="33.3318" y="-58.8354" width="451.174" height="273.212" filterUnits="userSpaceOnUse" color-interpolation-filters="sRGB">
<feFlood flood-opacity="0" result="BackgroundImageFix"/>
<feBlend mode="normal" in="SourceGraphic" in2="BackgroundImageFix" result="shape"/>
<feGaussianBlur stdDeviation="29.6101" result="effect1_foregroundBlur_565_7465"/>
</filter>
</defs>
</svg>
