<svg width="295" height="266" viewBox="0 0 295 266" fill="none" xmlns="http://www.w3.org/2000/svg">
<g filter="url(#filter0_d_565_7481)">
<path fill-rule="evenodd" clip-rule="evenodd" d="M220.65 67.8345C165.499 67.8345 120.79 112.543 120.79 167.694C120.79 222.846 165.499 267.554 220.65 267.554C275.801 267.554 320.51 222.846 320.51 167.694C320.51 112.543 275.801 67.8345 220.65 67.8345ZM118.324 167.694C118.324 111.182 164.137 65.3688 220.65 65.3688C277.163 65.3688 322.976 111.182 322.976 167.694C322.976 224.207 277.163 270.02 220.65 270.02C164.137 270.02 118.324 224.207 118.324 167.694Z" fill="#F5F5F6"/>
<path fill-rule="evenodd" clip-rule="evenodd" d="M220.65 67.8345C165.499 67.8345 120.79 112.543 120.79 167.694C120.79 222.846 165.499 267.554 220.65 267.554C275.801 267.554 320.51 222.846 320.51 167.694C320.51 112.543 275.801 67.8345 220.65 67.8345ZM118.324 167.694C118.324 111.182 164.137 65.3688 220.65 65.3688C277.163 65.3688 322.976 111.182 322.976 167.694C322.976 224.207 277.163 270.02 220.65 270.02C164.137 270.02 118.324 224.207 118.324 167.694Z" stroke="#F5F5F6"/>
</g>
<g filter="url(#filter1_d_565_7481)">
<path d="M272.309 176.368C277.355 174.188 277.355 170.652 272.309 168.471L259.17 162.793L236.893 172.419L229.76 175.502C224.713 177.683 216.53 177.683 211.484 175.502L204.35 172.419L182.074 162.793L168.935 168.471C163.888 170.652 163.888 174.188 168.935 176.368L182.073 182.046L211.484 194.754C216.53 196.935 224.713 196.935 229.76 194.754L259.17 182.046L272.309 176.368Z" fill="#F5F5F6"/>
<path d="M182.073 182.046L211.484 194.754C216.53 196.935 224.713 196.935 229.76 194.754L259.17 182.046M182.073 182.046L168.935 176.368C163.888 174.188 163.888 170.652 168.935 168.471L182.074 162.793M182.073 182.046L168.935 187.723C163.888 189.904 163.888 193.439 168.935 195.62L211.484 214.006C216.53 216.187 224.713 216.187 229.76 214.006L272.309 195.62C277.355 193.439 277.355 189.904 272.309 187.723L259.17 182.046M259.17 182.046L272.309 176.368C277.355 174.188 277.355 170.652 272.309 168.471L259.17 162.793M182.074 162.793L204.35 172.419L211.484 175.502C216.53 177.683 224.713 177.683 229.76 175.502L236.893 172.419L259.17 162.793M182.074 162.793L168.935 157.116C163.888 154.935 163.888 151.399 168.935 149.219L182.073 143.541M259.17 162.793L272.309 157.116C277.355 154.935 277.355 151.399 272.309 149.219L259.17 143.541M182.073 143.541L168.935 137.864C163.888 135.683 163.888 132.148 168.935 129.967L211.484 111.581C216.53 109.4 224.713 109.4 229.76 111.581L272.309 129.967C277.355 132.148 277.355 135.683 272.309 137.864L259.17 143.541M182.073 143.541L204.35 153.168L211.484 156.25C216.53 158.431 224.713 158.431 229.76 156.25L236.893 153.168L259.17 143.541" stroke="#F5F5F6" stroke-width="2.62368" stroke-miterlimit="10"/>
</g>
<g filter="url(#filter2_f_565_7481)">
<rect x="84.9398" y="156.422" width="301.349" height="92.2129" transform="rotate(15 84.9398 156.422)" fill="white"/>
</g>
<g opacity="0.8" filter="url(#filter3_f_565_7481)">
<ellipse cx="258.919" cy="78.2707" rx="171.321" ry="65.6514" transform="rotate(15 258.919 78.2707)" fill="white"/>
</g>
<defs>
<filter id="filter0_d_565_7481" x="116.076" y="63.1199" width="212.148" height="212.148" filterUnits="userSpaceOnUse" color-interpolation-filters="sRGB">
<feFlood flood-opacity="0" result="BackgroundImageFix"/>
<feColorMatrix in="SourceAlpha" type="matrix" values="0 0 0 0 0 0 0 0 0 0 0 0 0 0 0 0 0 0 127 0" result="hardAlpha"/>
<feOffset dx="1.49925" dy="1.49925"/>
<feGaussianBlur stdDeviation="1.87406"/>
<feComposite in2="hardAlpha" operator="out"/>
<feColorMatrix type="matrix" values="0 0 0 0 0 0 0 0 0 0 0 0 0 0 0 0 0 0 0.1 0"/>
<feBlend mode="normal" in2="BackgroundImageFix" result="effect1_dropShadow_565_7481"/>
<feBlend mode="normal" in="SourceGraphic" in2="effect1_dropShadow_565_7481" result="shape"/>
</filter>
<filter id="filter1_d_565_7481" x="161.589" y="106.384" width="121.064" height="115.817" filterUnits="userSpaceOnUse" color-interpolation-filters="sRGB">
<feFlood flood-opacity="0" result="BackgroundImageFix"/>
<feColorMatrix in="SourceAlpha" type="matrix" values="0 0 0 0 0 0 0 0 0 0 0 0 0 0 0 0 0 0 127 0" result="hardAlpha"/>
<feOffset dx="1.49925" dy="1.49925"/>
<feGaussianBlur stdDeviation="1.87406"/>
<feComposite in2="hardAlpha" operator="out"/>
<feColorMatrix type="matrix" values="0 0 0 0 0 0 0 0 0 0 0 0 0 0 0 0 0 0 0.1 0"/>
<feBlend mode="normal" in2="BackgroundImageFix" result="effect1_dropShadow_565_7481"/>
<feBlend mode="normal" in="SourceGraphic" in2="effect1_dropShadow_565_7481" result="shape"/>
</filter>
<filter id="filter2_f_565_7481" x="0.503746" y="95.8521" width="436.086" height="288.205" filterUnits="userSpaceOnUse" color-interpolation-filters="sRGB">
<feFlood flood-opacity="0" result="BackgroundImageFix"/>
<feBlend mode="normal" in="SourceGraphic" in2="BackgroundImageFix" result="shape"/>
<feGaussianBlur stdDeviation="30.2848" result="effect1_foregroundBlur_565_7481"/>
</filter>
<filter id="filter3_f_565_7481" x="33.3318" y="-58.3354" width="451.174" height="273.212" filterUnits="userSpaceOnUse" color-interpolation-filters="sRGB">
<feFlood flood-opacity="0" result="BackgroundImageFix"/>
<feBlend mode="normal" in="SourceGraphic" in2="BackgroundImageFix" result="shape"/>
<feGaussianBlur stdDeviation="29.6101" result="effect1_foregroundBlur_565_7481"/>
</filter>
</defs>
</svg>
