<svg width="25" height="25" viewBox="0 0 25 25" fill="none" xmlns="http://www.w3.org/2000/svg">
<path d="M15.9232 5.71838C16.8999 5.90895 17.7976 6.38664 18.5012 7.09032C19.2049 7.794 19.6826 8.69165 19.8732 9.66838M15.9232 1.71838C17.9524 1.94382 19.8448 2.85256 21.2894 4.29539C22.7341 5.73822 23.6452 7.62939 23.8732 9.65838M22.8732 17.6384V20.6384C22.8743 20.9169 22.8172 21.1926 22.7057 21.4477C22.5941 21.7029 22.4305 21.932 22.2252 22.1202C22.02 22.3085 21.7777 22.4519 21.5139 22.5411C21.2501 22.6303 20.9705 22.6635 20.6932 22.6384C17.616 22.304 14.6602 21.2525 12.0632 19.5684C9.64699 18.033 7.5985 15.9846 6.06316 13.5684C4.37314 10.9596 3.32141 7.98938 2.99316 4.89838C2.96817 4.62185 3.00104 4.34314 3.08966 4.08001C3.17829 3.81687 3.32073 3.57507 3.50793 3.37C3.69512 3.16494 3.92297 3.00109 4.17695 2.88891C4.43094 2.77672 4.7055 2.71865 4.98316 2.71838H7.98316C8.46847 2.71361 8.93895 2.88546 9.30692 3.20192C9.67489 3.51837 9.91524 3.95783 9.98316 4.43838C10.1098 5.39845 10.3446 6.34111 10.6832 7.24838C10.8177 7.60631 10.8468 7.9953 10.7671 8.36926C10.6873 8.74323 10.502 9.08649 10.2332 9.35838L8.96316 10.6284C10.3867 13.1319 12.4596 15.2048 14.9632 16.6284L16.2332 15.3584C16.5051 15.0895 16.8483 14.9042 17.2223 14.8245C17.5962 14.7447 17.9852 14.7738 18.3432 14.9084C19.2504 15.2469 20.1931 15.4818 21.1532 15.6084C21.6389 15.6769 22.0826 15.9216 22.3997 16.2959C22.7168 16.6702 22.8853 17.148 22.8732 17.6384Z" stroke="currentColor" stroke-width="2" stroke-linecap="round" stroke-linejoin="round"/>
</svg>
