<svg width="20" height="20" viewBox="0 0 20 20" fill="none" xmlns="http://www.w3.org/2000/svg">
<path d="M18.3334 10H13.3334L11.6667 12.5H8.33341L6.66675 10H1.66675" stroke="currentColor" stroke-width="1.5" stroke-linecap="round" stroke-linejoin="round"/>
<path d="M4.54175 4.25825L1.66675 9.99992V14.9999C1.66675 15.4419 1.84234 15.8659 2.1549 16.1784C2.46746 16.491 2.89139 16.6666 3.33341 16.6666H16.6667C17.1088 16.6666 17.5327 16.491 17.8453 16.1784C18.1578 15.8659 18.3334 15.4419 18.3334 14.9999V9.99992L15.4584 4.25825C15.3204 3.98057 15.1077 3.74689 14.8442 3.58348C14.5807 3.42008 14.2768 3.33342 13.9667 3.33325H6.03341C5.72334 3.33342 5.41947 3.42008 5.15595 3.58348C4.89244 3.74689 4.67973 3.98057 4.54175 4.25825Z" stroke="currentColor" stroke-width="1.5" stroke-linecap="round" stroke-linejoin="round"/>
</svg>
