<svg width="20" height="20" viewBox="0 0 20 20" fill="none" xmlns="http://www.w3.org/2000/svg">
<path d="M16.6666 5.83325H3.33329C2.41282 5.83325 1.66663 6.57944 1.66663 7.49992V15.8333C1.66663 16.7537 2.41282 17.4999 3.33329 17.4999H16.6666C17.5871 17.4999 18.3333 16.7537 18.3333 15.8333V7.49992C18.3333 6.57944 17.5871 5.83325 16.6666 5.83325Z" stroke="currentColor" stroke-width="1.5" stroke-linecap="round" stroke-linejoin="round"/>
<path d="M13.3333 17.5V4.16667C13.3333 3.72464 13.1577 3.30072 12.8451 2.98816C12.5326 2.67559 12.1087 2.5 11.6666 2.5H8.33329C7.89127 2.5 7.46734 2.67559 7.15478 2.98816C6.84222 3.30072 6.66663 3.72464 6.66663 4.16667V17.5" stroke="currentColor" stroke-width="1.5" stroke-linecap="round" stroke-linejoin="round"/>
</svg>
