<svg width="24" height="24" viewBox="0 0 24 24" fill="none" xmlns="http://www.w3.org/2000/svg">
<path d="M5.31602 7.49984H14.7C16.5919 7.49927 18.4308 8.12496 19.9297 9.27927C21.4286 10.4336 22.5033 12.0516 22.986 13.8808C23.155 14.4898 23.2444 15.118 23.252 15.7498C23.2589 16.0474 23.2053 16.3432 23.0945 16.6194C22.9837 16.8956 22.8181 17.1465 22.6075 17.3568C22.397 17.5671 22.146 17.7326 21.8697 17.8431C21.5934 17.9536 21.2975 18.007 21 17.9998H12.75C12.3118 17.9992 11.8845 17.8632 11.5265 17.6104C11.1685 17.3577 10.8973 17.0006 10.75 16.5878L9.53001 13.1718C9.40166 12.8132 9.18444 12.493 8.89867 12.2412C8.61291 11.9893 8.26793 11.8141 7.89602 11.7318L3.51302 10.7628C3.14606 10.6828 2.805 10.512 2.52097 10.2663C2.23695 10.0205 2.019 9.70749 1.88702 9.35584L0.848015 6.58584C0.717781 6.23798 0.717316 5.85483 0.846704 5.50665C0.976092 5.15848 1.22666 4.86861 1.55246 4.69022C1.87826 4.51183 2.25745 4.45686 2.62049 4.53541C2.98353 4.61395 3.30609 4.82074 3.52902 5.11784L5.31602 7.49984Z" stroke="currentColor" stroke-width="1.5" stroke-linecap="round" stroke-linejoin="round"/>
<path d="M14.25 7.5V1.5" stroke="currentColor" stroke-width="1.5" stroke-linecap="round" stroke-linejoin="round"/>
<path d="M23.25 3H5.25" stroke="currentColor" stroke-width="1.5" stroke-linecap="round" stroke-linejoin="round"/>
<path d="M15.75 10.5V7.56396C17.3816 7.76582 18.9207 8.4328 20.1837 9.48532C21.4467 10.5378 22.3803 11.9315 22.873 13.5H18.75C17.9544 13.5 17.1913 13.1839 16.6287 12.6213C16.0661 12.0587 15.75 11.2956 15.75 10.5Z" stroke="currentColor" stroke-width="1.5" stroke-linecap="round" stroke-linejoin="round"/>
<path d="M23.25 21C23.25 21.3978 23.092 21.7794 22.8107 22.0607C22.5294 22.342 22.1478 22.5 21.75 22.5H11.25C10.8522 22.5 10.4706 22.342 10.1893 22.0607C9.90804 21.7794 9.75 21.3978 9.75 21" stroke="currentColor" stroke-width="1.5" stroke-linecap="round" stroke-linejoin="round"/>
<path d="M21 22.5L18.75 18" stroke="currentColor" stroke-width="1.5" stroke-linecap="round" stroke-linejoin="round"/>
<path d="M12 22.5L14.25 18" stroke="currentColor" stroke-width="1.5" stroke-linecap="round" stroke-linejoin="round"/>
</svg>
