<svg width="20" height="20" viewBox="0 0 20 20" fill="none" xmlns="http://www.w3.org/2000/svg">
<path d="M12.2499 5.24994C12.0972 5.40572 12.0117 5.61515 12.0117 5.83328C12.0117 6.0514 12.0972 6.26083 12.2499 6.41661L13.5832 7.74994C13.739 7.90263 13.9484 7.98816 14.1665 7.98816C14.3847 7.98816 14.5941 7.90263 14.7499 7.74994L17.8915 4.60828C18.3106 5.53427 18.4374 6.56597 18.2553 7.5659C18.0731 8.56582 17.5905 9.48648 16.8718 10.2052C16.1531 10.9239 15.2324 11.4065 14.2325 11.5887C13.2326 11.7708 12.2009 11.644 11.2749 11.2249L5.51655 16.9833C5.18503 17.3148 4.73539 17.501 4.26655 17.501C3.79771 17.501 3.34807 17.3148 3.01655 16.9833C2.68503 16.6518 2.49878 16.2021 2.49878 15.7333C2.49878 15.2644 2.68503 14.8148 3.01655 14.4833L8.77488 8.72494C8.35585 7.79895 8.22898 6.76725 8.41116 5.76732C8.59335 4.7674 9.07595 3.84674 9.79465 3.12804C10.5133 2.40935 11.434 1.92675 12.4339 1.74456C13.4339 1.56237 14.4656 1.68925 15.3915 2.10828L12.2582 5.24161L12.2499 5.24994Z" stroke="currentColor" stroke-width="1.5" stroke-linecap="round" stroke-linejoin="round"/>
</svg>
