<svg width="24" height="24" viewBox="0 0 24 24" fill="none" xmlns="http://www.w3.org/2000/svg">
<path d="M20.8584 9.43565C20.8584 14.7439 16.7638 21.1828 11.713 21.1828C6.66214 21.1828 2.56763 14.7439 2.56763 9.43565C2.56763 4.12745 6.66214 1.96008 11.713 1.96008C16.7638 1.96008 20.8584 4.12745 20.8584 9.43565Z" stroke="currentColor" stroke-width="1.71" stroke-linecap="round" stroke-linejoin="round"/>
<path d="M17.7586 17.8479C16.1469 19.8274 14.0309 21.1828 11.7137 21.1828C9.39841 21.1828 7.28408 19.8298 5.67297 17.8528C6.69374 15.0746 9.01566 13.8838 11.7167 13.8838C14.416 13.8838 16.7368 15.0732 17.7586 17.8479Z" stroke="currentColor" stroke-width="1.71" stroke-linecap="round" stroke-linejoin="round"/>
<path d="M4.26778 20.3845L2.56763 21.9811" stroke="currentColor" stroke-width="1.71" stroke-linecap="round" stroke-linejoin="round"/>
<path d="M19.7321 20.3845L21.4323 21.9811" stroke="currentColor" stroke-width="1.71" stroke-linecap="round" stroke-linejoin="round"/>
<path d="M8.01482 6.21252H15.4151C15.4151 6.21252 17.4387 6.21252 17.4387 8.23614C17.4387 8.23614 17.4387 10.2598 15.4151 10.2598H8.01482C8.01482 10.2598 5.99121 10.2598 5.99121 8.23614C5.99121 8.23614 5.99121 6.21252 8.01482 6.21252Z" stroke="currentColor" stroke-width="1.71" stroke-linecap="round" stroke-linejoin="round"/>
</svg>
