<svg width="20" height="20" viewBox="0 0 20 20" fill="none" xmlns="http://www.w3.org/2000/svg">
<path d="M7.49984 18.3334C7.96007 18.3334 8.33317 17.9603 8.33317 17.5001C8.33317 17.0398 7.96007 16.6667 7.49984 16.6667C7.0396 16.6667 6.6665 17.0398 6.6665 17.5001C6.6665 17.9603 7.0396 18.3334 7.49984 18.3334Z" stroke="currentColor" stroke-width="1.5" stroke-linecap="round" stroke-linejoin="round"/>
<path d="M16.6668 18.3334C17.1271 18.3334 17.5002 17.9603 17.5002 17.5001C17.5002 17.0398 17.1271 16.6667 16.6668 16.6667C16.2066 16.6667 15.8335 17.0398 15.8335 17.5001C15.8335 17.9603 16.2066 18.3334 16.6668 18.3334Z" stroke="currentColor" stroke-width="1.5" stroke-linecap="round" stroke-linejoin="round"/>
<path d="M0.833496 0.833252H4.16683L6.40016 11.9916C6.47637 12.3752 6.68509 12.7199 6.98978 12.9652C7.29448 13.2104 7.67574 13.3407 8.06683 13.3333H16.1668C16.5579 13.3407 16.9392 13.2104 17.2439 12.9652C17.5486 12.7199 17.7573 12.3752 17.8335 11.9916L19.1668 4.99992H5.00016" stroke="currentColor" stroke-width="1.5" stroke-linecap="round" stroke-linejoin="round"/>
</svg>
