<svg width="21" height="20" viewBox="0 0 21 20" fill="none" xmlns="http://www.w3.org/2000/svg">
<path d="M15.5 17.5C16.8807 17.5 18 16.3807 18 15C18 13.6193 16.8807 12.5 15.5 12.5C14.1193 12.5 13 13.6193 13 15C13 16.3807 14.1193 17.5 15.5 17.5Z" stroke="currentColor" stroke-width="1.5" stroke-linecap="round" stroke-linejoin="round"/>
<path d="M5.5 7.5C6.88071 7.5 8 6.38071 8 5C8 3.61929 6.88071 2.5 5.5 2.5C4.11929 2.5 3 3.61929 3 5C3 6.38071 4.11929 7.5 5.5 7.5Z" stroke="currentColor" stroke-width="1.5" stroke-linecap="round" stroke-linejoin="round"/>
<path d="M11.3334 5H13.8334C14.2754 5 14.6993 5.17559 15.0119 5.48816C15.3244 5.80072 15.5 6.22464 15.5 6.66667V12.5" stroke="currentColor" stroke-width="1.5" stroke-linecap="round" stroke-linejoin="round"/>
<path d="M5.5 7.5V17.5" stroke="currentColor" stroke-width="1.5" stroke-linecap="round" stroke-linejoin="round"/>
</svg>
