<svg width="583" height="527" viewBox="0 0 583 527" fill="none" xmlns="http://www.w3.org/2000/svg">
<path d="M214.8 201.1C214.7 201.2 214.6 201.3 214.5 201.4L213.5 203.5L213.4 203.7L212.4 205.8C212.3 206.1 212.3 206.5 212.4 206.6L214 208.1C214.1 208.2 214.2 208.2 214.3 208.1C214.4 208 214.5 207.9 214.6 207.8L215.6 205.7L215.7 205.5L216.7 203.4C216.8 203.1 216.8 202.8 216.7 202.6L215.1 201.1C215 201 214.9 201 214.8 201.1Z" fill="#003DB6"/>
<path d="M202.3 212.1C202.2 212.2 202.1 212.3 202 212.4L201 214.5L200.9 214.7L199.9 216.8C199.8 217.1 199.8 217.4 199.9 217.6L201.5 219.1C201.6 219.2 201.7 219.2 201.8 219.1C201.9 219 202 218.9 202.1 218.8L203.1 216.7L203.2 216.5L204.2 214.4C204.3 214.1 204.3 213.7 204.2 213.6L202.6 212.1C202.5 212 202.4 212 202.3 212.1Z" fill="#003DB6"/>
<path d="M205.2 189.7C205.1 189.8 205 189.9 204.9 190L203.9 192.2L203.8 192.4L202.8 194.6C202.7 194.9 202.7 195.2 202.8 195.4L204.4 196.9C204.5 197 204.6 197 204.7 196.9C204.8 196.8 204.9 196.7 205 196.6L206 194.4L206.1 194.2L207.1 192C207.2 191.7 207.2 191.4 207.1 191.2L205.5 189.7C205.4 189.7 205.3 189.7 205.2 189.7Z" fill="#003DB6"/>
<path d="M184.8 230.3C184.6 229.6 184.7 228.6 185.1 227.7L188.3 221L189.3 222L186.5 227.8C186.3 228.2 186.3 228.6 186.5 228.8L184.8 230.3ZM222.9 205L226.3 198.1L227.3 199L222.9 208.2L218.6 204.2L219.7 202L222.9 205ZM193.3 223.6L189 219.6L190.1 217.4L194.4 221.4L193.3 223.6ZM205.8 209.3L204.1 207.8L206.3 205.8L205.8 209.3ZM195.3 216.6L198.7 209.6L199.7 210.5L195.3 219.7L191 215.7L192.1 213.5L195.3 216.6ZM214.3 210.5C213.9 210.7 213.5 210.7 213.2 210.4L211.2 208.5C210.6 207.9 210.6 206.5 211.2 205.3L213.9 199.8C214.2 199.2 214.5 198.8 214.9 198.6C215.3 198.4 215.7 198.4 216 198.7L218 200.6C218.6 201.2 218.6 202.6 218 203.8L215.3 209.3C215 209.9 214.7 210.3 214.3 210.5ZM207.2 206.9C207.3 206.8 207.4 206.7 207.5 206.5L210.3 200.7L211.4 201.7L208.2 208.4C207.9 209 207.6 209.4 207.2 209.6C207 209.7 206.8 209.8 206.6 209.8L207 206.9C207 206.9 207.1 206.9 207.2 206.9ZM203.6 207C203.4 206.3 203.5 205.3 203.9 204.4L207.1 197.7L208.1 198.7L205.3 204.5C205.1 204.9 205.1 205.3 205.3 205.5L203.6 207ZM212.1 200.3L207.8 196.3L208.9 194.1L213.2 198.1L212.1 200.3ZM200.2 208.4C199.8 208.6 199.4 208.6 199.1 208.3L197.1 206.4C196.5 205.8 196.5 204.4 197.1 203.2L200 197.2L200.7 198.7L198.3 203.7C198.2 204 198.2 204.3 198.3 204.5L199.9 206C200 206.1 200.1 206.1 200.2 206C200.3 205.9 200.4 205.8 200.5 205.7L202.9 200.7L204.2 201L201.3 207C200.9 207.8 200.6 208.2 200.2 208.4ZM214.1 193.3L217.5 186.4L218.5 187.3L214.1 196.5L209.8 192.5L210.9 190.3L214.1 193.3ZM204.7 199.2C204.3 199.4 203.9 199.4 203.6 199.1L201.6 197.2C201 196.6 201 195.2 201.6 194L204.3 188.5C204.6 187.9 205 187.5 205.3 187.3C205.7 187.1 206.1 187.1 206.4 187.4L208.4 189.3C209 189.8 209 191.3 208.4 192.5L205.7 198C205.4 198.6 205 199 204.7 199.2ZM230.3 169.9L225.5 172.7L224.5 174.7C224.2 175.3 223.8 175.7 223.5 175.9C223.1 176.1 222.7 176.1 222.4 175.8L221.5 174.9L219.2 176.2L217.2 180.4C217.1 180.7 217.1 181 217.2 181.2L218.8 182.7C218.9 182.8 219 182.8 219.1 182.7C219.2 182.6 219.3 182.5 219.4 182.4L221.8 177.4L223.1 177.7L220.2 183.7C219.9 184.3 219.5 184.7 219.2 184.9C218.8 185.1 218.4 185.1 218.1 184.8L216.1 182.9C215.5 182.3 215.5 180.9 216.1 179.7L217.4 177.1L203.4 185.2L180.2 233L190.1 227.3L191.8 223.7L192.9 224.7L192.2 226.1L194.8 224.6L197.3 219.3L198 220.8L196.8 223.4L200.8 221.1L198.9 219.3C198.3 218.7 198.3 217.3 198.9 216.1L201.6 210.6C201.9 210 202.3 209.6 202.6 209.4C203 209.2 203.4 209.2 203.7 209.5L205.7 211.4C206.3 212 206.3 213.4 205.7 214.6L203.2 219.8L207 217.6C206.4 217 206.4 215.6 207 214.4L209.9 208.4L210.6 209.9L208.2 214.9C208.1 215.2 208.1 215.5 208.2 215.7L209 216.5L211.2 215.3L212.8 212.1L214.1 212.4L213.2 214.2L214.2 213.6L216.2 209.4L217.2 210.4L216.2 212.5L219.5 210.6L216.8 208.1L217.9 205.9L221.6 209.4L230.5 204.3V192.7L229 195.7C228.7 196.3 228.4 196.7 228 196.9C227.6 197.1 227.2 197.1 226.9 196.8L224.9 194.9C224.3 194.3 224.3 192.9 224.9 191.7L227.8 185.7L228.5 187.2L226.1 192.2C226 192.5 226 192.9 226.1 193L227.7 194.5C227.8 194.6 227.9 194.6 228 194.5C228.1 194.4 228.2 194.3 228.2 194.2L230.4 189.6V186.7L229.3 185.7C228.7 185.1 228.7 183.7 229.3 182.5L230.4 180.2L230.3 169.9Z" fill="#003DB6"/>
<path d="M169.5 224.5C169.2 224.7 169 224.5 169 224.2V220.5C169 220.2 169.2 219.8 169.5 219.6L173.9 217.1C174.2 216.9 174.4 217.1 174.4 217.4V221.1C174.4 221.4 174.2 221.8 173.9 222L169.5 224.5ZM174.3 214.6L169 217.7C167.8 218.4 166.9 220 166.9 221.3V225.8C166.9 227.1 167.9 227.7 169 227L174.3 223.9C175.5 223.2 176.4 221.6 176.4 220.3V215.8C176.4 214.5 175.5 213.9 174.3 214.6Z" fill="#003DB6"/>
<path d="M165.9 219.5L160 222.9C158.8 223.6 157.9 225.2 157.9 226.5V231C157.9 232.3 158.8 232.9 160 232.2L165.9 228.8L165.3 226.9L160.5 229.7C160.2 229.9 160 229.7 160 229.4V225.7C160 225.4 160.2 225 160.5 224.8L165.3 222L165.9 219.5Z" fill="#003DB6"/>
<path d="M150 228.4L147.9 229.7V239.2L156.8 234.1V231.9L150.1 235.8L150 228.4Z" fill="#003DB6"/>
<path d="M146.2 230.6L144.1 231.9V241.4L146.2 240.2V230.6Z" fill="#003DB6"/>
<path d="M136.2 236.4C135.3 236.9 134.6 237.9 134.3 239L136.4 239.3C136.4 238.9 136.7 238.4 137.1 238.2L142.7 235V232.7L136.2 236.4Z" fill="#003DB6"/>
<path d="M134.2 240.5V244.2L136.9 240.8L134.2 240.5Z" fill="#003DB6"/>
<path d="M136.5 242.8L134.4 245.6C134.7 246.3 135.4 246.5 136.3 246L142.8 242.2V239.8L137.2 243C136.8 243.3 136.5 243.1 136.5 242.8Z" fill="#003DB6"/>
<path d="M119.3 242.1L119.4 259.8L131 244.2L119.3 242.1Z" fill="#003DB6"/>
<path d="M301.6 414.7C301.5 414.8 301.4 414.9 301.3 415L300.3 417.1L300.2 417.3L299.2 419.4C299.1 419.7 299.1 420.1 299.2 420.2L300.8 421.7C300.9 421.8 301 421.8 301.1 421.7C301.2 421.6 301.3 421.5 301.4 421.4L302.4 419.3L302.5 419.1L303.5 417C303.6 416.7 303.6 416.4 303.5 416.2L301.9 414.7C301.8 414.7 301.7 414.7 301.6 414.7Z" fill="#003DB6"/>
<path d="M289 425.7C288.9 425.8 288.8 425.9 288.7 426L287.7 428.1L287.6 428.3L286.6 430.4C286.5 430.7 286.5 431 286.6 431.2L288.2 432.7C288.3 432.8 288.4 432.8 288.5 432.7C288.6 432.6 288.7 432.5 288.8 432.4L289.8 430.3L289.9 430.1L290.9 428C291 427.7 291 427.3 290.9 427.2L289.3 425.7C289.2 425.7 289.1 425.7 289 425.7Z" fill="#003DB6"/>
<path d="M291.9 403.4C291.8 403.5 291.7 403.6 291.6 403.7L290.6 405.8L290.5 406L289.5 408.2C289.4 408.5 289.4 408.8 289.5 409L291.1 410.5C291.2 410.6 291.3 410.6 291.4 410.5C291.5 410.4 291.6 410.3 291.7 410.2L292.7 408.1L292.8 407.9L293.8 405.7C293.9 405.4 293.9 405.1 293.8 404.9L292.2 403.4C292.1 403.3 292 403.3 291.9 403.4Z" fill="#003DB6"/>
<path d="M271.6 444C271.4 443.3 271.5 442.3 271.9 441.4L275.1 434.7L276.1 435.7L273.3 441.5C273.1 441.9 273.1 442.3 273.3 442.5L271.6 444ZM309.7 418.7L313.1 411.8L314.1 412.7L309.7 421.9L305.4 417.9L306.5 415.7L309.7 418.7ZM280 437.3L275.7 433.3L276.8 431.1L281.1 435.1L280 437.3ZM292.6 423L290.9 421.5L293.1 419.5L292.6 423ZM282 430.2L285.4 423.3L286.4 424.2L282 433.4L277.7 429.4L278.8 427.2L282 430.2ZM301 424.2C300.6 424.4 300.2 424.4 299.9 424.1L297.9 422.2C297.3 421.6 297.3 420.2 297.9 419L300.6 413.5C300.9 412.9 301.3 412.5 301.6 412.3C302 412.1 302.4 412.1 302.7 412.4L304.7 414.3C305.3 414.9 305.3 416.3 304.7 417.5L302 423C301.8 423.6 301.4 424 301 424.2ZM294 420.5C294.1 420.4 294.2 420.3 294.3 420.1L297.1 414.3L298.2 415.3L295 422C294.7 422.6 294.4 423 294 423.2C293.8 423.3 293.6 423.4 293.4 423.4L293.8 420.5C293.7 420.6 293.9 420.6 294 420.5ZM290.4 420.7C290.2 420 290.3 419 290.7 418.1L293.9 411.4L294.9 412.4L292.1 418.2C291.9 418.6 291.9 419 292.1 419.2L290.4 420.7ZM298.8 414L294.5 410L295.6 407.8L299.9 411.8L298.8 414ZM286.9 422.1C286.5 422.3 286.1 422.3 285.8 422L283.8 420.1C283.2 419.5 283.2 418.1 283.8 416.9L286.7 410.9L287.4 412.4L285 417.4C284.9 417.7 284.9 418 285 418.2L286.6 419.7C286.7 419.8 286.8 419.8 286.9 419.7C287 419.6 287.1 419.5 287.2 419.4L289.6 414.4L290.9 414.7L288 420.7C287.7 421.4 287.3 421.9 286.9 422.1ZM300.8 406.9L304.2 399.9L305.2 400.8L300.8 410L296.5 406L297.6 403.8L300.8 406.9ZM291.4 412.9C291 413.1 290.6 413.1 290.3 412.8L288.3 410.9C287.7 410.3 287.7 408.9 288.3 407.7L291 402.2C291.3 401.6 291.7 401.2 292 401C292.4 400.8 292.8 400.8 293.1 401.1L295.1 403C295.7 403.6 295.7 405 295.1 406.2L292.4 411.7C292.1 412.2 291.8 412.6 291.4 412.9ZM317 383.5L312.2 386.3L311.2 388.3C310.9 388.9 310.5 389.3 310.2 389.5C309.8 389.7 309.4 389.7 309.1 389.4L308.2 388.5L305.9 389.8L303.9 394C303.8 394.3 303.8 394.6 303.9 394.8L305.5 396.3C305.6 396.4 305.7 396.4 305.8 396.3C305.9 396.2 306 396.1 306.1 396L308.5 391L309.8 391.3L306.9 397.3C306.6 397.9 306.2 398.3 305.9 398.5C305.5 398.7 305.1 398.7 304.8 398.4L302.8 396.5C302.2 395.9 302.2 394.5 302.8 393.3L304.1 390.7L290.1 398.8L266.7 447L276.6 441.3L278.3 437.7L279.4 438.7L278.7 440.1L281.3 438.6L283.9 433.3L284.6 434.8L283.4 437.4L287.4 435.1L285.5 433.3C284.9 432.7 284.9 431.3 285.5 430.1L288.2 424.6C288.5 424 288.9 423.6 289.2 423.4C289.6 423.2 290 423.2 290.3 423.5L292.3 425.4C292.9 426 292.9 427.4 292.3 428.6L289.8 433.8L293.6 431.6C293 431 293 429.6 293.6 428.4L296.5 422.4L297.2 423.9L294.8 428.9C294.7 429.2 294.7 429.5 294.8 429.7L295.6 430.5L297.8 429.3L299.4 426.1L300.7 426.4L299.8 428.2L300.8 427.6L302.8 423.4L303.8 424.4L302.8 426.5L306.1 424.6L303.4 422.1L304.5 419.9L308.2 423.4L317.1 418.3V406.7L315.6 409.7C315.3 410.3 314.9 410.7 314.6 410.9C314.2 411.1 313.8 411.1 313.5 410.8L311.5 408.9C310.9 408.3 310.9 406.9 311.5 405.7L314.4 399.7L315.1 401.2L312.7 406.2C312.6 406.5 312.6 406.9 312.7 407L314.3 408.5C314.4 408.6 314.5 408.6 314.6 408.5C314.7 408.4 314.8 408.3 314.9 408.2L317.1 403.6V400.7L316 399.7C315.4 399.1 315.4 397.7 316 396.5L317.1 394.2L317 383.5Z" fill="#003DB6"/>
<path d="M254.8 439C254.5 439.2 254.3 439 254.3 438.7V435C254.3 434.7 254.5 434.3 254.8 434.1L259.2 431.6C259.5 431.4 259.7 431.6 259.7 431.9V435.6C259.7 435.9 259.5 436.3 259.2 436.5L254.8 439ZM259.7 429.1L254.4 432.2C253.2 432.9 252.3 434.5 252.3 435.8V440.3C252.3 441.6 253.3 442.2 254.4 441.5L259.7 438.4C260.9 437.7 261.8 436.1 261.8 434.8V430.3C261.8 429 260.8 428.4 259.7 429.1Z" fill="#003DB6"/>
<path d="M251.2 434L245.3 437.4C244.1 438.1 243.2 439.7 243.2 441V445.5C243.2 446.8 244.1 447.4 245.3 446.7L251.2 443.3L250.6 441.4L245.8 444.2C245.5 444.4 245.3 444.2 245.3 443.9V440.2C245.3 439.9 245.5 439.5 245.8 439.3L250.6 436.5L251.2 434Z" fill="#003DB6"/>
<path d="M235.4 442.9L233.2 444.1V453.7L242.1 448.6V446.4L235.4 450.3V442.9Z" fill="#003DB6"/>
<path d="M231.5 445.1L229.4 446.3V455.9L231.6 454.7L231.5 445.1Z" fill="#003DB6"/>
<path d="M221.5 450.9C220.6 451.4 219.9 452.4 219.6 453.5L221.7 453.8C221.7 453.4 222 452.9 222.4 452.7L228 449.5V447.2L221.5 450.9C221.6 450.9 221.6 450.9 221.5 450.9Z" fill="#003DB6"/>
<path d="M219.5 455V458.7L222.2 455.3L219.5 455Z" fill="#003DB6"/>
<path d="M221.8 457.3L219.7 460.1C220 460.8 220.7 461 221.6 460.5L228.1 456.7V454.3L222.5 457.5C222.1 457.8 221.8 457.6 221.8 457.3Z" fill="#003DB6"/>
<path d="M204.6 456.6L204.7 474.3L216.3 458.7L204.6 456.6Z" fill="#003DB6"/>
<path d="M211.5 362.7C211.4 362.8 211.3 362.9 211.2 363L210.2 365.1L210.1 365.3L209.1 367.4C209 367.7 209 368.1 209.1 368.2L210.7 369.7C210.8 369.8 210.9 369.8 211 369.7C211.1 369.6 211.2 369.5 211.3 369.4L212.3 367.2L212.4 367L213.4 364.8C213.5 364.5 213.5 364.2 213.4 364L211.8 362.5C211.7 362.6 211.6 362.6 211.5 362.7Z" fill="#003DB6"/>
<path d="M198.9 373.7C198.8 373.8 198.7 373.9 198.6 374L197.6 376.1L197.5 376.3L196.5 378.4C196.4 378.7 196.4 379 196.5 379.2L198.1 380.7C198.2 380.8 198.3 380.8 198.4 380.7C198.5 380.6 198.6 380.5 198.6 380.4L199.6 378.2L199.7 378L200.7 375.9C200.8 375.6 200.8 375.3 200.7 375.1L199.1 373.6C199.1 373.7 199 373.7 198.9 373.7Z" fill="#003DB6"/>
<path d="M201.8 351.4C201.7 351.5 201.6 351.6 201.6 351.7L200.6 353.9L200.5 354.1L199.5 356.2C199.4 356.5 199.4 356.8 199.5 357L201.1 358.5C201.2 358.6 201.3 358.6 201.4 358.5C201.5 358.4 201.6 358.3 201.7 358.2L202.7 356.1L202.8 355.9L203.8 353.7C203.9 353.4 203.9 353.1 203.8 352.9L202.2 351.4C202 351.3 201.9 351.3 201.8 351.4Z" fill="#003DB6"/>
<path d="M181.5 391.9C181.3 391.2 181.4 390.2 181.8 389.3L185 382.6L186 383.6L183.2 389.4C183 389.8 183 390.2 183.2 390.4L181.5 391.9ZM219.6 366.7L223 359.7L224 360.6L219.6 369.7L215.3 365.7L216.4 363.5L219.6 366.7ZM189.9 385.3L185.6 381.3L186.7 379.1L191 383.1L189.9 385.3ZM202.5 370.9L200.8 369.3L203 367.3L202.5 370.9ZM191.9 378.2L195.3 371.2L196.3 372.1L191.9 381.3L187.6 377.3L188.7 375.1L191.9 378.2ZM210.9 372.2C210.5 372.4 210.1 372.4 209.8 372.1L207.8 370.2C207.2 369.6 207.2 368.2 207.8 367L210.5 361.5C210.8 360.9 211.2 360.5 211.5 360.3C211.9 360.1 212.3 360.1 212.6 360.4L214.6 362.3C215.2 362.9 215.2 364.3 214.6 365.5L212 371C211.7 371.5 211.3 372 210.9 372.2ZM203.9 368.5C204 368.4 204.1 368.3 204.2 368.1L207 362.3L208.1 363.3L204.9 370C204.6 370.6 204.3 371 203.9 371.2C203.7 371.3 203.5 371.4 203.3 371.4L203.7 368.5C203.6 368.6 203.8 368.6 203.9 368.5ZM200.2 368.6C200 367.9 200.1 366.9 200.5 366L203.7 359.3L204.7 360.3L201.9 366.1C201.7 366.5 201.7 366.9 201.9 367.1L200.2 368.6ZM208.7 361.9L204.4 357.9L205.5 355.7L209.8 359.7L208.7 361.9ZM196.8 370.1C196.4 370.3 196 370.3 195.7 370L193.7 368.1C193.1 367.5 193.1 366.1 193.7 364.9L196.6 358.9L197.3 360.4L194.9 365.4C194.8 365.7 194.8 366 194.9 366.2L196.5 367.7C196.6 367.8 196.7 367.8 196.8 367.7C196.9 367.6 197 367.5 197.1 367.4L199.5 362.4L200.8 362.7L197.9 368.7C197.6 369.4 197.2 369.9 196.8 370.1ZM210.7 354.9L214.1 347.9L215.1 348.8L210.7 358L206.4 354L207.5 351.8L210.7 354.9ZM201.3 360.8C200.9 361 200.5 361 200.2 360.7L198.2 358.8C197.6 358.2 197.6 356.8 198.2 355.6L200.9 350.1C201.2 349.5 201.5 349.1 201.9 348.9C202.3 348.7 202.7 348.7 203 349L205 350.9C205.6 351.5 205.6 352.9 205 354.1L202.3 359.6C202 360.2 201.7 360.6 201.3 360.8ZM226.9 331.5L222.1 334.3L221.1 336.3C220.8 336.9 220.4 337.3 220.1 337.5C219.7 337.7 219.3 337.7 219 337.4L218.1 336.5L215.8 337.8L213.8 342C213.7 342.3 213.7 342.6 213.8 342.8L215.4 344.3C215.5 344.4 215.6 344.4 215.7 344.3C215.8 344.2 215.9 344.1 216 344L218.4 339L219.7 339.3L216.8 345.3C216.5 345.9 216.1 346.3 215.8 346.5C215.4 346.7 215 346.7 214.7 346.4L212.7 344.5C212.1 343.9 212.1 342.5 212.7 341.3L214 338.7L200 346.8L176.5 395L186.4 389.3L188.1 385.7L189.2 386.7L188.5 388.1L191.1 386.6L193.6 381.3L194.3 382.8L193.1 385.4L197.1 383.1L195.2 381.3C194.6 380.7 194.6 379.3 195.2 378.1L197.9 372.6C198.2 372 198.5 371.6 198.9 371.4C199.3 371.2 199.7 371.2 200 371.5L202 373.4C202.6 374 202.6 375.4 202 376.6L199.5 381.8L203.3 379.6C202.7 379 202.7 377.6 203.3 376.4L206.2 370.4L206.9 371.9L204.5 376.9C204.4 377.2 204.4 377.5 204.5 377.7L205.3 378.5L207.5 377.3L209.1 374L210.4 374.3L209.5 376.1L210.5 375.5L212.5 371.3L213.5 372.3L212.5 374.4L215.8 372.5L213.1 370L214.2 367.8L217.9 371.3L226.8 366.2V354.6L225.3 357.6C225 358.2 224.6 358.6 224.3 358.8C223.9 359 223.5 359 223.2 358.7L221.2 356.8C220.6 356.2 220.6 354.8 221.2 353.6L224.1 347.6L224.8 349.1L222.4 354.1C222.3 354.4 222.3 354.7 222.4 354.9L224 356.4C224.1 356.5 224.2 356.5 224.3 356.4C224.4 356.3 224.5 356.2 224.6 356.1L226.8 351.5V348.6L225.7 347.6C225.1 347 225.1 345.6 225.7 344.4L226.8 342.1L226.9 331.5Z" fill="#003DB6"/>
<path d="M164.7 387C164.4 387.2 164.2 387 164.2 386.7V383C164.2 382.7 164.4 382.3 164.7 382.1L169.1 379.6C169.4 379.4 169.6 379.6 169.6 379.9V383.6C169.6 383.9 169.4 384.3 169.1 384.5L164.7 387ZM169.5 377.1L164.2 380.2C163 380.9 162.1 382.5 162.1 383.8V388.3C162.1 389.6 163 390.2 164.2 389.5L169.5 386.4C170.7 385.7 171.6 384.1 171.6 382.8V378.3C171.7 377 170.7 376.4 169.5 377.1Z" fill="#003DB6"/>
<path d="M161.1 382L155.2 385.4C154 386.1 153.1 387.7 153.1 389V393.5C153.1 394.8 154.1 395.4 155.2 394.7L161.1 391.3L160.5 389.4L155.7 392.2C155.4 392.4 155.2 392.2 155.2 391.9V388.2C155.2 387.9 155.4 387.5 155.7 387.3L160.5 384.5L161.1 382Z" fill="#003DB6"/>
<path d="M145.3 390.9L143.1 392.1V401.7L152 396.5V394.4L145.3 398.3V390.9Z" fill="#003DB6"/>
<path d="M141.4 393.1L139.3 394.3V403.9L141.5 402.6L141.4 393.1Z" fill="#003DB6"/>
<path d="M131.5 398.9C130.6 399.4 129.9 400.4 129.6 401.5L131.7 401.8C131.7 401.4 132 400.9 132.4 400.7L138 397.5V395.2L131.5 398.9Z" fill="#003DB6"/>
<path d="M129.4 403V406.7L132.1 403.3L129.4 403Z" fill="#003DB6"/>
<path d="M131.7 405.2L129.6 408C129.9 408.7 130.6 408.9 131.5 408.4L138 404.6V402.2L132.4 405.4C132 405.7 131.7 405.6 131.7 405.2Z" fill="#003DB6"/>
<path d="M114.5 404.6L114.6 422.3L126.2 406.7L114.5 404.6Z" fill="#003DB6"/>
</svg>
