<svg width="115" height="115" viewBox="0 0 115 115" fill="none" xmlns="http://www.w3.org/2000/svg">
<rect x="12.0897" y="0.589744" width="4.71795" height="113.821" fill="white" stroke="#929292" stroke-width="1.17949"/>
<path d="M17.5451 0.147436H99.6669C102.191 0.147436 104.237 2.19372 104.237 4.71795V110.282C104.237 112.806 102.191 114.853 99.6669 114.853H17.5451V0.147436Z" fill="#003DB6" stroke="#F6F6F7" stroke-width="0.294872"/>
<g clip-path="url(#clip0_558_2932)">
<path d="M70.3302 32.8694C69.4941 32.1327 68.4491 32.2379 67.822 32.4485C68.24 31.9221 69.2852 31.5011 69.4941 31.3959C69.7031 31.5011 70.3302 32.1327 70.3302 32.8694ZM72.8385 30.0275C72.3159 27.2909 65.9408 29.0802 62.7011 27.9224C62.5965 28.7644 63.7461 30.0275 64.6867 30.4485C62.91 31.9221 61.4469 34.9746 61.1334 38.6586C60.8199 34.9746 59.2523 31.9221 57.5801 30.4485C58.6252 29.9223 59.6703 28.6592 59.5658 27.9224C56.326 29.0802 49.951 27.2909 49.4284 30.0275C49.3239 30.6591 49.6374 31.5011 49.951 31.7116C50.0554 31.5011 50.2645 30.8696 51.2051 30.7643C55.6989 30.0275 59.4613 37.0797 56.117 39.9217V40.0269H66.3589C66.4634 40.0269 66.4634 39.9217 66.3589 39.9217C62.9101 37.0797 66.7769 30.1328 71.2708 30.7643C72.2114 30.8696 72.4204 31.5011 72.5249 31.7116C72.6294 31.5011 72.9429 30.6591 72.8385 30.0275ZM73.8835 23.7121C73.779 23.5016 76.4963 23.3963 76.4963 25.0805C76.4963 26.2383 74.9286 26.7646 74.9286 27.9224C74.9286 28.4487 75.5557 28.8697 75.6602 28.8697C75.2422 26.9751 76.9143 28.0276 77.4368 28.3434C76.4963 25.8173 78.5864 25.8173 78.3774 24.7647C78.2729 23.9226 76.4963 24.2384 75.8692 23.8174C74.6151 22.9753 73.2565 20.1334 72.4204 22.9753C74.0925 24.5541 73.152 26.7646 71.0618 26.7646V27.0803C73.4655 26.9751 74.4061 25.1857 73.8835 23.7121ZM44.7255 28.2382C45.1435 27.9224 46.9202 26.8698 46.5021 28.7644C46.7112 28.7644 47.2337 28.3434 47.2337 27.8171C47.2337 26.6593 45.666 26.133 45.666 24.9752C45.666 23.2911 48.2788 23.2911 48.2788 23.6068C47.8608 25.0805 48.6968 26.9751 51.2051 27.0803V26.7646C49.1149 26.7646 48.1743 24.4489 49.8464 22.9753C48.8014 20.1334 47.4427 22.9753 46.2931 23.7121C45.666 24.1332 43.8894 23.8174 43.7849 24.6594C43.5759 25.8173 45.5616 25.8173 44.7255 28.2382ZM51.8321 32.8694C52.6682 32.1327 53.7133 32.2379 54.3403 32.4485C53.9223 31.9221 52.8772 31.5011 52.6682 31.3959C52.4591 31.5011 51.8321 32.1327 51.8321 32.8694ZM62.283 17.3967L61.0289 15.9231L59.7748 17.3967L61.0289 18.9755L62.283 17.3967ZM69.1806 21.9227L68.3446 20.8702L67.5085 21.9227L68.3446 22.9753L69.1806 21.9227ZM76.2872 52.5525L75.1376 51.3947L73.988 52.5525L75.1376 53.6051L76.2872 52.5525ZM54.5493 21.9227L53.7132 20.8702L52.8772 21.9227L53.7132 22.9753L54.5493 21.9227ZM52.0411 27.0803H55.2809C57.9982 27.0803 59.2523 25.3962 59.5658 23.9226H62.3875C62.8056 25.3962 63.9552 27.0803 66.6724 27.0803H69.9122C69.9122 27.0803 70.4347 26.3435 70.6437 25.9225C71.1663 24.5541 70.5392 23.9226 69.5987 23.9226L68.3446 25.0805L67.0904 23.9226C66.1498 23.9226 65.5228 24.5541 66.0454 25.9225C66.1498 26.133 66.2544 26.3435 66.4634 26.5541C65.2093 26.4488 63.7461 25.712 63.4326 24.0279C63.4326 24.0279 64.2687 22.6595 64.4777 22.1332C65.2093 20.1334 64.2687 19.3966 62.8056 19.3966L61.0289 21.5017L59.1478 19.2913C57.6846 19.2913 56.744 20.1334 57.4756 22.028C57.6846 22.5543 58.5207 23.9226 58.5207 23.9226C58.2072 25.6067 56.744 26.4488 55.5944 26.5541C55.6989 26.3435 55.908 26.0278 56.0125 25.9225C56.535 24.5541 55.908 23.9226 54.9674 23.9226L53.7132 25.0805L52.4591 23.9226C51.5186 23.9226 50.8915 24.5541 51.4141 25.9225C51.5186 26.3435 52.0411 27.0803 52.0411 27.0803ZM85.5886 37.185C84.9615 37.5008 81.3037 39.1849 76.6008 38.5533C76.6008 38.3428 76.7053 38.1323 76.7053 37.9218C79.8405 37.5008 82.3488 36.9745 84.0209 36.1324C85.9021 35.0799 86.6336 32.6589 85.6931 30.7643C85.6931 30.7643 85.5886 30.6591 85.5886 30.7643C85.066 31.3959 81.8262 34.8694 76.8098 35.9219C76.8098 35.6062 76.8098 35.3956 76.7053 35.1851C79.2135 33.8168 81.5127 32.1327 82.6623 30.6591C84.439 28.4487 84.2299 25.6067 82.5578 24.1332H82.4533C81.9307 24.9752 77.0188 32.8694 71.6888 36.2377C71.5843 36.2377 71.5843 36.3429 71.4798 36.3429C71.3753 36.4482 71.2708 36.6587 71.4798 36.764C72.1068 37.2903 72.5249 38.1323 72.5249 38.9744C72.5249 40.448 71.3753 41.7111 69.8077 42.0268C69.0761 42.1321 67.9265 42.1321 66.8814 41.8163C66.8814 41.8163 66.7769 41.8163 66.7769 41.9215V46.6581C66.7769 46.7634 66.8814 46.7634 66.8814 46.6581C67.5085 44.8688 69.4941 44.553 70.3302 44.553C70.6437 46.4476 71.1663 47.9212 71.8979 48.7633C73.0474 50.1316 74.9286 50.1316 75.7647 49.1843V49.0791C75.2422 48.7633 72.5249 47.0792 72.0024 44.3425C72.2114 44.2372 72.4204 44.132 72.6294 44.132C73.57 45.6056 74.8241 46.9739 75.8692 47.3949C77.6459 48.237 79.2135 47.8159 79.9451 46.5529C79.9451 46.5529 79.9451 46.4476 79.8405 46.4476C78.7955 46.3424 75.4512 45.395 73.988 43.0794C74.197 42.9741 74.3016 42.7636 74.5106 42.6584C75.9737 43.8162 78.0639 44.7635 79.6315 44.974C81.4082 45.1845 83.3938 44.6583 83.4984 42.5531C83.4984 42.5531 83.4984 42.4479 83.3938 42.4479C82.7668 42.4479 78.5864 42.6583 75.6602 40.9742C75.7647 40.7638 75.8692 40.5532 75.9737 40.3427C75.9737 40.3427 80.4676 41.3953 82.5578 41.0795C84.648 40.7638 85.9021 39.1849 85.6931 37.185H85.5886ZM46.0841 40.448C46.1886 40.6585 46.2931 40.869 46.3977 41.0795C43.4714 42.7636 39.291 42.5531 38.664 42.5531C38.664 42.5531 38.5594 42.5531 38.5594 42.6584C38.5594 44.7635 40.6496 45.2898 42.4263 45.0793C43.8894 44.8688 46.0841 43.8162 47.5472 42.7636C47.6517 42.9741 47.8608 43.0794 48.0698 43.1847C46.5021 45.395 43.1579 46.3424 42.1127 46.4476C42.0083 46.4476 42.0083 46.5529 42.0083 46.5529C42.7398 47.8159 44.3075 48.237 46.0841 47.3949C47.1292 46.8686 48.4878 45.6056 49.3239 44.132C49.5329 44.2372 49.7419 44.3425 49.951 44.3425C49.4284 47.1844 46.6066 48.8685 46.1886 49.0791V49.1843C47.0247 50.1316 48.9058 50.1316 50.0554 48.7633C50.787 47.9212 51.3095 46.4476 51.6231 44.553C52.4591 44.553 54.4448 44.974 55.0719 46.6581C55.0719 46.7634 55.1764 46.7634 55.1764 46.6581V41.9215C55.1764 41.9215 55.1764 41.8163 55.0719 41.8163C54.0268 42.1321 52.8772 42.2373 52.1456 42.0268C50.578 41.7111 49.4284 40.5532 49.4284 38.9744C49.4284 38.1323 49.8464 37.2903 50.4735 36.764C50.578 36.6587 50.578 36.4482 50.4735 36.3429C50.369 36.3429 50.369 36.2377 50.2645 36.2377C44.9345 32.9747 40.0226 25.0805 39.5 24.2384H39.3955C37.7234 25.6067 37.6189 28.4487 39.291 30.6591C40.4406 32.1327 42.8443 33.8168 45.3525 35.1851C45.3525 35.3956 45.248 35.7114 45.248 35.9219C40.2316 34.8694 36.9918 31.2906 36.4693 30.7643H36.3648C35.4242 32.5537 36.2602 35.0799 38.0369 36.1324C39.709 37.0797 42.2173 37.606 45.3525 37.9218C45.3525 38.1323 45.4571 38.3428 45.4571 38.5533C40.7541 39.1849 37.0963 37.5008 36.4693 37.185C36.4693 37.185 36.3648 37.185 36.3648 37.2903C36.1557 39.2901 37.4098 40.869 39.5 41.1847C41.5902 41.5006 46.0841 40.448 46.0841 40.448ZM75.1376 55.1839L73.57 53.8156C72.9429 54.2366 72.4204 54.8682 72.2114 55.4997C71.2708 55.605 68.5535 55.0787 68.8671 54.6577C71.7933 50.5527 69.5987 48.0265 66.8814 48.237V50.9736C66.8814 51.8157 66.1498 52.5525 65.1048 52.5525H63.2236C61.865 52.5525 61.0289 53.9209 61.0289 53.9209C61.0289 53.9209 60.1928 52.5525 58.8342 52.5525H56.953C56.0125 52.5525 55.1764 51.8157 55.1764 50.9736V48.237C52.4591 48.1318 50.2645 50.5527 53.1907 54.6577C53.3997 55.0787 50.6825 55.7102 49.4284 55.4997C49.1149 55.1839 48.5923 54.9734 48.0698 54.9734C47.8608 54.9734 47.5472 54.9734 47.3382 55.0787C47.3382 55.0787 42.3218 50.2368 42.2173 50.2368V50.1316C42.5308 49.6053 42.1127 48.9738 41.7992 49.0791C42.1127 48.658 42.1127 46.9739 40.3361 46.5529C40.4406 46.8686 40.4406 47.6054 40.4406 47.6054C40.4406 47.6054 39.082 46.8686 38.3504 47.5002C37.7234 48.237 38.5594 49.6053 38.5594 49.6053C38.5594 49.6053 37.8279 49.6053 37.5144 49.6053C38.0369 51.2894 39.8136 51.1842 40.1271 50.8684C40.1271 51.1842 40.7541 51.5 41.2767 51.1842L41.4857 51.0789C41.4857 51.1842 46.5021 55.8155 46.5021 55.8155C46.2931 56.1312 46.1886 56.5523 46.2931 56.9733C46.3977 57.7101 47.0247 58.2364 47.7562 58.3416C48.2788 58.4469 48.8014 58.3416 49.1149 58.1312L50.369 59.3942C50.4735 59.4995 50.6825 59.6047 50.787 59.6047C51.1005 59.6047 51.3095 59.2889 51.3095 59.0785C51.3095 58.9732 51.2051 58.868 51.1005 58.7627L49.7419 57.4996C50.787 56.7628 52.8772 56.2365 54.5493 56.2365C54.8628 56.2365 54.9674 56.026 54.8628 55.7102C54.1313 53.9209 55.6989 52.5525 57.3711 53.6051C58.1026 54.0261 58.8342 54.9734 59.4613 56.5523C56.744 57.1838 53.1907 59.0785 52.5637 61.0783C52.2501 61.8151 53.1907 62.8677 54.2358 63.1835C54.2358 63.1835 54.3403 63.1835 54.3403 63.0782C54.8628 60.0258 58.1026 57.8154 59.7748 57.3944C59.8793 57.6048 59.8793 57.4996 59.8793 57.8153C57.9982 58.6574 56.326 60.5521 55.8034 62.6572C55.5944 63.6045 56.6395 64.5518 57.5801 64.7623C57.5801 64.7623 57.6846 64.7624 57.6846 64.6571C57.8936 61.9204 59.0432 59.6047 60.1928 58.5521C60.1928 58.7627 60.1928 58.9732 60.2973 59.1837C60.2973 59.1837 59.1478 62.2362 59.1478 64.5518C59.1478 65.6044 60.7154 66.3412 60.9244 66.4465C61.2379 66.3412 62.8056 65.6044 62.8056 64.5518C62.8056 62.2362 61.6559 59.1837 61.6559 59.1837C61.6559 58.9732 61.656 58.7627 61.7605 58.5521C62.8056 59.6047 64.0597 61.9204 64.2687 64.6571C64.2687 64.6571 64.2687 64.7623 64.3732 64.7623C65.3138 64.5518 66.3589 63.6045 66.1498 62.6572C65.6273 60.4468 63.8506 58.6574 62.074 57.8153C62.1785 57.6048 62.1785 57.7101 62.1785 57.3944C63.8506 57.8154 67.0904 60.0258 67.613 63.0782C67.613 63.0782 67.613 63.1835 67.7175 63.1835C68.7626 62.973 69.7031 61.9204 69.3896 61.0783C68.6581 59.0785 65.2093 57.1838 62.492 56.5523C63.0146 54.9734 63.8506 54.1314 64.5822 53.6051C66.2544 52.5525 67.9265 53.8156 67.0904 55.7102C66.9859 55.9207 67.0904 56.2365 67.404 56.2365C69.2852 56.2365 71.5843 56.9733 72.5249 57.8153C73.152 58.6574 74.197 59.2889 75.4512 59.1837C76.8098 59.0785 77.9594 58.0259 78.1684 56.6575C78.2729 55.4997 77.7503 54.4471 76.8098 53.9209L75.1376 55.1839ZM63.1191 46.8686C63.7461 46.6581 64.5822 46.8686 64.5822 47.7107C64.5822 47.9212 64.7912 47.9212 64.8957 47.7107C65.1048 46.4476 64.2687 46.1318 63.3281 46.2371C63.2236 45.8161 63.1191 45.395 63.0146 45.0793C62.91 44.7635 62.9101 44.2372 63.2236 44.2372C63.4326 44.2372 63.3281 44.7635 63.3281 44.974C63.3281 45.1845 63.4326 45.2898 63.5371 45.2898C63.6417 45.2898 63.7461 45.1845 63.8506 45.0793C64.3732 44.553 64.4777 43.6056 63.8506 43.1847C63.3281 42.8689 62.074 43.0794 61.7605 43.6056C61.7605 43.3952 61.4469 43.0794 61.3424 42.9741C61.2379 42.8689 61.2379 42.7636 61.3424 42.6584C61.4469 42.5531 61.6559 42.3426 61.6559 42.1321C61.6559 42.0268 61.5515 41.7111 61.2379 41.7111C60.9244 41.7111 60.7154 41.9215 60.7154 42.3426C60.7154 42.4479 60.7154 42.5531 60.8199 42.6584C60.6109 42.6584 60.1928 42.6584 59.9838 42.6584L63.2236 51.7105C64.1642 51.2894 64.8957 50.5527 64.8957 49.7106C64.8957 49.079 63.9552 49.2895 63.4326 49.8159C63.3281 48.9738 63.1191 48.1318 63.0146 47.3949C62.91 46.9739 63.0146 46.8686 63.1191 46.8686ZM58.5207 40.7638L59.2523 42.6584C58.6252 42.7636 57.6846 43.1847 57.6846 43.8162C57.6846 44.553 59.0432 45.0793 59.7748 44.974C59.7748 45.1845 59.7748 45.2898 59.8793 45.395C59.5658 45.395 59.0432 45.5003 58.9387 45.7108C58.5207 45.2898 57.8936 45.1845 57.5801 45.395C57.2666 45.6056 57.2666 46.0266 57.5801 46.4476C57.7891 46.7634 57.8936 47.0792 57.6846 47.3949C58.6252 47.3949 58.3117 46.1318 58.6252 46.1318C58.6252 46.3424 58.6252 46.6581 58.7297 46.9739C58.8342 47.1844 58.8342 47.2897 58.7297 47.5002C58.4162 48.0265 57.9982 49.0791 57.9982 50.1316C57.6846 50.1316 57.5801 50.0263 57.6846 49.6053C57.6846 49.5001 57.5801 49.2895 57.4756 49.5C57.3711 49.7106 57.2666 50.0263 57.2666 50.2368C57.2666 51.0789 58.3117 51.2894 58.7297 51.0789C59.8793 52.2368 62.1785 51.921 63.0146 51.5L58.9387 40.3427C58.7297 40.448 58.4162 40.5532 58.5207 40.7638ZM58.4162 49.9211C58.3117 49.5 58.9387 48.658 59.7748 47.8159C59.5658 48.3422 59.6703 49.1843 60.0883 49.5C59.4613 49.5 58.7297 49.6053 58.4162 49.9211Z" fill="white"/>
</g>
<defs>
<clipPath id="clip0_558_2932">
<rect width="50.1282" height="51.0128" fill="white" transform="translate(35.9741 15.9231)"/>
</clipPath>
</defs>
</svg>
