<svg width="240" height="296" viewBox="0 0 240 296" fill="none" xmlns="http://www.w3.org/2000/svg">
<rect x="1.61756" y="1.51795" width="12.1436" height="292.964" fill="white" stroke="#929292" stroke-width="3.0359"/>
<path d="M15.6588 0.379487H227.033C233.53 0.379487 238.797 5.64646 238.797 12.1436V283.856C238.797 290.354 233.53 295.621 227.033 295.621H15.6588V0.379487Z" fill="#B4CDED" stroke="#F6F6F7" stroke-width="0.758974"/>
<g clip-path="url(#clip0_74_11334)">
<path d="M151.523 84.6033C149.371 82.7069 146.681 82.9779 145.067 83.5197C146.143 82.165 148.833 81.0814 149.371 80.8104C149.909 81.0814 151.523 82.7069 151.523 84.6033ZM157.979 77.2884C156.634 70.2445 140.225 74.8501 131.887 71.8699C131.618 74.0374 134.577 77.2884 136.997 78.3721C132.424 82.165 128.659 90.0218 127.852 99.5041C127.045 90.0218 123.01 82.165 118.706 78.3721C121.396 77.0175 124.086 73.7665 123.817 71.8699C115.478 74.8501 99.0689 70.2445 97.7238 77.2884C97.4549 78.914 98.2618 81.0814 99.0689 81.6231C99.3379 81.0814 99.8759 79.4558 102.297 79.1848C113.864 77.2884 123.548 95.4402 114.94 102.755V103.026H141.301C141.571 103.026 141.571 102.755 141.301 102.755C132.425 95.4402 142.377 77.5594 153.944 79.1848C156.365 79.4558 156.903 81.0814 157.172 81.6231C157.441 81.0814 158.248 78.914 157.979 77.2884ZM160.669 61.0331C160.4 60.4913 167.394 60.2203 167.394 64.5552C167.394 67.5352 163.359 68.8899 163.359 71.8699C163.359 73.2247 164.973 74.3082 165.242 74.3082C164.166 69.4318 168.47 72.1409 169.815 72.9537C167.394 66.4516 172.774 66.4516 172.236 63.7423C171.967 61.575 167.394 62.3877 165.78 61.304C162.552 59.1367 159.055 51.8218 156.903 59.1367C161.207 63.2004 158.786 68.8899 153.406 68.8899V69.7026C159.593 69.4318 162.014 64.826 160.669 61.0331ZM85.6189 72.6828C86.695 71.8699 91.268 69.1608 90.192 74.0374C90.73 74.0374 92.0749 72.9537 92.0749 71.5991C92.0749 68.6189 88.0399 67.2643 88.0399 64.2842C88.0399 59.9494 94.7648 59.9494 94.7648 60.7621C93.689 64.5552 95.8409 69.4318 102.297 69.7026V68.8899C96.9169 68.8899 94.4959 62.9296 98.7999 59.1367C96.1099 51.8218 92.6129 59.1367 89.6539 61.0331C88.0399 62.1169 83.467 61.304 83.198 63.4714C82.6601 66.4516 87.771 66.4516 85.6189 72.6828ZM103.911 84.6033C106.063 82.7069 108.753 82.9779 110.367 83.5197C109.291 82.165 106.601 81.0814 106.063 80.8104C105.525 81.0814 103.911 82.7069 103.911 84.6033ZM130.811 44.7778L127.583 40.9849L124.355 44.7778L127.583 48.8416L130.811 44.7778ZM148.564 56.4274L146.412 53.7182L144.26 56.4274L146.412 59.1367L148.564 56.4274ZM166.856 135.266L163.897 132.286L160.938 135.266L163.897 137.975L166.856 135.266ZM110.905 56.4274L108.753 53.7182L106.601 56.4274L108.753 59.1367L110.905 56.4274ZM104.449 69.7026H112.788C119.782 69.7026 123.01 65.3679 123.817 61.575H131.08C132.156 65.3679 135.115 69.7026 142.108 69.7026H150.447C150.447 69.7026 151.792 67.8062 152.33 66.7225C153.675 63.2004 152.061 61.575 149.64 61.575L146.412 64.5552L143.184 61.575C140.763 61.575 139.15 63.2004 140.494 66.7225C140.763 67.2643 141.033 67.8062 141.571 68.348C138.342 68.077 134.577 66.1806 133.77 61.8459C133.77 61.8459 135.921 58.3238 136.459 56.9693C138.342 51.8218 135.921 49.9253 132.156 49.9253L127.583 55.3437L122.741 49.6544C118.975 49.6544 116.554 51.8218 118.437 56.6984C118.975 58.053 121.127 61.575 121.127 61.575C120.32 65.9097 116.554 68.077 113.595 68.348C113.864 67.8062 114.402 66.9935 114.671 66.7225C116.016 63.2004 114.402 61.575 111.981 61.575L108.753 64.5552L105.525 61.575C103.104 61.575 101.49 63.2004 102.835 66.7225C103.104 67.8062 104.449 69.7026 104.449 69.7026ZM190.797 95.7111C189.183 96.524 179.768 100.859 167.663 99.2331C167.663 98.6913 167.932 98.1494 167.932 97.6077C176.002 96.524 182.458 95.1694 186.762 93.0019C191.604 90.2928 193.487 84.0614 191.066 79.1848C191.066 79.1848 190.797 78.914 190.797 79.1848C189.452 80.8104 181.113 89.7509 168.201 92.4601C168.201 91.6474 168.201 91.1055 167.932 90.5636C174.388 87.0416 180.306 82.7069 183.265 78.914C187.838 73.2247 187.3 65.9097 182.996 62.1169H182.727C181.382 64.2842 168.739 84.6033 155.02 93.2728C154.751 93.2728 154.751 93.5438 154.482 93.5438C154.213 93.8147 153.944 94.3565 154.482 94.6275C156.096 95.9821 157.172 98.1494 157.172 100.317C157.172 104.11 154.213 107.361 150.178 108.174C148.295 108.444 145.336 108.444 142.646 107.632C142.646 107.632 142.377 107.632 142.377 107.903V120.094C142.377 120.365 142.646 120.365 142.646 120.094C144.26 115.489 149.371 114.676 151.523 114.676C152.33 119.552 153.675 123.345 155.558 125.513C158.517 129.035 163.359 129.035 165.511 126.596V126.325C164.166 125.513 157.172 121.178 155.827 114.134C156.365 113.863 156.903 113.592 157.441 113.592C159.862 117.385 163.09 120.907 165.78 121.991C170.353 124.158 174.388 123.074 176.271 119.823C176.271 119.823 176.271 119.552 176.002 119.552C173.312 119.281 164.704 116.843 160.938 110.883C161.476 110.612 161.745 110.07 162.283 109.799C166.049 112.779 171.429 115.218 175.464 115.759C180.037 116.301 185.148 114.947 185.417 109.528C185.417 109.528 185.417 109.257 185.148 109.257C183.534 109.257 172.774 109.799 165.242 105.464C165.511 104.923 165.78 104.381 166.049 103.839C166.049 103.839 177.616 106.548 182.996 105.735C188.376 104.923 191.604 100.859 191.066 95.7111H190.797ZM89.1159 104.11C89.385 104.652 89.6539 105.193 89.923 105.735C82.391 110.07 71.6311 109.528 70.0171 109.528C70.0171 109.528 69.7482 109.528 69.7482 109.799C69.7482 115.218 75.1281 116.572 79.7011 116.03C83.467 115.489 89.1159 112.779 92.8819 110.07C93.1509 110.612 93.689 110.883 94.227 111.154C90.192 116.843 81.5841 119.281 78.894 119.552C78.6251 119.552 78.6251 119.823 78.6251 119.823C80.508 123.074 84.5431 124.158 89.1159 121.991C91.806 120.636 95.3029 117.385 97.4549 113.592C97.9929 113.863 98.5309 114.134 99.0689 114.134C97.7238 121.449 90.4609 125.784 89.385 126.325V126.596C91.5369 129.035 96.3789 129.035 99.3379 125.513C101.221 123.345 102.566 119.552 103.373 114.676C105.525 114.676 110.636 115.759 112.25 120.094C112.25 120.365 112.519 120.365 112.519 120.094V107.903C112.519 107.903 112.519 107.632 112.25 107.632C109.56 108.444 106.601 108.715 104.718 108.174C100.683 107.361 97.7238 104.381 97.7238 100.317C97.7238 98.1494 98.7999 95.9821 100.414 94.6275C100.683 94.3565 100.683 93.8147 100.414 93.5438C100.145 93.5438 100.145 93.2728 99.8759 93.2728C86.1569 84.8743 73.5141 64.5552 72.1691 62.3877H71.9001C67.5962 65.9097 67.3272 73.2247 71.6311 78.914C74.5901 82.7069 80.777 87.0416 87.233 90.5636C87.233 91.1055 86.964 91.9182 86.964 92.4601C74.0521 89.7509 65.7132 80.5396 64.3682 79.1848H64.0992C61.6782 83.7906 63.8302 90.2928 68.4032 93.0019C72.7071 95.4402 79.1631 96.7948 87.233 97.6077C87.233 98.1494 87.502 98.6913 87.502 99.2331C75.3971 100.859 65.9822 96.524 64.3682 95.7111C64.3682 95.7111 64.0992 95.7111 64.0992 95.9821C63.5612 101.13 66.7892 105.193 72.1691 106.006C77.5491 106.819 89.1159 104.11 89.1159 104.11ZM163.897 142.039L159.862 138.517C158.248 139.601 156.903 141.226 156.365 142.852C153.944 143.123 146.95 141.768 147.757 140.684C155.289 130.118 149.64 123.616 142.646 124.158V131.202C142.646 133.369 140.763 135.266 138.074 135.266H133.232C129.735 135.266 127.583 138.788 127.583 138.788C127.583 138.788 125.431 135.266 121.934 135.266H117.092C114.671 135.266 112.519 133.369 112.519 131.202V124.158C105.525 123.887 99.8759 130.118 107.408 140.684C107.946 141.768 100.952 143.393 97.7238 142.852C96.9169 142.039 95.5719 141.497 94.227 141.497C93.689 141.497 92.8819 141.497 92.3439 141.768C92.3439 141.768 79.432 129.305 79.1631 129.305V129.035C79.97 127.68 78.894 126.054 78.0871 126.325C78.894 125.242 78.894 120.907 74.3211 119.823C74.5901 120.636 74.5901 122.532 74.5901 122.532C74.5901 122.532 71.0931 120.636 69.2102 122.262C67.5962 124.158 69.7482 127.68 69.7482 127.68C69.7482 127.68 67.8652 127.68 67.0582 127.68C68.4032 132.015 72.9761 131.744 73.7831 130.931C73.7831 131.744 75.3971 132.557 76.7421 131.744L77.2801 131.473C77.2801 131.744 90.192 143.664 90.192 143.664C89.6539 144.477 89.385 145.561 89.6539 146.645C89.923 148.541 91.5369 149.896 93.4199 150.166C94.7648 150.437 96.1099 150.166 96.9169 149.625L100.145 152.876C100.414 153.147 100.952 153.418 101.221 153.418C102.028 153.418 102.566 152.605 102.566 152.063C102.566 151.792 102.297 151.521 102.028 151.25L98.5309 147.999C101.221 146.103 106.601 144.748 110.905 144.748C111.712 144.748 111.981 144.206 111.712 143.393C109.829 138.788 113.864 135.266 118.168 137.975C120.051 139.059 121.934 141.497 123.548 145.561C116.554 147.186 107.408 152.063 105.794 157.211C104.987 159.107 107.408 161.816 110.098 162.629C110.098 162.629 110.367 162.629 110.367 162.358C111.712 154.501 120.051 148.812 124.355 147.728C124.624 148.27 124.624 147.999 124.624 148.812C119.782 150.979 115.478 155.856 114.133 161.274C113.595 163.713 116.285 166.151 118.706 166.693C118.706 166.693 118.975 166.693 118.975 166.422C119.513 159.378 122.472 153.418 125.431 150.708C125.431 151.25 125.431 151.792 125.7 152.334C125.7 152.334 122.741 160.191 122.741 166.151C122.741 168.86 126.776 170.757 127.314 171.028C128.121 170.757 132.156 168.86 132.156 166.151C132.156 160.191 129.197 152.334 129.197 152.334C129.197 151.792 129.197 151.25 129.466 150.708C132.156 153.418 135.383 159.378 135.921 166.422C135.921 166.422 135.921 166.693 136.191 166.693C138.612 166.151 141.301 163.713 140.763 161.274C139.418 155.585 134.845 150.979 130.273 148.812C130.542 148.27 130.542 148.541 130.542 147.728C134.845 148.812 143.184 154.501 144.529 162.358C144.529 162.358 144.529 162.629 144.798 162.629C147.488 162.087 149.909 159.378 149.102 157.211C147.219 152.063 138.342 147.186 131.349 145.561C132.694 141.497 134.845 139.33 136.729 137.975C141.033 135.266 145.336 138.517 143.184 143.393C142.915 143.935 143.184 144.748 143.991 144.748C148.833 144.748 154.751 146.645 157.172 148.812C158.786 150.979 161.476 152.605 164.704 152.334C168.201 152.063 171.16 149.354 171.698 145.832C171.967 142.852 170.622 140.142 168.201 138.788L163.897 142.039ZM132.962 120.636C134.577 120.094 136.729 120.636 136.729 122.803C136.729 123.345 137.266 123.345 137.535 122.803C138.074 119.552 135.921 118.74 133.5 119.011C133.232 117.927 132.962 116.843 132.694 116.03C132.424 115.218 132.425 113.863 133.232 113.863C133.77 113.863 133.5 115.218 133.5 115.759C133.5 116.301 133.77 116.572 134.038 116.572C134.308 116.572 134.577 116.301 134.845 116.03C136.191 114.676 136.459 112.237 134.845 111.154C133.5 110.341 130.273 110.883 129.466 112.237C129.466 111.696 128.659 110.883 128.39 110.612C128.121 110.341 128.121 110.07 128.39 109.799C128.659 109.528 129.197 108.986 129.197 108.444C129.197 108.174 128.928 107.361 128.121 107.361C127.314 107.361 126.776 107.903 126.776 108.986C126.776 109.257 126.776 109.528 127.045 109.799C126.507 109.799 125.431 109.799 124.893 109.799L133.232 133.098C135.653 132.015 137.535 130.118 137.535 127.951C137.535 126.325 135.115 126.867 133.77 128.222C133.5 126.054 132.962 123.887 132.694 121.991C132.424 120.907 132.694 120.636 132.962 120.636ZM121.127 104.923L123.01 109.799C121.396 110.07 118.975 111.154 118.975 112.779C118.975 114.676 122.472 116.03 124.355 115.759C124.355 116.301 124.355 116.572 124.624 116.843C123.817 116.843 122.472 117.114 122.203 117.656C121.127 116.572 119.513 116.301 118.706 116.843C117.899 117.385 117.899 118.469 118.706 119.552C119.244 120.365 119.513 121.178 118.975 121.991C121.396 121.991 120.589 118.74 121.396 118.74C121.396 119.281 121.396 120.094 121.665 120.907C121.934 121.449 121.934 121.72 121.665 122.262C120.858 123.616 119.782 126.325 119.782 129.035C118.975 129.035 118.706 128.764 118.975 127.68C118.975 127.409 118.706 126.867 118.437 127.409C118.168 127.951 117.899 128.764 117.899 129.305C117.899 131.473 120.589 132.015 121.665 131.473C124.624 134.453 130.542 133.64 132.694 132.557L122.203 103.839C121.665 104.11 120.858 104.381 121.127 104.923ZM120.858 128.493C120.589 127.409 122.203 125.242 124.355 123.074C123.817 124.429 124.086 126.596 125.162 127.409C123.548 127.409 121.665 127.68 120.858 128.493Z" fill="white"/>
</g>
<defs>
<clipPath id="clip0_74_11334">
<rect width="129.026" height="131.303" fill="white" transform="translate(63.0938 40.9849)"/>
</clipPath>
</defs>
</svg>
