<svg width="297" height="296" viewBox="0 0 297 296" fill="none" xmlns="http://www.w3.org/2000/svg">
<rect x="31.6175" y="1.51795" width="12.1436" height="292.964" fill="white" stroke="#929292" stroke-width="3.0359"/>
<path d="M45.6585 0.379487H257.033C263.53 0.379487 268.797 5.64646 268.797 12.1436V283.856C268.797 290.354 263.53 295.621 257.033 295.621H45.6585V0.379487Z" fill="#B4CDED" stroke="#F6F6F7" stroke-width="0.758974"/>
<g clip-path="url(#clip0_568_9151)">
<path d="M181.524 84.6031C179.372 82.7066 176.682 82.9776 175.068 83.5195C176.144 82.1648 178.834 81.0812 179.372 80.8102C179.91 81.0812 181.524 82.7066 181.524 84.6031ZM187.98 77.2882C186.635 70.2442 170.226 74.8499 161.887 71.8697C161.618 74.0371 164.577 77.2882 166.998 78.3719C162.425 82.1648 158.659 90.0215 157.852 99.5039C157.045 90.0215 153.01 82.1648 148.706 78.3719C151.396 77.0173 154.086 73.7663 153.817 71.8697C145.478 74.8499 129.069 70.2442 127.724 77.2882C127.455 78.9137 128.262 81.0812 129.069 81.6229C129.338 81.0812 129.876 79.4556 132.297 79.1846C143.864 77.2882 153.548 95.44 144.94 102.755V103.026H171.302C171.571 103.026 171.571 102.755 171.302 102.755C162.425 95.44 172.378 77.5592 183.945 79.1846C186.366 79.4556 186.904 81.0812 187.173 81.6229C187.442 81.0812 188.249 78.9137 187.98 77.2882ZM190.67 61.0329C190.401 60.491 197.395 60.22 197.395 64.5549C197.395 67.5349 193.36 68.8897 193.36 71.8697C193.36 73.2244 194.974 74.308 195.243 74.308C194.167 69.4315 198.471 72.1407 199.816 72.9534C197.395 66.4514 202.775 66.4514 202.237 63.7421C201.968 61.5748 197.395 62.3875 195.781 61.3038C192.553 59.1365 189.056 51.8215 186.904 59.1365C191.208 63.2002 188.787 68.8897 183.407 68.8897V69.7024C189.594 69.4315 192.015 64.8258 190.67 61.0329ZM115.619 72.6825C116.695 71.8697 121.268 69.1605 120.192 74.0371C120.73 74.0371 122.075 72.9534 122.075 71.5988C122.075 68.6187 118.04 67.2641 118.04 64.2839C118.04 59.9492 124.765 59.9492 124.765 60.7619C123.689 64.5549 125.841 69.4315 132.297 69.7024V68.8897C126.917 68.8897 124.496 62.9293 128.8 59.1365C126.11 51.8215 122.613 59.1365 119.654 61.0329C118.04 62.1166 113.467 61.3038 113.198 63.4712C112.66 66.4514 117.771 66.4514 115.619 72.6825ZM133.911 84.6031C136.063 82.7066 138.753 82.9776 140.367 83.5195C139.291 82.1648 136.601 81.0812 136.063 80.8102C135.525 81.0812 133.911 82.7066 133.911 84.6031ZM160.811 44.7775L157.583 40.9846L154.355 44.7775L157.583 48.8414L160.811 44.7775ZM178.565 56.4272L176.413 53.718L174.261 56.4272L176.413 59.1365L178.565 56.4272ZM196.857 135.266L193.898 132.285L190.939 135.266L193.898 137.975L196.857 135.266ZM140.905 56.4272L138.753 53.718L136.601 56.4272L138.753 59.1365L140.905 56.4272ZM134.449 69.7024H142.788C149.782 69.7024 153.01 65.3676 153.817 61.5748H161.08C162.156 65.3676 165.115 69.7024 172.109 69.7024H180.448C180.448 69.7024 181.793 67.8059 182.331 66.7222C183.676 63.2002 182.062 61.5748 179.641 61.5748L176.413 64.5549L173.185 61.5748C170.764 61.5748 169.15 63.2002 170.495 66.7222C170.764 67.2641 171.033 67.8059 171.571 68.3478C168.343 68.0768 164.577 66.1804 163.77 61.8456C163.77 61.8456 165.922 58.3236 166.46 56.969C168.343 51.8215 165.922 49.9251 162.156 49.9251L157.583 55.3434L152.741 49.6541C148.975 49.6541 146.554 51.8215 148.437 56.6982C148.975 58.0527 151.127 61.5748 151.127 61.5748C150.32 65.9095 146.554 68.0768 143.595 68.3478C143.864 67.8059 144.402 66.9932 144.671 66.7222C146.016 63.2002 144.402 61.5748 141.981 61.5748L138.753 64.5549L135.525 61.5748C133.104 61.5748 131.49 63.2002 132.835 66.7222C133.104 67.8059 134.449 69.7024 134.449 69.7024ZM220.797 95.7109C219.183 96.5237 209.769 100.858 197.664 99.2329C197.664 98.691 197.933 98.1492 197.933 97.6074C206.002 96.5237 212.458 95.1691 216.762 93.0017C221.604 90.2925 223.487 84.0612 221.066 79.1846C221.066 79.1846 220.797 78.9137 220.797 79.1846C219.452 80.8102 211.114 89.7507 198.202 92.4598C198.202 91.6471 198.202 91.1052 197.933 90.5634C204.389 87.0414 210.306 82.7066 213.265 78.9137C217.838 73.2244 217.3 65.9095 212.996 62.1166H212.727C211.382 64.2839 198.74 84.6031 185.021 93.2725C184.752 93.2725 184.752 93.5435 184.483 93.5435C184.214 93.8144 183.945 94.3563 184.483 94.6273C186.097 95.9818 187.173 98.1492 187.173 100.317C187.173 104.109 184.214 107.361 180.179 108.173C178.296 108.444 175.337 108.444 172.647 107.632C172.647 107.632 172.378 107.632 172.378 107.902V120.094C172.378 120.365 172.647 120.365 172.647 120.094C174.261 115.488 179.372 114.675 181.524 114.675C182.331 119.552 183.676 123.345 185.559 125.512C188.518 129.034 193.36 129.034 195.512 126.596V126.325C194.167 125.512 187.173 121.178 185.828 114.134C186.366 113.863 186.904 113.592 187.442 113.592C189.863 117.385 193.091 120.907 195.781 121.99C200.354 124.158 204.389 123.074 206.272 119.823C206.272 119.823 206.272 119.552 206.002 119.552C203.313 119.281 194.705 116.843 190.939 110.883C191.477 110.612 191.746 110.07 192.284 109.799C196.05 112.779 201.43 115.217 205.464 115.759C210.037 116.301 215.148 114.946 215.417 109.528C215.417 109.528 215.417 109.257 215.148 109.257C213.534 109.257 202.775 109.799 195.243 105.464C195.512 104.922 195.781 104.38 196.05 103.839C196.05 103.839 207.617 106.548 212.996 105.735C218.376 104.922 221.604 100.858 221.066 95.7109H220.797ZM119.116 104.109C119.385 104.651 119.654 105.193 119.923 105.735C112.391 110.07 101.632 109.528 100.018 109.528C100.018 109.528 99.7486 109.528 99.7486 109.799C99.7486 115.217 105.128 116.572 109.701 116.03C113.467 115.488 119.116 112.779 122.882 110.07C123.151 110.612 123.689 110.883 124.227 111.154C120.192 116.843 111.584 119.281 108.894 119.552C108.625 119.552 108.625 119.823 108.625 119.823C110.508 123.074 114.543 124.158 119.116 121.99C121.806 120.636 125.303 117.385 127.455 113.592C127.993 113.863 128.531 114.134 129.069 114.134C127.724 121.449 120.461 125.783 119.385 126.325V126.596C121.537 129.034 126.379 129.034 129.338 125.512C131.221 123.345 132.566 119.552 133.373 114.675C135.525 114.675 140.636 115.759 142.25 120.094C142.25 120.365 142.519 120.365 142.519 120.094V107.902C142.519 107.902 142.519 107.632 142.25 107.632C139.56 108.444 136.601 108.715 134.718 108.173C130.683 107.361 127.724 104.38 127.724 100.317C127.724 98.1492 128.8 95.9818 130.414 94.6273C130.683 94.3563 130.683 93.8144 130.414 93.5435C130.145 93.5435 130.145 93.2725 129.876 93.2725C116.157 84.8741 103.515 64.5549 102.17 62.3875H101.901C97.5966 65.9095 97.3276 73.2244 101.632 78.9137C104.591 82.7066 110.777 87.0414 117.233 90.5634C117.233 91.1052 116.964 91.918 116.964 92.4598C104.053 89.7507 95.7136 80.5393 94.3686 79.1846H94.0996C91.6786 83.7903 93.8306 90.2925 98.4036 93.0017C102.708 95.44 109.163 96.7946 117.233 97.6074C117.233 98.1492 117.502 98.691 117.502 99.2329C105.397 100.858 95.9826 96.5237 94.3686 95.7109C94.3686 95.7109 94.0996 95.7108 94.0996 95.9818C93.5616 101.129 96.7896 105.193 102.17 106.006C107.549 106.819 119.116 104.109 119.116 104.109ZM193.898 142.039L189.863 138.517C188.249 139.6 186.904 141.226 186.366 142.851C183.945 143.122 176.951 141.768 177.758 140.684C185.29 130.118 179.641 123.616 172.647 124.158V131.202C172.647 133.369 170.764 135.266 168.074 135.266H163.232C159.735 135.266 157.583 138.788 157.583 138.788C157.583 138.788 155.431 135.266 151.934 135.266H147.092C144.671 135.266 142.519 133.369 142.519 131.202V124.158C135.525 123.887 129.876 130.118 137.408 140.684C137.946 141.768 130.952 143.393 127.724 142.851C126.917 142.039 125.572 141.497 124.227 141.497C123.689 141.497 122.882 141.497 122.344 141.768C122.344 141.768 109.432 129.305 109.163 129.305V129.034C109.97 127.68 108.894 126.054 108.087 126.325C108.894 125.241 108.894 120.907 104.322 119.823C104.591 120.636 104.591 122.532 104.591 122.532C104.591 122.532 101.094 120.636 99.2106 122.261C97.5966 124.158 99.7486 127.68 99.7486 127.68C99.7486 127.68 97.8656 127.68 97.0586 127.68C98.4036 132.015 102.977 131.744 103.784 130.931C103.784 131.744 105.397 132.556 106.743 131.744L107.281 131.473C107.281 131.744 120.192 143.664 120.192 143.664C119.654 144.477 119.385 145.561 119.654 146.644C119.923 148.541 121.537 149.895 123.42 150.166C124.765 150.437 126.11 150.166 126.917 149.624L130.145 152.876C130.414 153.146 130.952 153.417 131.221 153.417C132.028 153.417 132.566 152.605 132.566 152.063C132.566 151.792 132.297 151.521 132.028 151.25L128.531 147.999C131.221 146.102 136.601 144.748 140.905 144.748C141.712 144.748 141.981 144.206 141.712 143.393C139.829 138.788 143.864 135.266 148.168 137.975C150.051 139.058 151.934 141.497 153.548 145.561C146.554 147.186 137.408 152.063 135.794 157.21C134.987 159.107 137.408 161.816 140.098 162.629C140.098 162.629 140.367 162.629 140.367 162.358C141.712 154.501 150.051 148.812 154.355 147.728C154.624 148.27 154.624 147.999 154.624 148.812C149.782 150.979 145.478 155.856 144.133 161.274C143.595 163.712 146.285 166.151 148.706 166.693C148.706 166.693 148.975 166.693 148.975 166.422C149.513 159.378 152.472 153.417 155.431 150.708C155.431 151.25 155.431 151.792 155.7 152.334C155.7 152.334 152.741 160.19 152.741 166.151C152.741 168.86 156.776 170.756 157.314 171.027C158.121 170.756 162.156 168.86 162.156 166.151C162.156 160.19 159.197 152.334 159.197 152.334C159.197 151.792 159.197 151.25 159.466 150.708C162.156 153.417 165.384 159.378 165.922 166.422C165.922 166.422 165.922 166.693 166.191 166.693C168.612 166.151 171.302 163.712 170.764 161.274C169.419 155.585 164.846 150.979 160.273 148.812C160.542 148.27 160.542 148.541 160.542 147.728C164.846 148.812 173.185 154.501 174.53 162.358C174.53 162.358 174.53 162.629 174.799 162.629C177.489 162.087 179.91 159.378 179.103 157.21C177.22 152.063 168.343 147.186 161.349 145.561C162.694 141.497 164.846 139.329 166.729 137.975C171.033 135.266 175.337 138.517 173.185 143.393C172.916 143.935 173.185 144.748 173.992 144.748C178.834 144.748 184.752 146.644 187.173 148.812C188.787 150.979 191.477 152.605 194.705 152.334C198.202 152.063 201.161 149.354 201.699 145.831C201.968 142.851 200.623 140.142 198.202 138.788L193.898 142.039ZM162.963 120.636C164.577 120.094 166.729 120.636 166.729 122.803C166.729 123.345 167.267 123.345 167.536 122.803C168.074 119.552 165.922 118.739 163.501 119.01C163.232 117.927 162.963 116.843 162.694 116.03C162.425 115.217 162.425 113.863 163.232 113.863C163.77 113.863 163.501 115.217 163.501 115.759C163.501 116.301 163.77 116.572 164.039 116.572C164.308 116.572 164.577 116.301 164.846 116.03C166.191 114.675 166.46 112.237 164.846 111.154C163.501 110.341 160.273 110.883 159.466 112.237C159.466 111.695 158.659 110.883 158.39 110.612C158.121 110.341 158.121 110.07 158.39 109.799C158.659 109.528 159.197 108.986 159.197 108.444C159.197 108.173 158.928 107.361 158.121 107.361C157.314 107.361 156.776 107.902 156.776 108.986C156.776 109.257 156.776 109.528 157.045 109.799C156.507 109.799 155.431 109.799 154.893 109.799L163.232 133.098C165.653 132.015 167.536 130.118 167.536 127.951C167.536 126.325 165.115 126.867 163.77 128.222C163.501 126.054 162.963 123.887 162.694 121.99C162.425 120.907 162.694 120.636 162.963 120.636ZM151.127 104.922L153.01 109.799C151.396 110.07 148.975 111.154 148.975 112.779C148.975 114.675 152.472 116.03 154.355 115.759C154.355 116.301 154.355 116.572 154.624 116.843C153.817 116.843 152.472 117.114 152.203 117.656C151.127 116.572 149.513 116.301 148.706 116.843C147.899 117.385 147.899 118.468 148.706 119.552C149.244 120.365 149.513 121.178 148.975 121.99C151.396 121.99 150.589 118.739 151.396 118.739C151.396 119.281 151.396 120.094 151.665 120.907C151.934 121.449 151.934 121.719 151.665 122.261C150.858 123.616 149.782 126.325 149.782 129.034C148.975 129.034 148.706 128.763 148.975 127.68C148.975 127.409 148.706 126.867 148.437 127.409C148.168 127.951 147.899 128.763 147.899 129.305C147.899 131.473 150.589 132.015 151.665 131.473C154.624 134.453 160.542 133.64 162.694 132.556L152.203 103.839C151.665 104.109 150.858 104.38 151.127 104.922ZM150.858 128.493C150.589 127.409 152.203 125.241 154.355 123.074C153.817 124.429 154.086 126.596 155.162 127.409C153.548 127.409 151.665 127.68 150.858 128.493Z" fill="white"/>
</g>
<defs>
<clipPath id="clip0_568_9151">
<rect width="129.026" height="131.303" fill="white" transform="translate(93.0941 40.9846)"/>
</clipPath>
</defs>
</svg>
