<svg width="60" height="60" viewBox="0 0 60 60" fill="none" xmlns="http://www.w3.org/2000/svg">
<path d="M47.5 27.5H12.5C9.73858 27.5 7.5 29.7386 7.5 32.5V50C7.5 52.7614 9.73858 55 12.5 55H47.5C50.2614 55 52.5 52.7614 52.5 50V32.5C52.5 29.7386 50.2614 27.5 47.5 27.5Z" stroke="#3C506B" stroke-width="4" stroke-linecap="round" stroke-linejoin="round"/>
<path d="M17.5 27.5V17.5C17.5 14.1848 18.817 11.0054 21.1612 8.66117C23.5054 6.31696 26.6848 5 30 5C33.3152 5 36.4946 6.31696 38.8388 8.66117C41.183 11.0054 42.5 14.1848 42.5 17.5V27.5" stroke="#3C506B" stroke-width="4" stroke-linecap="round" stroke-linejoin="round"/>
</svg>
