<svg width="60" height="60" viewBox="0 0 60 60" fill="none" xmlns="http://www.w3.org/2000/svg">
<path d="M40 7.5H2.5V40H40V7.5Z" stroke="#3C506B" stroke-width="4" stroke-linecap="round" stroke-linejoin="round"/>
<path d="M40 20H50L57.5 27.5V40H40V20Z" stroke="#3C506B" stroke-width="4" stroke-linecap="round" stroke-linejoin="round"/>
<path d="M13.75 52.5C17.2018 52.5 20 49.7018 20 46.25C20 42.7982 17.2018 40 13.75 40C10.2982 40 7.5 42.7982 7.5 46.25C7.5 49.7018 10.2982 52.5 13.75 52.5Z" stroke="#3C506B" stroke-width="4" stroke-linecap="round" stroke-linejoin="round"/>
<path d="M46.25 52.5C49.7018 52.5 52.5 49.7018 52.5 46.25C52.5 42.7982 49.7018 40 46.25 40C42.7982 40 40 42.7982 40 46.25C40 49.7018 42.7982 52.5 46.25 52.5Z" stroke="#3C506B" stroke-width="4" stroke-linecap="round" stroke-linejoin="round"/>
</svg>
