<svg width="70" height="70" viewBox="0 0 70 70" fill="none" xmlns="http://www.w3.org/2000/svg">
<g id="pocket">
<path id="Vector" d="M11.6668 8.75H58.3335C59.8806 8.75 61.3643 9.36458 62.4583 10.4585C63.5522 11.5525 64.1668 13.0362 64.1668 14.5833V32.0833C64.1668 39.8188 61.0939 47.2375 55.6241 52.7073C50.1543 58.1771 42.7356 61.25 35.0002 61.25C31.1699 61.25 27.3772 60.4956 23.8386 59.0298C20.2999 57.5641 17.0846 55.4157 14.3762 52.7073C8.9064 47.2375 5.8335 39.8188 5.8335 32.0833V14.5833C5.8335 13.0362 6.44808 11.5525 7.54204 10.4585C8.636 9.36458 10.1197 8.75 11.6668 8.75Z" stroke="#344966" stroke-width="3" stroke-linecap="round" stroke-linejoin="round"/>
<path id="Vector_2" d="M23.3335 29.1666L35.0002 40.8333L46.6668 29.1666" stroke="#344966" stroke-width="3" stroke-linecap="round" stroke-linejoin="round"/>
</g>
</svg>
