<svg width="41" height="40" viewBox="0 0 41 40" fill="none" xmlns="http://www.w3.org/2000/svg">
<g id="package">
<path id="Vector" d="M28.168 15.6666L13.168 7.0166" stroke="white" stroke-width="3.33333" stroke-linecap="round" stroke-linejoin="round"/>
<path id="Vector_2" d="M35.668 26.6667V13.3334C35.6674 12.7488 35.5131 12.1747 35.2205 11.6686C34.928 11.1626 34.5075 10.7423 34.0013 10.45L22.3346 3.78337C21.8279 3.49081 21.2531 3.33679 20.668 3.33679C20.0828 3.33679 19.508 3.49081 19.0013 3.78337L7.33464 10.45C6.82841 10.7423 6.40794 11.1626 6.1154 11.6686C5.82287 12.1747 5.66857 12.7488 5.66797 13.3334V26.6667C5.66857 27.2513 5.82287 27.8254 6.1154 28.3314C6.40794 28.8375 6.82841 29.2578 7.33464 29.55L19.0013 36.2167C19.508 36.5093 20.0828 36.6633 20.668 36.6633C21.2531 36.6633 21.8279 36.5093 22.3346 36.2167L34.0013 29.55C34.5075 29.2578 34.928 28.8375 35.2205 28.3314C35.5131 27.8254 35.6674 27.2513 35.668 26.6667Z" stroke="white" stroke-width="3.33333" stroke-linecap="round" stroke-linejoin="round"/>
<path id="Vector_3" d="M6.11719 11.6L20.6672 20.0166L35.2172 11.6" stroke="white" stroke-width="3.33333" stroke-linecap="round" stroke-linejoin="round"/>
<path id="Vector_4" d="M20.668 36.8V20" stroke="white" stroke-width="3.33333" stroke-linecap="round" stroke-linejoin="round"/>
</g>
</svg>
