<svg width="70" height="70" viewBox="0 0 70 70" fill="none" xmlns="http://www.w3.org/2000/svg">
<path d="M61.25 29.1668C61.25 49.5834 35 67.0834 35 67.0834C35 67.0834 8.75 49.5834 8.75 29.1668C8.75 22.2048 11.5156 15.528 16.4384 10.6052C21.3613 5.68237 28.0381 2.91675 35 2.91675C41.9619 2.91675 48.6387 5.68237 53.5616 10.6052C58.4844 15.528 61.25 22.2048 61.25 29.1668Z" stroke="#344966" stroke-width="4" stroke-linecap="round" stroke-linejoin="round"/>
<path d="M35 37.9167C39.8325 37.9167 43.75 33.9992 43.75 29.1667C43.75 24.3343 39.8325 20.4167 35 20.4167C30.1675 20.4167 26.25 24.3343 26.25 29.1667C26.25 33.9992 30.1675 37.9167 35 37.9167Z" stroke="#344966" stroke-width="4" stroke-linecap="round" stroke-linejoin="round"/>
</svg>
