<svg width="20" height="20" viewBox="0 0 20 20" fill="none" xmlns="http://www.w3.org/2000/svg">
<g id="Aircraft-Chopper-2--Streamline-Ultimate.svg" opacity="0.5" clip-path="url(#clip0_96_2876)">
<path id="Vector" d="M4.43002 6.24995H12.25C13.8266 6.24947 15.359 6.77088 16.6081 7.7328C17.8572 8.69475 18.7527 10.0431 19.155 11.5674C19.2958 12.0749 19.3703 12.5984 19.3767 13.1249C19.3824 13.3729 19.3377 13.6194 19.2454 13.8496C19.1531 14.0797 19.0151 14.2888 18.8396 14.4641C18.6642 14.6393 18.455 14.7772 18.2247 14.8693C17.9945 14.9614 17.7479 15.0059 17.5 14.9999H10.625C10.2598 14.9994 9.90375 14.8861 9.60542 14.6754C9.30708 14.4648 9.08108 14.1672 8.95833 13.8232L7.94168 10.9766C7.83472 10.6777 7.6537 10.4109 7.41556 10.2011C7.17743 9.99116 6.88994 9.84516 6.58002 9.77658L2.92752 8.96908C2.62172 8.90241 2.3375 8.76008 2.10081 8.55533C1.86412 8.3505 1.6825 8.08965 1.57252 7.79661L0.706679 5.48828C0.598151 5.1984 0.597763 4.8791 0.705587 4.58895C0.81341 4.29881 1.02222 4.05725 1.29372 3.9086C1.56522 3.75994 1.88121 3.71413 2.18374 3.77959C2.48627 3.84504 2.75508 4.01736 2.94085 4.26495L4.43002 6.24995Z" stroke="white" stroke-width="1.2" stroke-linecap="round" stroke-linejoin="round"/>
<path id="Vector_2" d="M11.875 6.25V1.25" stroke="white" stroke-width="1.2" stroke-linecap="round" stroke-linejoin="round"/>
<path id="Vector_3" d="M19.375 2.5H4.375" stroke="white" stroke-width="1.2" stroke-linecap="round" stroke-linejoin="round"/>
<path id="Vector_4" d="M13.125 8.74992V6.30322C14.4847 6.47144 15.7673 7.02726 16.8198 7.90436C17.8723 8.78142 18.6502 9.94284 19.0608 11.2499H15.625C14.962 11.2499 14.3261 10.9865 13.8573 10.5177C13.3884 10.0488 13.125 9.41292 13.125 8.74992Z" stroke="white" stroke-width="1.2" stroke-linecap="round" stroke-linejoin="round"/>
<path id="Vector_5" d="M19.375 17.5C19.375 17.8315 19.2433 18.1495 19.0089 18.3839C18.7745 18.6183 18.4565 18.75 18.125 18.75H9.375C9.0435 18.75 8.7255 18.6183 8.49108 18.3839C8.2567 18.1495 8.125 17.8315 8.125 17.5" stroke="white" stroke-width="1.2" stroke-linecap="round" stroke-linejoin="round"/>
<path id="Vector_6" d="M17.5 18.75L15.625 15" stroke="white" stroke-width="1.2" stroke-linecap="round" stroke-linejoin="round"/>
<path id="Vector_7" d="M10 18.75L11.875 15" stroke="white" stroke-width="1.2" stroke-linecap="round" stroke-linejoin="round"/>
</g>
<defs>
<clipPath id="clip0_96_2876">
<rect width="20" height="20" fill="white"/>
</clipPath>
</defs>
</svg>
