<svg width="60" height="60" viewBox="0 0 60 60" fill="none" xmlns="http://www.w3.org/2000/svg">
<g id="airplay">
<path id="Vector" d="M12.5 42.5H10C8.67392 42.5 7.40215 41.9732 6.46447 41.0355C5.52678 40.0979 5 38.8261 5 37.5V12.5C5 11.1739 5.52678 9.90215 6.46447 8.96447C7.40215 8.02678 8.67392 7.5 10 7.5H50C51.3261 7.5 52.5979 8.02678 53.5355 8.96447C54.4732 9.90215 55 11.1739 55 12.5V37.5C55 38.8261 54.4732 40.0979 53.5355 41.0355C52.5979 41.9732 51.3261 42.5 50 42.5H47.5" stroke="#3C506B" stroke-width="3" stroke-linecap="round" stroke-linejoin="round"/>
<path id="Vector_2" d="M30 37.5L42.5 52.5H17.5L30 37.5Z" stroke="#3C506B" stroke-width="3" stroke-linecap="round" stroke-linejoin="round"/>
</g>
</svg>
