<svg width="60" height="60" viewBox="0 0 60 60" fill="none" xmlns="http://www.w3.org/2000/svg">
<path d="M40 10H45C46.3261 10 47.5979 10.5268 48.5355 11.4645C49.4732 12.4021 50 13.6739 50 15V50C50 51.3261 49.4732 52.5979 48.5355 53.5355C47.5979 54.4732 46.3261 55 45 55H15C13.6739 55 12.4021 54.4732 11.4645 53.5355C10.5268 52.5979 10 51.3261 10 50V15C10 13.6739 10.5268 12.4021 11.4645 11.4645C12.4021 10.5268 13.6739 10 15 10H20" stroke="white" stroke-width="3" stroke-linecap="round" stroke-linejoin="round"/>
<path d="M37.5 5H22.5C21.1193 5 20 6.11929 20 7.5V12.5C20 13.8807 21.1193 15 22.5 15H37.5C38.8807 15 40 13.8807 40 12.5V7.5C40 6.11929 38.8807 5 37.5 5Z" stroke="white" stroke-width="3" stroke-linecap="round" stroke-linejoin="round"/>
</svg>
