<svg width="70" height="70" viewBox="0 0 70 70" fill="none" xmlns="http://www.w3.org/2000/svg">
<g id="edit">
<path id="Vector" d="M32.0833 11.6667H11.6666C10.1196 11.6667 8.63582 12.2813 7.54186 13.3753C6.44789 14.4693 5.83331 15.953 5.83331 17.5001V58.3334C5.83331 59.8805 6.44789 61.3642 7.54186 62.4582C8.63582 63.5522 10.1196 64.1667 11.6666 64.1667H52.5C54.0471 64.1667 55.5308 63.5522 56.6248 62.4582C57.7187 61.3642 58.3333 59.8805 58.3333 58.3334V37.9167" stroke="#3C506B" stroke-width="3" stroke-linecap="round" stroke-linejoin="round"/>
<path id="Vector_2" d="M53.9583 7.29168C55.1186 6.13135 56.6924 5.47949 58.3333 5.47949C59.9743 5.47949 61.548 6.13135 62.7083 7.29168C63.8686 8.452 64.5205 10.0257 64.5205 11.6667C64.5205 13.3076 63.8686 14.8814 62.7083 16.0417L35 43.75L23.3333 46.6667L26.25 35L53.9583 7.29168Z" stroke="#3C506B" stroke-width="3" stroke-linecap="round" stroke-linejoin="round"/>
</g>
</svg>
