<svg width="70" height="70" viewBox="0 0 70 70" fill="none" xmlns="http://www.w3.org/2000/svg">
<g id="truck">
<path id="Vector" d="M46.6667 8.75H2.91666V46.6667H46.6667V8.75Z" stroke="#3C506B" stroke-width="4" stroke-linecap="round" stroke-linejoin="round"/>
<path id="Vector_2" d="M46.6667 23.3333H58.3333L67.0833 32.0833V46.6666H46.6667V23.3333Z" stroke="#3C506B" stroke-width="4" stroke-linecap="round" stroke-linejoin="round"/>
<path id="Vector_3" d="M16.0417 61.2501C20.0687 61.2501 23.3333 57.9855 23.3333 53.9584C23.3333 49.9313 20.0687 46.6667 16.0417 46.6667C12.0146 46.6667 8.75 49.9313 8.75 53.9584C8.75 57.9855 12.0146 61.2501 16.0417 61.2501Z" stroke="#3C506B" stroke-width="4" stroke-linecap="round" stroke-linejoin="round"/>
<path id="Vector_4" d="M53.9583 61.2501C57.9854 61.2501 61.25 57.9855 61.25 53.9584C61.25 49.9313 57.9854 46.6667 53.9583 46.6667C49.9312 46.6667 46.6667 49.9313 46.6667 53.9584C46.6667 57.9855 49.9312 61.2501 53.9583 61.2501Z" stroke="#3C506B" stroke-width="4" stroke-linecap="round" stroke-linejoin="round"/>
</g>
</svg>
