<svg width="183" height="183" viewBox="0 0 183 183" fill="none" xmlns="http://www.w3.org/2000/svg">
<rect x="19.2365" y="0.938377" width="7.50701" height="181.107" fill="white" stroke="#929292" stroke-width="1.87675"/>
<path d="M27.9165 0.234594H158.585C162.602 0.234594 165.858 3.49057 165.858 7.50701V175.476C165.858 179.493 162.602 182.749 158.585 182.749H27.9165V0.234594Z" fill="#003DB6" stroke="#F6F6F7" stroke-width="0.469188"/>
<g clip-path="url(#clip0_565_9033)">
<path d="M111.907 52.3005C110.576 51.1282 108.913 51.2957 107.916 51.6307C108.581 50.7932 110.244 50.1233 110.576 49.9558C110.909 50.1233 111.907 51.1282 111.907 52.3005ZM115.898 47.7785C115.066 43.4241 104.922 46.2712 99.7674 44.4289C99.6011 45.7688 101.43 47.7785 102.927 48.4485C100.1 50.7932 97.7719 55.6501 97.273 61.512C96.7742 55.6501 94.2798 50.7932 91.6191 48.4485C93.282 47.6111 94.945 45.6013 94.7786 44.4289C89.6237 46.2712 79.4799 43.4241 78.6484 47.7785C78.4822 48.7834 78.981 50.1233 79.4799 50.4582C79.6462 50.1233 79.9788 49.1184 81.4754 48.9509C88.6259 47.7785 94.6124 58.9998 89.2911 63.5218V63.6892H105.588C105.754 63.6892 105.754 63.5218 105.588 63.5218C100.1 58.9998 106.253 47.9461 113.403 48.9509C114.9 49.1184 115.232 50.1233 115.399 50.4582C115.565 50.1233 116.064 48.7834 115.898 47.7785ZM117.56 37.7297C117.394 37.3948 121.718 37.2272 121.718 39.907C121.718 41.7492 119.223 42.5867 119.223 44.4289C119.223 45.2664 120.221 45.9362 120.387 45.9362C119.722 42.9217 122.383 44.5964 123.214 45.0989C121.718 41.0794 125.044 41.0794 124.711 39.4045C124.545 38.0647 121.718 38.5671 120.72 37.8972C118.725 36.5574 116.563 32.0354 115.232 36.5574C117.893 39.0695 116.396 42.5867 113.071 42.5867V43.0891C116.895 42.9217 118.392 40.0745 117.56 37.7297ZM71.1653 44.9314C71.8305 44.4289 74.6575 42.7541 73.9923 45.7688C74.3249 45.7688 75.1563 45.0989 75.1563 44.2615C75.1563 42.4192 72.662 41.5818 72.662 39.7395C72.662 37.0598 76.8192 37.0598 76.8192 37.5622C76.1541 39.907 77.4844 42.9217 81.4754 43.0891V42.5867C78.1496 42.5867 76.653 38.9021 79.3136 36.5574C77.6507 32.0354 75.4889 36.5574 73.6597 37.7297C72.662 38.3997 69.8351 37.8972 69.6687 39.2371C69.3362 41.0794 72.4957 41.0794 71.1653 44.9314ZM82.4732 52.3005C83.8035 51.1282 85.4664 51.2957 86.4641 51.6307C85.7989 50.7932 84.1361 50.1233 83.8035 49.9558C83.4709 50.1233 82.4732 51.1282 82.4732 52.3005ZM99.1022 27.6809L97.1068 25.3362L95.1112 27.6809L97.1068 30.1931L99.1022 27.6809ZM110.077 34.8825L108.747 33.2077L107.417 34.8825L108.747 36.5574L110.077 34.8825ZM121.385 83.6194L119.556 81.7771L117.727 83.6194L119.556 85.2943L121.385 83.6194ZM86.7967 34.8825L85.4663 33.2077L84.1361 34.8825L85.4663 36.5574L86.7967 34.8825ZM82.8057 43.0891H87.9607C92.2843 43.0891 94.2798 40.4094 94.7786 38.0647H99.2685C99.9337 40.4094 101.763 43.0891 106.086 43.0891H111.241C111.241 43.0891 112.073 41.9168 112.405 41.2468C113.237 39.0695 112.239 38.0647 110.743 38.0647L108.747 39.907L106.752 38.0647C105.255 38.0647 104.257 39.0695 105.089 41.2468C105.255 41.5818 105.421 41.9168 105.754 42.2517C103.758 42.0842 101.43 40.9118 100.931 38.2322C100.931 38.2322 102.262 36.0549 102.594 35.2175C103.758 32.0354 102.262 30.863 99.9337 30.863L97.1068 34.2126L94.1135 30.6955C91.7854 30.6955 90.2888 32.0354 91.4528 35.0501C91.7854 35.8874 93.1158 38.0647 93.1158 38.0647C92.6169 40.7444 90.2888 42.0842 88.4596 42.2517C88.6259 41.9168 88.9585 41.4143 89.1248 41.2468C89.9562 39.0695 88.9585 38.0647 87.4619 38.0647L85.4663 39.907L83.4709 38.0647C81.9743 38.0647 80.9766 39.0695 81.808 41.2468C81.9743 41.9168 82.8057 43.0891 82.8057 43.0891ZM136.185 59.1672C135.187 59.6697 129.367 62.3494 121.884 61.3445C121.884 61.0095 122.05 60.6745 122.05 60.3397C127.039 59.6697 131.03 58.8323 133.691 57.4924C136.684 55.8177 137.848 51.9655 136.351 48.9509C136.351 48.9509 136.185 48.7834 136.185 48.9509C135.354 49.9558 130.199 55.4827 122.217 57.1575C122.217 56.6551 122.217 56.3201 122.05 55.9851C126.041 53.8078 129.7 51.1282 131.529 48.7834C134.356 45.2664 134.023 40.7444 131.363 38.3997H131.196C130.365 39.7395 122.549 52.3005 114.068 57.6599C113.902 57.6599 113.902 57.8274 113.736 57.8274C113.569 57.9949 113.403 58.3298 113.736 58.4974C114.734 59.3347 115.399 60.6745 115.399 62.0144C115.399 64.3591 113.569 66.369 111.075 66.8714C109.911 67.0388 108.082 67.0388 106.419 66.5364C106.419 66.5364 106.253 66.5364 106.253 66.7038V74.2405C106.253 74.408 106.419 74.408 106.419 74.2405C107.417 71.3934 110.576 70.8909 111.907 70.8909C112.405 73.9055 113.237 76.2503 114.401 77.5901C116.23 79.7674 119.223 79.7674 120.554 78.2601V78.0926C119.722 77.5901 115.399 74.9104 114.567 70.556C114.9 70.3884 115.232 70.221 115.565 70.221C117.062 72.5657 119.057 74.743 120.72 75.4128C123.547 76.7527 126.041 76.0828 127.205 74.073C127.205 74.073 127.205 73.9055 127.039 73.9055C125.376 73.7381 120.055 72.2307 117.727 68.5461C118.059 68.3787 118.226 68.0437 118.558 67.8763C120.886 69.7185 124.212 71.2258 126.706 71.5608C129.533 71.8958 132.693 71.0584 132.859 67.7088C132.859 67.7088 132.859 67.5413 132.693 67.5413C131.695 67.5413 125.044 67.8762 120.387 65.1965C120.554 64.8616 120.72 64.5267 120.886 64.1917C120.886 64.1917 128.037 65.8665 131.363 65.364C134.688 64.8616 136.684 62.3494 136.351 59.1672H136.185ZM73.3271 64.3591C73.4935 64.6941 73.6597 65.0291 73.8261 65.364C69.1699 68.0437 62.5183 67.7088 61.5205 67.7088C61.5205 67.7088 61.3542 67.7088 61.3542 67.8763C61.3542 71.2258 64.68 72.0633 67.507 71.7283C69.8351 71.3934 73.3271 69.7185 75.6552 68.0437C75.8215 68.3787 76.1541 68.5461 76.4867 68.7137C73.9923 72.2307 68.671 73.7381 67.0081 73.9055C66.8418 73.9055 66.8418 74.073 66.8418 74.073C68.0058 76.0828 70.5002 76.7527 73.3271 75.4128C74.9901 74.5755 77.1518 72.5657 78.4822 70.221C78.8148 70.3884 79.1474 70.556 79.4799 70.556C78.6484 75.078 74.1586 77.7576 73.4935 78.0926V78.2601C74.8238 79.7674 77.817 79.7674 79.6462 77.5901C80.8102 76.2503 81.6417 73.9055 82.1406 70.8909C83.4709 70.8909 86.6304 71.5608 87.6281 74.2405C87.6281 74.408 87.7945 74.408 87.7945 74.2405V66.7038C87.7945 66.7038 87.7945 66.5364 87.6281 66.5364C85.9653 67.0388 84.1361 67.2063 82.972 66.8714C80.4776 66.369 78.6484 64.5267 78.6484 62.0144C78.6484 60.6745 79.3136 59.3347 80.3114 58.4974C80.4776 58.3298 80.4776 57.9949 80.3114 57.8274C80.145 57.8274 80.145 57.6599 79.9788 57.6599C71.4979 52.468 63.6823 39.907 62.8508 38.5671H62.6845C60.0239 40.7444 59.8576 45.2664 62.5183 48.7834C64.3475 51.1282 68.1721 53.8078 72.1631 55.9851C72.1631 56.3201 71.9969 56.8225 71.9969 57.1575C64.0149 55.4827 58.8599 49.7884 58.0284 48.9509H57.8621C56.3655 51.7981 57.6958 55.8177 60.5228 57.4924C63.1834 58.9998 67.1744 59.8372 72.1631 60.3397C72.1631 60.6745 72.3294 61.0095 72.3294 61.3445C64.8463 62.3494 59.0262 59.6697 58.0284 59.1672C58.0284 59.1672 57.8621 59.1672 57.8621 59.3347C57.5295 62.5168 59.525 65.0291 62.8508 65.5315C66.1766 66.034 73.3271 64.3591 73.3271 64.3591ZM119.556 87.8064L117.062 85.6292C116.064 86.2991 115.232 87.304 114.9 88.3088C113.403 88.4764 109.08 87.639 109.579 86.969C114.235 80.4373 110.743 76.4178 106.419 76.7527V81.1072C106.419 82.4471 105.255 83.6194 103.592 83.6194H100.599C98.437 83.6194 97.1068 85.7967 97.1068 85.7967C97.1068 85.7967 95.7764 83.6194 93.6146 83.6194H90.6214C89.1248 83.6194 87.7945 82.4471 87.7945 81.1072V76.7527C83.4709 76.5853 79.9788 80.4373 84.6349 86.969C84.9675 87.639 80.644 88.6438 78.6484 88.3088C78.1496 87.8064 77.3181 87.4715 76.4867 87.4715C76.1541 87.4715 75.6552 87.4715 75.3226 87.639C75.3226 87.639 67.3407 79.9348 67.1744 79.9348V79.7674C67.6733 78.93 67.0081 77.9251 66.5092 78.0926C67.0081 77.4227 67.0081 74.743 64.1812 74.073C64.3475 74.5755 64.3475 75.7478 64.3475 75.7478C64.3475 75.7478 62.1857 74.5755 61.0216 75.5804C60.0239 76.7527 61.3542 78.93 61.3542 78.93C61.3542 78.93 60.1902 78.93 59.6913 78.93C60.5228 81.6097 63.3497 81.4422 63.8486 80.9397C63.8486 81.4422 64.8463 81.9447 65.6778 81.4422L66.0104 81.2747C66.0104 81.4422 73.9923 88.8113 73.9923 88.8113C73.6597 89.3138 73.4935 89.9837 73.6597 90.6536C73.8261 91.826 74.8238 92.6634 75.9878 92.8308C76.8192 92.9984 77.6507 92.8308 78.1496 92.4959L80.145 94.5057C80.3114 94.6731 80.644 94.8407 80.8102 94.8407C81.3091 94.8407 81.6417 94.3382 81.6417 94.0033C81.6417 93.8357 81.4754 93.6683 81.3091 93.5008L79.1474 91.491C80.8102 90.3187 84.1361 89.4813 86.7967 89.4813C87.2955 89.4813 87.4619 89.1463 87.2955 88.6438C86.1315 85.7967 88.6259 83.6194 91.2866 85.2943C92.4506 85.9641 93.6146 87.4715 94.6124 89.9837C90.2888 90.9886 84.6349 94.0033 83.6372 97.1854C83.1383 98.3577 84.6349 100.033 86.2979 100.535C86.2979 100.535 86.4641 100.535 86.4641 100.367C87.2955 95.5106 92.4506 91.9934 95.1112 91.3236C95.2776 91.6585 95.2776 91.491 95.2776 91.9934C92.2843 93.3333 89.6237 96.348 88.7922 99.6976C88.4596 101.205 90.1225 102.712 91.6191 103.047C91.6191 103.047 91.7854 103.047 91.7854 102.88C92.118 98.5253 93.9472 94.8407 95.7764 93.1658C95.7764 93.5008 95.7764 93.8357 95.9427 94.1707C95.9427 94.1707 94.1135 99.0277 94.1135 102.712C94.1135 104.387 96.6078 105.559 96.9404 105.727C97.4393 105.559 99.9337 104.387 99.9337 102.712C99.9337 99.0277 98.1045 94.1707 98.1045 94.1707C98.1045 93.8357 98.1045 93.5008 98.2708 93.1658C99.9337 94.8407 101.929 98.5253 102.262 102.88C102.262 102.88 102.262 103.047 102.428 103.047C103.925 102.712 105.588 101.205 105.255 99.6976C104.424 96.1805 101.597 93.3333 98.7696 91.9934C98.9359 91.6585 98.9359 91.826 98.9359 91.3236C101.597 91.9934 106.752 95.5106 107.583 100.367C107.583 100.367 107.583 100.535 107.749 100.535C109.412 100.2 110.909 98.5253 110.41 97.1854C109.246 94.0033 103.758 90.9886 99.4348 89.9837C100.266 87.4715 101.597 86.1317 102.761 85.2943C105.421 83.6194 108.082 85.6292 106.752 88.6438C106.585 88.9788 106.752 89.4813 107.251 89.4813C110.244 89.4813 113.902 90.6536 115.399 91.9934C116.396 93.3333 118.059 94.3382 120.055 94.1707C122.217 94.0033 124.046 92.3284 124.378 90.1511C124.545 88.3089 123.713 86.6341 122.217 85.7967L119.556 87.8064ZM100.433 74.5755C101.43 74.2405 102.761 74.5755 102.761 75.9153C102.761 76.2503 103.093 76.2503 103.259 75.9153C103.592 73.9055 102.262 73.4031 100.765 73.5706C100.599 72.9007 100.433 72.2307 100.266 71.7283C100.1 71.2258 100.1 70.3884 100.599 70.3884C100.931 70.3884 100.765 71.2258 100.765 71.5608C100.765 71.8958 100.931 72.0633 101.098 72.0633C101.264 72.0633 101.43 71.8958 101.597 71.7283C102.428 70.8909 102.594 69.3835 101.597 68.7137C100.765 68.2112 98.7696 68.5461 98.2708 69.3835C98.2708 69.0486 97.7719 68.5461 97.6056 68.3787C97.4393 68.2112 97.4393 68.0437 97.6056 67.8763C97.7719 67.7088 98.1045 67.3738 98.1045 67.0388C98.1045 66.8714 97.9382 66.369 97.4393 66.369C96.9404 66.369 96.6078 66.7038 96.6078 67.3738C96.6078 67.5413 96.6078 67.7088 96.7742 67.8763C96.4416 67.8763 95.7764 67.8763 95.4438 67.8763L100.599 82.2796C102.095 81.6097 103.259 80.4373 103.259 79.0974C103.259 78.0925 101.763 78.4275 100.931 79.265C100.765 77.9251 100.433 76.5853 100.266 75.4128C100.1 74.743 100.266 74.5755 100.433 74.5755ZM93.1158 64.8616L94.2798 67.8763C93.282 68.0437 91.7854 68.7137 91.7854 69.7185C91.7854 70.8909 93.9472 71.7283 95.1112 71.5608C95.1112 71.8958 95.1112 72.0633 95.2776 72.2307C94.7786 72.2307 93.9472 72.3982 93.7809 72.7332C93.1158 72.0633 92.118 71.8958 91.6191 72.2307C91.1203 72.5657 91.1203 73.2357 91.6191 73.9055C91.9517 74.408 92.118 74.9104 91.7854 75.4128C93.282 75.4128 92.7832 73.4031 93.282 73.4031C93.282 73.7381 93.282 74.2405 93.4483 74.743C93.6146 75.078 93.6146 75.2454 93.4483 75.5804C92.9494 76.4178 92.2843 78.0926 92.2843 79.7674C91.7854 79.7674 91.6191 79.5999 91.7854 78.93C91.7854 78.7625 91.6191 78.4275 91.4528 78.7625C91.2866 79.0974 91.1203 79.5999 91.1203 79.9348C91.1203 81.2747 92.7832 81.6097 93.4483 81.2747C95.2776 83.117 98.9359 82.6145 100.266 81.9447L93.7809 64.1917C93.4484 64.3591 92.9494 64.5267 93.1158 64.8616ZM92.9494 79.4324C92.7832 78.7625 93.7809 77.4227 95.1112 76.0828C94.7786 76.9202 94.945 78.2601 95.6102 78.7625C94.6124 78.7625 93.4484 78.93 92.9494 79.4324Z" fill="white"/>
</g>
<defs>
<clipPath id="clip0_565_9033">
<rect width="79.762" height="81.1696" fill="white" transform="translate(57.2406 25.3362)"/>
</clipPath>
</defs>
</svg>
