<svg width="240" height="296" viewBox="0 0 240 296" fill="none" xmlns="http://www.w3.org/2000/svg">
<rect x="1.6175" y="1.51795" width="12.1436" height="292.964" fill="white" stroke="#929292" stroke-width="3.0359"/>
<path d="M15.6585 0.379487H227.033C233.53 0.379487 238.797 5.64646 238.797 12.1436V283.856C238.797 290.354 233.53 295.621 227.033 295.621H15.6585V0.379487Z" fill="#B4CDED" stroke="#F6F6F7" stroke-width="0.758974"/>
<g clip-path="url(#clip0_17_854)">
<path d="M151.524 84.6033C149.372 82.7069 146.682 82.9779 145.068 83.5197C146.144 82.165 148.834 81.0814 149.372 80.8104C149.91 81.0814 151.524 82.7069 151.524 84.6033ZM157.98 77.2884C156.635 70.2445 140.226 74.8501 131.887 71.8699C131.618 74.0374 134.577 77.2884 136.998 78.3721C132.425 82.165 128.659 90.0218 127.852 99.5041C127.045 90.0218 123.01 82.165 118.706 78.3721C121.396 77.0175 124.086 73.7665 123.817 71.8699C115.478 74.8501 99.0693 70.2445 97.7242 77.2884C97.4553 78.914 98.2622 81.0814 99.0693 81.6231C99.3383 81.0814 99.8763 79.4558 102.297 79.1848C113.864 77.2884 123.548 95.4402 114.94 102.755V103.026H141.302C141.571 103.026 141.571 102.755 141.302 102.755C132.425 95.4402 142.378 77.5594 153.945 79.1848C156.366 79.4558 156.904 81.0814 157.173 81.6231C157.442 81.0814 158.249 78.914 157.98 77.2884ZM160.67 61.0331C160.401 60.4913 167.395 60.2203 167.395 64.5552C167.395 67.5352 163.36 68.8899 163.36 71.8699C163.36 73.2247 164.974 74.3082 165.243 74.3082C164.167 69.4318 168.471 72.1409 169.816 72.9537C167.395 66.4516 172.775 66.4516 172.237 63.7423C171.968 61.575 167.395 62.3877 165.781 61.304C162.553 59.1367 159.056 51.8218 156.904 59.1367C161.208 63.2004 158.787 68.8899 153.407 68.8899V69.7026C159.594 69.4318 162.015 64.826 160.67 61.0331ZM85.6193 72.6828C86.6954 71.8699 91.2684 69.1608 90.1924 74.0374C90.7304 74.0374 92.0753 72.9537 92.0753 71.5991C92.0753 68.6189 88.0403 67.2643 88.0403 64.2842C88.0403 59.9494 94.7652 59.9494 94.7652 60.7621C93.6894 64.5552 95.8413 69.4318 102.297 69.7026V68.8899C96.9173 68.8899 94.4963 62.9296 98.8002 59.1367C96.1103 51.8218 92.6133 59.1367 89.6543 61.0331C88.0403 62.1169 83.4674 61.304 83.1984 63.4714C82.6605 66.4516 87.7714 66.4516 85.6193 72.6828ZM103.911 84.6033C106.063 82.7069 108.753 82.9779 110.367 83.5197C109.291 82.165 106.601 81.0814 106.063 80.8104C105.525 81.0814 103.911 82.7069 103.911 84.6033ZM130.811 44.7778L127.583 40.9849L124.355 44.7778L127.583 48.8416L130.811 44.7778ZM148.565 56.4274L146.413 53.7182L144.261 56.4274L146.413 59.1367L148.565 56.4274ZM166.857 135.266L163.898 132.286L160.939 135.266L163.898 137.975L166.857 135.266ZM110.905 56.4274L108.753 53.7182L106.601 56.4274L108.753 59.1367L110.905 56.4274ZM104.449 69.7026H112.788C119.782 69.7026 123.01 65.3679 123.817 61.575H131.08C132.156 65.3679 135.115 69.7026 142.109 69.7026H150.448C150.448 69.7026 151.793 67.8062 152.331 66.7225C153.676 63.2004 152.062 61.575 149.641 61.575L146.413 64.5552L143.185 61.575C140.764 61.575 139.15 63.2004 140.495 66.7225C140.764 67.2643 141.033 67.8062 141.571 68.348C138.343 68.077 134.577 66.1806 133.77 61.8459C133.77 61.8459 135.922 58.3238 136.46 56.9693C138.343 51.8218 135.922 49.9253 132.156 49.9253L127.583 55.3437L122.741 49.6544C118.975 49.6544 116.554 51.8218 118.437 56.6984C118.975 58.053 121.127 61.575 121.127 61.575C120.32 65.9097 116.554 68.077 113.595 68.348C113.864 67.8062 114.402 66.9935 114.671 66.7225C116.016 63.2004 114.402 61.575 111.981 61.575L108.753 64.5552L105.525 61.575C103.104 61.575 101.49 63.2004 102.835 66.7225C103.104 67.8062 104.449 69.7026 104.449 69.7026ZM190.797 95.7111C189.183 96.524 179.769 100.859 167.664 99.2331C167.664 98.6913 167.933 98.1494 167.933 97.6077C176.002 96.524 182.458 95.1694 186.762 93.0019C191.604 90.2928 193.487 84.0614 191.066 79.1848C191.066 79.1848 190.797 78.914 190.797 79.1848C189.452 80.8104 181.114 89.7509 168.202 92.4601C168.202 91.6474 168.202 91.1055 167.933 90.5636C174.389 87.0416 180.306 82.7069 183.265 78.914C187.838 73.2247 187.3 65.9097 182.996 62.1169H182.727C181.382 64.2842 168.74 84.6033 155.021 93.2728C154.752 93.2728 154.752 93.5438 154.483 93.5438C154.214 93.8147 153.945 94.3565 154.483 94.6275C156.097 95.9821 157.173 98.1494 157.173 100.317C157.173 104.11 154.214 107.361 150.179 108.174C148.296 108.444 145.337 108.444 142.647 107.632C142.647 107.632 142.378 107.632 142.378 107.903V120.094C142.378 120.365 142.647 120.365 142.647 120.094C144.261 115.489 149.372 114.676 151.524 114.676C152.331 119.552 153.676 123.345 155.559 125.513C158.518 129.035 163.36 129.035 165.512 126.596V126.325C164.167 125.513 157.173 121.178 155.828 114.134C156.366 113.863 156.904 113.592 157.442 113.592C159.863 117.385 163.091 120.907 165.781 121.991C170.354 124.158 174.389 123.074 176.272 119.823C176.272 119.823 176.272 119.552 176.002 119.552C173.313 119.281 164.705 116.843 160.939 110.883C161.477 110.612 161.746 110.07 162.284 109.799C166.05 112.779 171.43 115.218 175.464 115.759C180.037 116.301 185.148 114.947 185.417 109.528C185.417 109.528 185.417 109.257 185.148 109.257C183.534 109.257 172.775 109.799 165.243 105.464C165.512 104.923 165.781 104.381 166.05 103.839C166.05 103.839 177.617 106.548 182.996 105.735C188.376 104.923 191.604 100.859 191.066 95.7111H190.797ZM89.1163 104.11C89.3854 104.652 89.6543 105.193 89.9234 105.735C82.3914 110.07 71.6315 109.528 70.0175 109.528C70.0175 109.528 69.7486 109.528 69.7486 109.799C69.7486 115.218 75.1285 116.572 79.7015 116.03C83.4674 115.489 89.1163 112.779 92.8823 110.07C93.1513 110.612 93.6894 110.883 94.2274 111.154C90.1924 116.843 81.5845 119.281 78.8944 119.552C78.6255 119.552 78.6255 119.823 78.6255 119.823C80.5084 123.074 84.5435 124.158 89.1163 121.991C91.8064 120.636 95.3032 117.385 97.4553 113.592C97.9933 113.863 98.5313 114.134 99.0693 114.134C97.7242 121.449 90.4613 125.784 89.3854 126.325V126.596C91.5373 129.035 96.3793 129.035 99.3383 125.513C101.221 123.345 102.566 119.552 103.373 114.676C105.525 114.676 110.636 115.759 112.25 120.094C112.25 120.365 112.519 120.365 112.519 120.094V107.903C112.519 107.903 112.519 107.632 112.25 107.632C109.56 108.444 106.601 108.715 104.718 108.174C100.683 107.361 97.7242 104.381 97.7242 100.317C97.7242 98.1494 98.8002 95.9821 100.414 94.6275C100.683 94.3565 100.683 93.8147 100.414 93.5438C100.145 93.5438 100.145 93.2728 99.8763 93.2728C86.1573 84.8743 73.5145 64.5552 72.1695 62.3877H71.9005C67.5966 65.9097 67.3276 73.2247 71.6315 78.914C74.5905 82.7069 80.7774 87.0416 87.2334 90.5636C87.2334 91.1055 86.9644 91.9182 86.9644 92.4601C74.0525 89.7509 65.7136 80.5396 64.3686 79.1848H64.0996C61.6786 83.7906 63.8306 90.2928 68.4036 93.0019C72.7075 95.4402 79.1635 96.7948 87.2334 97.6077C87.2334 98.1494 87.5024 98.6913 87.5024 99.2331C75.3975 100.859 65.9826 96.524 64.3686 95.7111C64.3686 95.7111 64.0996 95.7111 64.0996 95.9821C63.5616 101.13 66.7896 105.193 72.1695 106.006C77.5495 106.819 89.1163 104.11 89.1163 104.11ZM163.898 142.039L159.863 138.517C158.249 139.601 156.904 141.226 156.366 142.852C153.945 143.123 146.951 141.768 147.758 140.684C155.29 130.118 149.641 123.616 142.647 124.158V131.202C142.647 133.369 140.764 135.266 138.074 135.266H133.232C129.735 135.266 127.583 138.788 127.583 138.788C127.583 138.788 125.431 135.266 121.934 135.266H117.092C114.671 135.266 112.519 133.369 112.519 131.202V124.158C105.525 123.887 99.8763 130.118 107.408 140.684C107.946 141.768 100.952 143.393 97.7242 142.852C96.9173 142.039 95.5723 141.497 94.2274 141.497C93.6894 141.497 92.8823 141.497 92.3443 141.768C92.3443 141.768 79.4324 129.305 79.1635 129.305V129.035C79.9704 127.68 78.8944 126.054 78.0875 126.325C78.8944 125.242 78.8944 120.907 74.3215 119.823C74.5905 120.636 74.5905 122.532 74.5905 122.532C74.5905 122.532 71.0935 120.636 69.2106 122.262C67.5966 124.158 69.7486 127.68 69.7486 127.68C69.7486 127.68 67.8656 127.68 67.0586 127.68C68.4036 132.015 72.9765 131.744 73.7835 130.931C73.7835 131.744 75.3975 132.557 76.7425 131.744L77.2805 131.473C77.2805 131.744 90.1924 143.664 90.1924 143.664C89.6543 144.477 89.3854 145.561 89.6543 146.645C89.9234 148.541 91.5373 149.896 93.4203 150.166C94.7652 150.437 96.1103 150.166 96.9173 149.625L100.145 152.876C100.414 153.147 100.952 153.418 101.221 153.418C102.028 153.418 102.566 152.605 102.566 152.063C102.566 151.792 102.297 151.521 102.028 151.25L98.5313 147.999C101.221 146.103 106.601 144.748 110.905 144.748C111.712 144.748 111.981 144.206 111.712 143.393C109.829 138.788 113.864 135.266 118.168 137.975C120.051 139.059 121.934 141.497 123.548 145.561C116.554 147.186 107.408 152.063 105.794 157.211C104.987 159.107 107.408 161.816 110.098 162.629C110.098 162.629 110.367 162.629 110.367 162.358C111.712 154.501 120.051 148.812 124.355 147.728C124.624 148.27 124.624 147.999 124.624 148.812C119.782 150.979 115.478 155.856 114.133 161.274C113.595 163.713 116.285 166.151 118.706 166.693C118.706 166.693 118.975 166.693 118.975 166.422C119.513 159.378 122.472 153.418 125.431 150.708C125.431 151.25 125.431 151.792 125.7 152.334C125.7 152.334 122.741 160.191 122.741 166.151C122.741 168.86 126.776 170.757 127.314 171.028C128.121 170.757 132.156 168.86 132.156 166.151C132.156 160.191 129.197 152.334 129.197 152.334C129.197 151.792 129.197 151.25 129.466 150.708C132.156 153.418 135.384 159.378 135.922 166.422C135.922 166.422 135.922 166.693 136.191 166.693C138.612 166.151 141.302 163.713 140.764 161.274C139.419 155.585 134.846 150.979 130.273 148.812C130.542 148.27 130.542 148.541 130.542 147.728C134.846 148.812 143.185 154.501 144.53 162.358C144.53 162.358 144.53 162.629 144.799 162.629C147.489 162.087 149.91 159.378 149.103 157.211C147.22 152.063 138.343 147.186 131.349 145.561C132.694 141.497 134.846 139.33 136.729 137.975C141.033 135.266 145.337 138.517 143.185 143.393C142.916 143.935 143.185 144.748 143.992 144.748C148.834 144.748 154.752 146.645 157.173 148.812C158.787 150.979 161.477 152.605 164.705 152.334C168.202 152.063 171.161 149.354 171.699 145.832C171.968 142.852 170.623 140.142 168.202 138.788L163.898 142.039ZM132.963 120.636C134.577 120.094 136.729 120.636 136.729 122.803C136.729 123.345 137.267 123.345 137.536 122.803C138.074 119.552 135.922 118.74 133.501 119.011C133.232 117.927 132.963 116.843 132.694 116.03C132.425 115.218 132.425 113.863 133.232 113.863C133.77 113.863 133.501 115.218 133.501 115.759C133.501 116.301 133.77 116.572 134.039 116.572C134.308 116.572 134.577 116.301 134.846 116.03C136.191 114.676 136.46 112.237 134.846 111.154C133.501 110.341 130.273 110.883 129.466 112.237C129.466 111.696 128.659 110.883 128.39 110.612C128.121 110.341 128.121 110.07 128.39 109.799C128.659 109.528 129.197 108.986 129.197 108.444C129.197 108.174 128.928 107.361 128.121 107.361C127.314 107.361 126.776 107.903 126.776 108.986C126.776 109.257 126.776 109.528 127.045 109.799C126.507 109.799 125.431 109.799 124.893 109.799L133.232 133.098C135.653 132.015 137.536 130.118 137.536 127.951C137.536 126.325 135.115 126.867 133.77 128.222C133.501 126.054 132.963 123.887 132.694 121.991C132.425 120.907 132.694 120.636 132.963 120.636ZM121.127 104.923L123.01 109.799C121.396 110.07 118.975 111.154 118.975 112.779C118.975 114.676 122.472 116.03 124.355 115.759C124.355 116.301 124.355 116.572 124.624 116.843C123.817 116.843 122.472 117.114 122.203 117.656C121.127 116.572 119.513 116.301 118.706 116.843C117.899 117.385 117.899 118.469 118.706 119.552C119.244 120.365 119.513 121.178 118.975 121.991C121.396 121.991 120.589 118.74 121.396 118.74C121.396 119.281 121.396 120.094 121.665 120.907C121.934 121.449 121.934 121.72 121.665 122.262C120.858 123.616 119.782 126.325 119.782 129.035C118.975 129.035 118.706 128.764 118.975 127.68C118.975 127.409 118.706 126.867 118.437 127.409C118.168 127.951 117.899 128.764 117.899 129.305C117.899 131.473 120.589 132.015 121.665 131.473C124.624 134.453 130.542 133.64 132.694 132.557L122.203 103.839C121.665 104.11 120.858 104.381 121.127 104.923ZM120.858 128.493C120.589 127.409 122.203 125.242 124.355 123.074C123.817 124.429 124.086 126.596 125.162 127.409C123.548 127.409 121.665 127.68 120.858 128.493Z" fill="white"/>
</g>
<defs>
<clipPath id="clip0_17_854">
<rect width="129.026" height="131.303" fill="white" transform="translate(63.0941 40.9849)"/>
</clipPath>
</defs>
</svg>
