<svg width="0" height="0" class="hidden">
  <symbol fill="none" xmlns="http://www.w3.org/2000/svg" viewBox="0 0 8 14" id="ic_arr_hor">
    <path d="M1 13L7 7L0.999999 1" stroke="currentColor" stroke-width="2" stroke-linecap="round" stroke-linejoin="round"></path>
  </symbol>
  <symbol fill="none" xmlns="http://www.w3.org/2000/svg" viewBox="0 0 16 16" id="ic_arr_ver">
    <path d="M4 5.99988L8 9.99988L12 5.99988" stroke="currentColor" stroke-width="1.33333" stroke-linecap="round" stroke-linejoin="round"></path>
  </symbol>
  <symbol fill="none" xmlns="http://www.w3.org/2000/svg" viewBox="0 0 40 40" id="ic_arrow_hor">
    <path d="M26.9583 21.6666H6.66663V18.3333H26.9583L17.625 8.99996L20 6.66663L33.3333 20L20 33.3333L17.625 31L26.9583 21.6666Z" fill="currentColor"></path>
  </symbol>
  <symbol fill="none" xmlns="http://www.w3.org/2000/svg" viewBox="0 0 42 12" id="ic_arrow_hor2">
    <path d="M41 5.25C41.4142 5.25 41.75 5.58579 41.75 6C41.75 6.41421 41.4142 6.75 41 6.75V5.25ZM0.469669 6.53033C0.176777 6.23744 0.176777 5.76256 0.469669 5.46967L5.24264 0.696699C5.53553 0.403806 6.01041 0.403806 6.3033 0.696699C6.5962 0.989593 6.5962 1.46447 6.3033 1.75736L2.06066 6L6.3033 10.2426C6.5962 10.5355 6.5962 11.0104 6.3033 11.3033C6.01041 11.5962 5.53553 11.5962 5.24264 11.3033L0.469669 6.53033ZM41 6.75L1 6.75V5.25L41 5.25V6.75Z" fill="currentColor"></path>
  </symbol>
  <symbol fill="none" xmlns="http://www.w3.org/2000/svg" viewBox="0 0 22 20" id="ic_awards">
    <path d="M11 0L14.4268 6.28343L21.4616 7.60081L16.5447 12.8016L17.4656 19.8992L11 16.83L4.53436 19.8992L5.45534 12.8016L0.538379 7.60081L7.57321 6.28343L11 0Z" fill="currentColor"></path>
  </symbol>
  <symbol fill="none" xmlns="http://www.w3.org/2000/svg" viewBox="0 0 14 15" id="ic_check">
    <path d="M5.25 6.91665L7 8.66665L12.8333 2.83331" stroke="currentColor" stroke-width="1.16667" stroke-linecap="round" stroke-linejoin="round"></path>
    <path d="M12.25 7.5V11.5833C12.25 11.8928 12.1271 12.1895 11.9083 12.4083C11.6895 12.6271 11.3928 12.75 11.0833 12.75H2.91667C2.60725 12.75 2.3105 12.6271 2.09171 12.4083C1.87292 12.1895 1.75 11.8928 1.75 11.5833V3.41667C1.75 3.10725 1.87292 2.8105 2.09171 2.59171C2.3105 2.37292 2.60725 2.25 2.91667 2.25H9.33333" stroke="currentColor" stroke-width="1.16667" stroke-linecap="round" stroke-linejoin="round"></path>
  </symbol>
  <symbol fill="none" xmlns="http://www.w3.org/2000/svg" viewBox="0 0 33 32" id="ic_close">
    <path id="add" d="M14.0015 15.9998L8.19812 10.1964L10.6966 7.69792L16.5 13.5013L22.3034 7.69792L24.8019 10.1964L18.9985 15.9998L24.8019 21.8032L22.3034 24.3017L16.5 18.4983L10.6966 24.3017L8.19812 21.8032L14.0015 15.9998Z" fill="currentColor"></path>
  </symbol>
  <symbol fill="none" xmlns="http://www.w3.org/2000/svg" viewBox="0 0 32 32" id="ic_close2">
    <path d="M8.53334 25.3333L6.66667 23.4666L14.1333 16L6.66667 8.53329L8.53334 6.66663L16 14.1333L23.4667 6.66663L25.3333 8.53329L17.8667 16L25.3333 23.4666L23.4667 25.3333L16 17.8666L8.53334 25.3333Z" fill="currentColor"></path>
  </symbol>
  <symbol fill="none" xmlns="http://www.w3.org/2000/svg" viewBox="0 0 20 20" id="ic_direction1">
    <path d="M10.0001 18.3334C14.6025 18.3334 18.3334 14.6024 18.3334 10C18.3334 5.39765 14.6025 1.66669 10.0001 1.66669C5.39771 1.66669 1.66675 5.39765 1.66675 10C1.66675 14.6024 5.39771 18.3334 10.0001 18.3334Z" stroke="currentColor" stroke-width="1.5" stroke-linecap="round" stroke-linejoin="round"></path>
    <path d="M11.925 6.66669L16.7084 14.95" stroke="currentColor" stroke-width="1.5" stroke-linecap="round" stroke-linejoin="round"></path>
    <path d="M8.07495 6.66669H17.6416" stroke="currentColor" stroke-width="1.5" stroke-linecap="round" stroke-linejoin="round"></path>
    <path d="M6.1499 10L10.9332 1.71667" stroke="currentColor" stroke-width="1.5" stroke-linecap="round" stroke-linejoin="round"></path>
    <path d="M8.07508 13.3333L3.29175 5.04999" stroke="currentColor" stroke-width="1.5" stroke-linecap="round" stroke-linejoin="round"></path>
    <path d="M11.9251 13.3333H2.3584" stroke="currentColor" stroke-width="1.5" stroke-linecap="round" stroke-linejoin="round"></path>
    <path d="M13.85 10L9.06665 18.2833" stroke="currentColor" stroke-width="1.5" stroke-linecap="round" stroke-linejoin="round"></path>
  </symbol>
  <symbol fill="none" xmlns="http://www.w3.org/2000/svg" viewBox="0 0 20 20" id="ic_direction2">
    <path d="M15 6.66669C16.3807 6.66669 17.5 5.5474 17.5 4.16669C17.5 2.78598 16.3807 1.66669 15 1.66669C13.6193 1.66669 12.5 2.78598 12.5 4.16669C12.5 5.5474 13.6193 6.66669 15 6.66669Z" stroke="currentColor" stroke-width="1.5" stroke-linecap="round" stroke-linejoin="round"></path>
    <path d="M5 12.5C6.38071 12.5 7.5 11.3807 7.5 10C7.5 8.61929 6.38071 7.5 5 7.5C3.61929 7.5 2.5 8.61929 2.5 10C2.5 11.3807 3.61929 12.5 5 12.5Z" stroke="currentColor" stroke-width="1.5" stroke-linecap="round" stroke-linejoin="round"></path>
    <path d="M15 18.3333C16.3807 18.3333 17.5 17.214 17.5 15.8333C17.5 14.4526 16.3807 13.3333 15 13.3333C13.6193 13.3333 12.5 14.4526 12.5 15.8333C12.5 17.214 13.6193 18.3333 15 18.3333Z" stroke="currentColor" stroke-width="1.5" stroke-linecap="round" stroke-linejoin="round"></path>
    <path d="M7.15845 11.2584L12.8501 14.575" stroke="currentColor" stroke-width="1.5" stroke-linecap="round" stroke-linejoin="round"></path>
    <path d="M12.8418 5.42499L7.15845 8.74165" stroke="currentColor" stroke-width="1.5" stroke-linecap="round" stroke-linejoin="round"></path>
  </symbol>
  <symbol fill="none" xmlns="http://www.w3.org/2000/svg" viewBox="0 0 20 20" id="ic_direction3">
    <path d="M10.0001 18.3334C14.6025 18.3334 18.3334 14.6024 18.3334 10C18.3334 5.39765 14.6025 1.66669 10.0001 1.66669C5.39771 1.66669 1.66675 5.39765 1.66675 10C1.66675 14.6024 5.39771 18.3334 10.0001 18.3334Z" stroke="currentColor" stroke-width="1.5" stroke-linecap="round" stroke-linejoin="round"></path>
    <path d="M18.3333 10H15" stroke="currentColor" stroke-width="1.5" stroke-linecap="round" stroke-linejoin="round"></path>
    <path d="M5.00008 10H1.66675" stroke="currentColor" stroke-width="1.5" stroke-linecap="round" stroke-linejoin="round"></path>
    <path d="M10 5.00002V1.66669" stroke="currentColor" stroke-width="1.5" stroke-linecap="round" stroke-linejoin="round"></path>
    <path d="M10 18.3333V15" stroke="currentColor" stroke-width="1.5" stroke-linecap="round" stroke-linejoin="round"></path>
  </symbol>
  <symbol fill="none" xmlns="http://www.w3.org/2000/svg" viewBox="0 0 20 20" id="ic_direction4">
    <path d="M16.6667 1.66669H3.33341C2.41294 1.66669 1.66675 2.41288 1.66675 3.33335V6.66669C1.66675 7.58716 2.41294 8.33335 3.33341 8.33335H16.6667C17.5872 8.33335 18.3334 7.58716 18.3334 6.66669V3.33335C18.3334 2.41288 17.5872 1.66669 16.6667 1.66669Z" stroke="currentColor" stroke-width="1.5" stroke-linecap="round" stroke-linejoin="round"></path>
    <path d="M16.6667 11.6667H3.33341C2.41294 11.6667 1.66675 12.4129 1.66675 13.3334V16.6667C1.66675 17.5872 2.41294 18.3334 3.33341 18.3334H16.6667C17.5872 18.3334 18.3334 17.5872 18.3334 16.6667V13.3334C18.3334 12.4129 17.5872 11.6667 16.6667 11.6667Z" stroke="currentColor" stroke-width="1.5" stroke-linecap="round" stroke-linejoin="round"></path>
    <path d="M5 5H5.00833" stroke="currentColor" stroke-width="1.5" stroke-linecap="round" stroke-linejoin="round"></path>
    <path d="M5 15H5.00833" stroke="currentColor" stroke-width="1.5" stroke-linecap="round" stroke-linejoin="round"></path>
  </symbol>
  <symbol fill="none" xmlns="http://www.w3.org/2000/svg" viewBox="0 0 18 18" id="ic_home">
    <path d="M2.25 6.75L9 1.5L15.75 6.75V15C15.75 15.3978 15.592 15.7794 15.3107 16.0607C15.0294 16.342 14.6478 16.5 14.25 16.5H3.75C3.35218 16.5 2.97064 16.342 2.68934 16.0607C2.40804 15.7794 2.25 15.3978 2.25 15V6.75Z" stroke="currentColor" stroke-width="2" stroke-linecap="round" stroke-linejoin="round"></path>
    <path d="M6.75 16.5V9H11.25V16.5" stroke="currentColor" stroke-width="2" stroke-linecap="round" stroke-linejoin="round"></path>
  </symbol>
  <symbol fill="none" xmlns="http://www.w3.org/2000/svg" viewBox="0 0 24 24" id="ic_link_arrow">
    <path d="M7 17L17 7" stroke="currentColor" stroke-width="1.5" stroke-linecap="round" stroke-linejoin="round"></path>
    <path d="M7 7H17V17" stroke="currentColor" stroke-width="1.5" stroke-linecap="round" stroke-linejoin="round"></path>
  </symbol>
  <symbol fill="none" xmlns="http://www.w3.org/2000/svg" viewBox="0 0 12 12" id="ic_location">
    <path d="M1.5 5.5L11 1L6.5 10.5L5.5 6.5L1.5 5.5Z" fill="currentColor" stroke="currentColor" stroke-linecap="round" stroke-linejoin="round"></path>
  </symbol>
  <symbol fill="none" xmlns="http://www.w3.org/2000/svg" viewBox="0 0 32 32" id="ic_map">
    <path d="M1.33325 8.00002V29.3334L10.6666 24L21.3333 29.3334L30.6666 24V2.66669L21.3333 8.00002L10.6666 2.66669L1.33325 8.00002Z" stroke="currentColor" stroke-width="2" stroke-linecap="round" stroke-linejoin="round"></path>
    <path d="M10.6667 2.66669V24" stroke="currentColor" stroke-width="2" stroke-linecap="round" stroke-linejoin="round"></path>
    <path d="M21.3333 8V29.3333" stroke="currentColor" stroke-width="2" stroke-linecap="round" stroke-linejoin="round"></path>
  </symbol>
  <symbol fill="none" xmlns="http://www.w3.org/2000/svg" viewBox="0 0 25 25" id="ic_phone">
    <path d="M15.9232 5.71838C16.8999 5.90895 17.7976 6.38664 18.5012 7.09032C19.2049 7.794 19.6826 8.69165 19.8732 9.66838M15.9232 1.71838C17.9524 1.94382 19.8448 2.85256 21.2894 4.29539C22.7341 5.73822 23.6452 7.62939 23.8732 9.65838M22.8732 17.6384V20.6384C22.8743 20.9169 22.8172 21.1926 22.7057 21.4477C22.5941 21.7029 22.4305 21.932 22.2252 22.1202C22.02 22.3085 21.7777 22.4519 21.5139 22.5411C21.2501 22.6303 20.9705 22.6635 20.6932 22.6384C17.616 22.304 14.6602 21.2525 12.0632 19.5684C9.64699 18.033 7.5985 15.9846 6.06316 13.5684C4.37314 10.9596 3.32141 7.98938 2.99316 4.89838C2.96817 4.62185 3.00104 4.34314 3.08966 4.08001C3.17829 3.81687 3.32073 3.57507 3.50793 3.37C3.69512 3.16494 3.92297 3.00109 4.17695 2.88891C4.43094 2.77672 4.7055 2.71865 4.98316 2.71838H7.98316C8.46847 2.71361 8.93895 2.88546 9.30692 3.20192C9.67489 3.51837 9.91524 3.95783 9.98316 4.43838C10.1098 5.39845 10.3446 6.34111 10.6832 7.24838C10.8177 7.60631 10.8468 7.9953 10.7671 8.36926C10.6873 8.74323 10.502 9.08649 10.2332 9.35838L8.96316 10.6284C10.3867 13.1319 12.4596 15.2048 14.9632 16.6284L16.2332 15.3584C16.5051 15.0895 16.8483 14.9042 17.2223 14.8245C17.5962 14.7447 17.9852 14.7738 18.3432 14.9084C19.2504 15.2469 20.1931 15.4818 21.1532 15.6084C21.6389 15.6769 22.0826 15.9216 22.3997 16.2959C22.7168 16.6702 22.8853 17.148 22.8732 17.6384Z" stroke="currentColor" stroke-width="2" stroke-linecap="round" stroke-linejoin="round"></path>
  </symbol>
  <symbol fill="none" xmlns="http://www.w3.org/2000/svg" viewBox="0 0 21 20" id="ic_search">
    <path d="M9.21256 15.8333C12.8945 15.8333 15.8792 12.8486 15.8792 9.16667C15.8792 5.48477 12.8945 2.5 9.21256 2.5C5.53067 2.5 2.5459 5.48477 2.5459 9.16667C2.5459 12.8486 5.53067 15.8333 9.21256 15.8333Z" stroke="currentColor" stroke-width="1.66667" stroke-linecap="round" stroke-linejoin="round"></path>
    <path d="M17.5459 17.5L13.9209 13.875" stroke="currentColor" stroke-width="1.66667" stroke-linecap="round" stroke-linejoin="round"></path>
  </symbol>
  <symbol fill="none" xmlns="http://www.w3.org/2000/svg" viewBox="0 0 24 24" id="ic_service1">
    <path d="M16 3H1V16H16V3Z" stroke="currentColor" stroke-width="1.5" stroke-linecap="round" stroke-linejoin="round"></path>
    <path d="M16 8H20L23 11V16H16V8Z" stroke="currentColor" stroke-width="1.5" stroke-linecap="round" stroke-linejoin="round"></path>
    <path d="M5.5 21C6.88071 21 8 19.8807 8 18.5C8 17.1193 6.88071 16 5.5 16C4.11929 16 3 17.1193 3 18.5C3 19.8807 4.11929 21 5.5 21Z" stroke="currentColor" stroke-width="1.5" stroke-linecap="round" stroke-linejoin="round"></path>
    <path d="M18.5 21C19.8807 21 21 19.8807 21 18.5C21 17.1193 19.8807 16 18.5 16C17.1193 16 16 17.1193 16 18.5C16 19.8807 17.1193 21 18.5 21Z" stroke="currentColor" stroke-width="1.5" stroke-linecap="round" stroke-linejoin="round"></path>
  </symbol>
  <symbol fill="none" xmlns="http://www.w3.org/2000/svg" viewBox="0 0 24 24" id="ic_service2">
    <path d="M21 8V21H3V8" stroke="currentColor" stroke-width="1.5" stroke-linecap="round" stroke-linejoin="round"></path>
    <path d="M23 3H1V8H23V3Z" stroke="currentColor" stroke-width="1.5" stroke-linecap="round" stroke-linejoin="round"></path>
    <path d="M10 12H14" stroke="currentColor" stroke-width="1.5" stroke-linecap="round" stroke-linejoin="round"></path>
  </symbol>
  <symbol fill="none" xmlns="http://www.w3.org/2000/svg" viewBox="0 0 24 24" id="ic_service3">
    <path d="M20.8584 9.43565C20.8584 14.7439 16.7638 21.1828 11.713 21.1828C6.66214 21.1828 2.56763 14.7439 2.56763 9.43565C2.56763 4.12745 6.66214 1.96008 11.713 1.96008C16.7638 1.96008 20.8584 4.12745 20.8584 9.43565Z" stroke="currentColor" stroke-width="1.71" stroke-linecap="round" stroke-linejoin="round"></path>
    <path d="M17.7586 17.8479C16.1469 19.8274 14.0309 21.1828 11.7137 21.1828C9.39841 21.1828 7.28408 19.8298 5.67297 17.8528C6.69374 15.0746 9.01566 13.8838 11.7167 13.8838C14.416 13.8838 16.7368 15.0732 17.7586 17.8479Z" stroke="currentColor" stroke-width="1.71" stroke-linecap="round" stroke-linejoin="round"></path>
    <path d="M4.26778 20.3845L2.56763 21.9811" stroke="currentColor" stroke-width="1.71" stroke-linecap="round" stroke-linejoin="round"></path>
    <path d="M19.7321 20.3845L21.4323 21.9811" stroke="currentColor" stroke-width="1.71" stroke-linecap="round" stroke-linejoin="round"></path>
    <path d="M8.01482 6.21252H15.4151C15.4151 6.21252 17.4387 6.21252 17.4387 8.23614C17.4387 8.23614 17.4387 10.2598 15.4151 10.2598H8.01482C8.01482 10.2598 5.99121 10.2598 5.99121 8.23614C5.99121 8.23614 5.99121 6.21252 8.01482 6.21252Z" stroke="currentColor" stroke-width="1.71" stroke-linecap="round" stroke-linejoin="round"></path>
  </symbol>
  <symbol fill="none" xmlns="http://www.w3.org/2000/svg" viewBox="0 0 24 24" id="ic_service4">
    <path d="M5.31602 7.49984H14.7C16.5919 7.49927 18.4308 8.12496 19.9297 9.27927C21.4286 10.4336 22.5033 12.0516 22.986 13.8808C23.155 14.4898 23.2444 15.118 23.252 15.7498C23.2589 16.0474 23.2053 16.3432 23.0945 16.6194C22.9837 16.8956 22.8181 17.1465 22.6075 17.3568C22.397 17.5671 22.146 17.7326 21.8697 17.8431C21.5934 17.9536 21.2975 18.007 21 17.9998H12.75C12.3118 17.9992 11.8845 17.8632 11.5265 17.6104C11.1685 17.3577 10.8973 17.0006 10.75 16.5878L9.53001 13.1718C9.40166 12.8132 9.18444 12.493 8.89867 12.2412C8.61291 11.9893 8.26793 11.8141 7.89602 11.7318L3.51302 10.7628C3.14606 10.6828 2.805 10.512 2.52097 10.2663C2.23695 10.0205 2.019 9.70749 1.88702 9.35584L0.848015 6.58584C0.717781 6.23798 0.717316 5.85483 0.846704 5.50665C0.976092 5.15848 1.22666 4.86861 1.55246 4.69022C1.87826 4.51183 2.25745 4.45686 2.62049 4.53541C2.98353 4.61395 3.30609 4.82074 3.52902 5.11784L5.31602 7.49984Z" stroke="currentColor" stroke-width="1.5" stroke-linecap="round" stroke-linejoin="round"></path>
    <path d="M14.25 7.5V1.5" stroke="currentColor" stroke-width="1.5" stroke-linecap="round" stroke-linejoin="round"></path>
    <path d="M23.25 3H5.25" stroke="currentColor" stroke-width="1.5" stroke-linecap="round" stroke-linejoin="round"></path>
    <path d="M15.75 10.5V7.56396C17.3816 7.76582 18.9207 8.4328 20.1837 9.48532C21.4467 10.5378 22.3803 11.9315 22.873 13.5H18.75C17.9544 13.5 17.1913 13.1839 16.6287 12.6213C16.0661 12.0587 15.75 11.2956 15.75 10.5Z" stroke="currentColor" stroke-width="1.5" stroke-linecap="round" stroke-linejoin="round"></path>
    <path d="M23.25 21C23.25 21.3978 23.092 21.7794 22.8107 22.0607C22.5294 22.342 22.1478 22.5 21.75 22.5H11.25C10.8522 22.5 10.4706 22.342 10.1893 22.0607C9.90804 21.7794 9.75 21.3978 9.75 21" stroke="currentColor" stroke-width="1.5" stroke-linecap="round" stroke-linejoin="round"></path>
    <path d="M21 22.5L18.75 18" stroke="currentColor" stroke-width="1.5" stroke-linecap="round" stroke-linejoin="round"></path>
    <path d="M12 22.5L14.25 18" stroke="currentColor" stroke-width="1.5" stroke-linecap="round" stroke-linejoin="round"></path>
  </symbol>
  <symbol fill="none" xmlns="http://www.w3.org/2000/svg" viewBox="0 0 24 24" id="ic_service5">
    <path d="M7.86 2H16.14L22 7.86V16.14L16.14 22H7.86L2 16.14V7.86L7.86 2Z" stroke="currentColor" stroke-width="1.5" stroke-linecap="round" stroke-linejoin="round"></path>
    <path d="M12 8V12" stroke="currentColor" stroke-width="1.5" stroke-linecap="round" stroke-linejoin="round"></path>
    <path d="M12 16H12.01" stroke="currentColor" stroke-width="1.5" stroke-linecap="round" stroke-linejoin="round"></path>
  </symbol>
  <symbol fill="none" xmlns="http://www.w3.org/2000/svg" viewBox="0 0 24 24" id="ic_service6">
    <path d="M12 2L2 7L12 12L22 7L12 2Z" stroke="currentColor" stroke-width="1.5" stroke-linecap="round" stroke-linejoin="round"></path>
    <path d="M2 17L12 22L22 17" stroke="currentColor" stroke-width="1.5" stroke-linecap="round" stroke-linejoin="round"></path>
    <path d="M2 12L12 17L22 12" stroke="currentColor" stroke-width="1.5" stroke-linecap="round" stroke-linejoin="round"></path>
  </symbol>
  <symbol fill="none" xmlns="http://www.w3.org/2000/svg" viewBox="0 0 24 24" id="ic_service7">
    <path d="M4 21V14" stroke="currentColor" stroke-width="1.5" stroke-linecap="round" stroke-linejoin="round"></path>
    <path d="M4 10V3" stroke="currentColor" stroke-width="1.5" stroke-linecap="round" stroke-linejoin="round"></path>
    <path d="M12 21V12" stroke="currentColor" stroke-width="1.5" stroke-linecap="round" stroke-linejoin="round"></path>
    <path d="M12 8V3" stroke="currentColor" stroke-width="1.5" stroke-linecap="round" stroke-linejoin="round"></path>
    <path d="M20 21V16" stroke="currentColor" stroke-width="1.5" stroke-linecap="round" stroke-linejoin="round"></path>
    <path d="M20 12V3" stroke="currentColor" stroke-width="1.5" stroke-linecap="round" stroke-linejoin="round"></path>
    <path d="M1 14H7" stroke="currentColor" stroke-width="1.5" stroke-linecap="round" stroke-linejoin="round"></path>
    <path d="M9 8H15" stroke="currentColor" stroke-width="1.5" stroke-linecap="round" stroke-linejoin="round"></path>
    <path d="M17 16H23" stroke="currentColor" stroke-width="1.5" stroke-linecap="round" stroke-linejoin="round"></path>
  </symbol>
  <symbol fill="none" xmlns="http://www.w3.org/2000/svg" viewBox="0 0 20 20" id="ic_service8">
    <path d="M0.833374 5.00008V18.3334L6.66671 15.0001L13.3334 18.3334L19.1667 15.0001V1.66675L13.3334 5.00008L6.66671 1.66675L0.833374 5.00008Z" stroke="currentColor" stroke-width="1.5" stroke-linecap="round" stroke-linejoin="round"></path>
    <path d="M6.66663 1.66675V15.0001" stroke="currentColor" stroke-width="1.5" stroke-linecap="round" stroke-linejoin="round"></path>
    <path d="M13.3334 5V18.3333" stroke="currentColor" stroke-width="1.5" stroke-linecap="round" stroke-linejoin="round"></path>
  </symbol>
  <symbol fill="none" xmlns="http://www.w3.org/2000/svg" viewBox="0 0 21 20" id="ic_service9">
    <path d="M15.5 17.5C16.8807 17.5 18 16.3807 18 15C18 13.6193 16.8807 12.5 15.5 12.5C14.1193 12.5 13 13.6193 13 15C13 16.3807 14.1193 17.5 15.5 17.5Z" stroke="currentColor" stroke-width="1.5" stroke-linecap="round" stroke-linejoin="round"></path>
    <path d="M5.5 7.5C6.88071 7.5 8 6.38071 8 5C8 3.61929 6.88071 2.5 5.5 2.5C4.11929 2.5 3 3.61929 3 5C3 6.38071 4.11929 7.5 5.5 7.5Z" stroke="currentColor" stroke-width="1.5" stroke-linecap="round" stroke-linejoin="round"></path>
    <path d="M11.3334 5H13.8334C14.2754 5 14.6993 5.17559 15.0119 5.48816C15.3244 5.80072 15.5 6.22464 15.5 6.66667V12.5" stroke="currentColor" stroke-width="1.5" stroke-linecap="round" stroke-linejoin="round"></path>
    <path d="M5.5 7.5V17.5" stroke="currentColor" stroke-width="1.5" stroke-linecap="round" stroke-linejoin="round"></path>
  </symbol>
  <symbol fill="none" xmlns="http://www.w3.org/2000/svg" viewBox="0 0 20 20" id="ic_service10">
    <path d="M17.5 13.3334V6.66675C17.4997 6.37448 17.4225 6.08742 17.2763 5.83438C17.13 5.58134 16.9198 5.37122 16.6667 5.22508L10.8333 1.89175C10.58 1.74547 10.2926 1.66846 10 1.66846C9.70744 1.66846 9.42003 1.74547 9.16667 1.89175L3.33333 5.22508C3.08022 5.37122 2.86998 5.58134 2.72372 5.83438C2.57745 6.08742 2.5003 6.37448 2.5 6.66675V13.3334C2.5003 13.6257 2.57745 13.9127 2.72372 14.1658C2.86998 14.4188 3.08022 14.6289 3.33333 14.7751L9.16667 18.1084C9.42003 18.2547 9.70744 18.3317 10 18.3317C10.2926 18.3317 10.58 18.2547 10.8333 18.1084L16.6667 14.7751C16.9198 14.6289 17.13 14.4188 17.2763 14.1658C17.4225 13.9127 17.4997 13.6257 17.5 13.3334Z" stroke="currentColor" stroke-width="1.5" stroke-linecap="round" stroke-linejoin="round"></path>
    <path d="M2.72498 5.80005L9.99998 10.0084L17.275 5.80005" stroke="currentColor" stroke-width="1.5" stroke-linecap="round" stroke-linejoin="round"></path>
    <path d="M10 18.4V10" stroke="currentColor" stroke-width="1.5" stroke-linecap="round" stroke-linejoin="round"></path>
  </symbol>
  <symbol fill="none" xmlns="http://www.w3.org/2000/svg" viewBox="0 0 20 20" id="ic_service11">
    <path d="M8.57502 3.21659L1.51668 14.9999C1.37116 15.2519 1.29416 15.5377 1.29334 15.8287C1.29253 16.1197 1.36793 16.4059 1.51204 16.6587C1.65615 16.9115 1.86396 17.1222 2.11477 17.2698C2.36559 17.4174 2.65068 17.4967 2.94168 17.4999H17.0583C17.3494 17.4967 17.6344 17.4174 17.8853 17.2698C18.1361 17.1222 18.3439 16.9115 18.488 16.6587C18.6321 16.4059 18.7075 16.1197 18.7067 15.8287C18.7059 15.5377 18.6289 15.2519 18.4834 14.9999L11.425 3.21659C11.2765 2.97168 11.0673 2.76919 10.8177 2.62866C10.5681 2.48813 10.2865 2.41431 10 2.41431C9.71357 2.41431 9.43196 2.48813 9.18235 2.62866C8.93275 2.76919 8.72358 2.97168 8.57502 3.21659Z" stroke="currentColor" stroke-width="1.5" stroke-linecap="round" stroke-linejoin="round"></path>
    <path d="M10 7.5V10.8333" stroke="currentColor" stroke-width="1.5" stroke-linecap="round" stroke-linejoin="round"></path>
    <path d="M10 14.1667H10.0083" stroke="currentColor" stroke-width="1.5" stroke-linecap="round" stroke-linejoin="round"></path>
  </symbol>
  <symbol fill="none" xmlns="http://www.w3.org/2000/svg" viewBox="0 0 20 20" id="ic_service12">
    <path d="M13.75 7.8333L6.25 3.5083" stroke="currentColor" stroke-width="1.5" stroke-linecap="round" stroke-linejoin="round"></path>
    <path d="M17.5 13.3334V6.66675C17.4997 6.37448 17.4225 6.08742 17.2763 5.83438C17.13 5.58134 16.9198 5.37122 16.6667 5.22508L10.8333 1.89175C10.58 1.74547 10.2926 1.66846 10 1.66846C9.70744 1.66846 9.42003 1.74547 9.16667 1.89175L3.33333 5.22508C3.08022 5.37122 2.86998 5.58134 2.72372 5.83438C2.57745 6.08742 2.5003 6.37448 2.5 6.66675V13.3334C2.5003 13.6257 2.57745 13.9127 2.72372 14.1658C2.86998 14.4188 3.08022 14.6289 3.33333 14.7751L9.16667 18.1084C9.42003 18.2547 9.70744 18.3317 10 18.3317C10.2926 18.3317 10.58 18.2547 10.8333 18.1084L16.6667 14.7751C16.9198 14.6289 17.13 14.4188 17.2763 14.1658C17.4225 13.9127 17.4997 13.6257 17.5 13.3334Z" stroke="currentColor" stroke-width="1.5" stroke-linecap="round" stroke-linejoin="round"></path>
    <path d="M2.72498 5.80005L9.99998 10.0084L17.275 5.80005" stroke="currentColor" stroke-width="1.5" stroke-linecap="round" stroke-linejoin="round"></path>
    <path d="M10 18.4V10" stroke="currentColor" stroke-width="1.5" stroke-linecap="round" stroke-linejoin="round"></path>
  </symbol>
  <symbol fill="none" xmlns="http://www.w3.org/2000/svg" viewBox="0 0 20 20" id="ic_service13">
    <path d="M10 6.66675C14.1421 6.66675 17.5 5.54746 17.5 4.16675C17.5 2.78604 14.1421 1.66675 10 1.66675C5.85786 1.66675 2.5 2.78604 2.5 4.16675C2.5 5.54746 5.85786 6.66675 10 6.66675Z" stroke="currentColor" stroke-width="1.5" stroke-linecap="round" stroke-linejoin="round"></path>
    <path d="M17.5 10C17.5 11.3833 14.1667 12.5 10 12.5C5.83333 12.5 2.5 11.3833 2.5 10" stroke="currentColor" stroke-width="1.5" stroke-linecap="round" stroke-linejoin="round"></path>
    <path d="M2.5 4.16675V15.8334C2.5 17.2167 5.83333 18.3334 10 18.3334C14.1667 18.3334 17.5 17.2167 17.5 15.8334V4.16675" stroke="currentColor" stroke-width="1.5" stroke-linecap="round" stroke-linejoin="round"></path>
  </symbol>
  <symbol fill="none" xmlns="http://www.w3.org/2000/svg" viewBox="0 0 20 20" id="ic_service14">
    <path d="M16.6666 5.83325H3.33329C2.41282 5.83325 1.66663 6.57944 1.66663 7.49992V15.8333C1.66663 16.7537 2.41282 17.4999 3.33329 17.4999H16.6666C17.5871 17.4999 18.3333 16.7537 18.3333 15.8333V7.49992C18.3333 6.57944 17.5871 5.83325 16.6666 5.83325Z" stroke="currentColor" stroke-width="1.5" stroke-linecap="round" stroke-linejoin="round"></path>
    <path d="M13.3333 17.5V4.16667C13.3333 3.72464 13.1577 3.30072 12.8451 2.98816C12.5326 2.67559 12.1087 2.5 11.6666 2.5H8.33329C7.89127 2.5 7.46734 2.67559 7.15478 2.98816C6.84222 3.30072 6.66663 3.72464 6.66663 4.16667V17.5" stroke="currentColor" stroke-width="1.5" stroke-linecap="round" stroke-linejoin="round"></path>
  </symbol>
  <symbol fill="none" xmlns="http://www.w3.org/2000/svg" viewBox="0 0 24 24" id="ic_services_additional1">
    <path d="M16 4H18C18.5304 4 19.0391 4.21071 19.4142 4.58579C19.7893 4.96086 20 5.46957 20 6V20C20 20.5304 19.7893 21.0391 19.4142 21.4142C19.0391 21.7893 18.5304 22 18 22H6C5.46957 22 4.96086 21.7893 4.58579 21.4142C4.21071 21.0391 4 20.5304 4 20V6C4 5.46957 4.21071 4.96086 4.58579 4.58579C4.96086 4.21071 5.46957 4 6 4H8" stroke="currentColor" stroke-width="1.5" stroke-linecap="round" stroke-linejoin="round"></path>
    <path d="M15 2H9C8.44772 2 8 2.44772 8 3V5C8 5.55228 8.44772 6 9 6H15C15.5523 6 16 5.55228 16 5V3C16 2.44772 15.5523 2 15 2Z" stroke="currentColor" stroke-width="1.5" stroke-linecap="round" stroke-linejoin="round"></path>
  </symbol>
  <symbol fill="none" xmlns="http://www.w3.org/2000/svg" viewBox="0 0 24 24" id="ic_services_additional2">
    <path d="M22 3H2L10 12.46V19L14 21V12.46L22 3Z" stroke="currentColor" stroke-width="1.5" stroke-linecap="round" stroke-linejoin="round"></path>
  </symbol>
  <symbol fill="none" xmlns="http://www.w3.org/2000/svg" viewBox="0 0 24 24" id="ic_services_additional3">
    <path d="M17 21V19C17 17.9391 16.5786 16.9217 15.8284 16.1716C15.0783 15.4214 14.0609 15 13 15H5C3.93913 15 2.92172 15.4214 2.17157 16.1716C1.42143 16.9217 1 17.9391 1 19V21" stroke="currentColor" stroke-width="1.5" stroke-linecap="round" stroke-linejoin="round"></path>
    <path d="M9 11C11.2091 11 13 9.20914 13 7C13 4.79086 11.2091 3 9 3C6.79086 3 5 4.79086 5 7C5 9.20914 6.79086 11 9 11Z" stroke="currentColor" stroke-width="1.5" stroke-linecap="round" stroke-linejoin="round"></path>
    <path d="M23 20.9999V18.9999C22.9993 18.1136 22.7044 17.2527 22.1614 16.5522C21.6184 15.8517 20.8581 15.3515 20 15.1299" stroke="currentColor" stroke-width="1.5" stroke-linecap="round" stroke-linejoin="round"></path>
    <path d="M16 3.12988C16.8604 3.35018 17.623 3.85058 18.1676 4.55219C18.7122 5.2538 19.0078 6.11671 19.0078 7.00488C19.0078 7.89305 18.7122 8.75596 18.1676 9.45757C17.623 10.1592 16.8604 10.6596 16 10.8799" stroke="currentColor" stroke-width="1.5" stroke-linecap="round" stroke-linejoin="round"></path>
  </symbol>
  <symbol fill="none" xmlns="http://www.w3.org/2000/svg" viewBox="0 0 24 24" id="ic_services_additional4">
    <path d="M21 15.9999V7.9999C20.9996 7.64918 20.9071 7.30471 20.7315 7.00106C20.556 6.69742 20.3037 6.44526 20 6.2699L13 2.2699C12.696 2.09437 12.3511 2.00195 12 2.00195C11.6489 2.00195 11.304 2.09437 11 2.2699L4 6.2699C3.69626 6.44526 3.44398 6.69742 3.26846 7.00106C3.09294 7.30471 3.00036 7.64918 3 7.9999V15.9999C3.00036 16.3506 3.09294 16.6951 3.26846 16.9987C3.44398 17.3024 3.69626 17.5545 4 17.7299L11 21.7299C11.304 21.9054 11.6489 21.9979 12 21.9979C12.3511 21.9979 12.696 21.9054 13 21.7299L20 17.7299C20.3037 17.5545 20.556 17.3024 20.7315 16.9987C20.9071 16.6951 20.9996 16.3506 21 15.9999Z" stroke="currentColor" stroke-width="1.5" stroke-linecap="round" stroke-linejoin="round"></path>
    <path d="M3.27002 6.95996L12 12.01L20.73 6.95996" stroke="currentColor" stroke-width="1.5" stroke-linecap="round" stroke-linejoin="round"></path>
    <path d="M12 22.08V12" stroke="currentColor" stroke-width="1.5" stroke-linecap="round" stroke-linejoin="round"></path>
  </symbol>
  <symbol fill="none" xmlns="http://www.w3.org/2000/svg" viewBox="0 0 24 24" id="ic_services_additional5">
    <path d="M4 3H20C20.5304 3 21.0391 3.21071 21.4142 3.58579C21.7893 3.96086 22 4.46957 22 5V11C22 13.6522 20.9464 16.1957 19.0711 18.0711C17.1957 19.9464 14.6522 21 12 21C10.6868 21 9.38642 20.7413 8.17317 20.2388C6.95991 19.7362 5.85752 18.9997 4.92893 18.0711C3.05357 16.1957 2 13.6522 2 11V5C2 4.46957 2.21071 3.96086 2.58579 3.58579C2.96086 3.21071 3.46957 3 4 3Z" stroke="currentColor" stroke-width="1.5" stroke-linecap="round" stroke-linejoin="round"></path>
    <path d="M8 10L12 14L16 10" stroke="currentColor" stroke-width="1.5" stroke-linecap="round" stroke-linejoin="round"></path>
  </symbol>
  <symbol fill="none" xmlns="http://www.w3.org/2000/svg" viewBox="0 0 24 24" id="ic_services_additional6">
    <path d="M12 15C15.866 15 19 11.866 19 8C19 4.13401 15.866 1 12 1C8.13401 1 5 4.13401 5 8C5 11.866 8.13401 15 12 15Z" stroke="currentColor" stroke-width="1.5" stroke-linecap="round" stroke-linejoin="round"></path>
    <path d="M8.21 13.8899L7 22.9999L12 19.9999L17 22.9999L15.79 13.8799" stroke="currentColor" stroke-width="1.5" stroke-linecap="round" stroke-linejoin="round"></path>
  </symbol>
  <symbol fill="none" xmlns="http://www.w3.org/2000/svg" viewBox="0 0 24 24" id="ic_services_additional7">
    <path d="M11 4H4C3.46957 4 2.96086 4.21071 2.58579 4.58579C2.21071 4.96086 2 5.46957 2 6V20C2 20.5304 2.21071 21.0391 2.58579 21.4142C2.96086 21.7893 3.46957 22 4 22H18C18.5304 22 19.0391 21.7893 19.4142 21.4142C19.7893 21.0391 20 20.5304 20 20V13" stroke="currentColor" stroke-width="1.5" stroke-linecap="round" stroke-linejoin="round"></path>
    <path d="M18.5 2.50023C18.8978 2.1024 19.4374 1.87891 20 1.87891C20.5626 1.87891 21.1022 2.1024 21.5 2.50023C21.8978 2.89805 22.1213 3.43762 22.1213 4.00023C22.1213 4.56284 21.8978 5.1024 21.5 5.50023L12 15.0002L8 16.0002L9 12.0002L18.5 2.50023Z" stroke="currentColor" stroke-width="1.5" stroke-linecap="round" stroke-linejoin="round"></path>
  </symbol>
  <symbol fill="none" xmlns="http://www.w3.org/2000/svg" viewBox="0 0 24 24" id="ic_services_country1">
    <path d="M8 3H23V16H8V3Z" stroke="currentColor" stroke-width="1.5" stroke-linecap="round" stroke-linejoin="round"></path>
    <path d="M8 8H4L1 11V16H8V8Z" stroke="currentColor" stroke-width="1.5" stroke-linecap="round" stroke-linejoin="round"></path>
    <path d="M18.5 21C17.1193 21 16 19.8807 16 18.5C16 17.1193 17.1193 16 18.5 16C19.8807 16 21 17.1193 21 18.5C21 19.8807 19.8807 21 18.5 21Z" stroke="currentColor" stroke-width="1.5" stroke-linecap="round" stroke-linejoin="round"></path>
    <path d="M5.5 21C4.11929 21 3 19.8807 3 18.5C3 17.1193 4.11929 16 5.5 16C6.88071 16 8 17.1193 8 18.5C8 19.8807 6.88071 21 5.5 21Z" stroke="currentColor" stroke-width="1.5" stroke-linecap="round" stroke-linejoin="round"></path>
  </symbol>
  <symbol fill="none" xmlns="http://www.w3.org/2000/svg" viewBox="0 0 24 24" id="ic_services_country2">
    <path d="M16 3H1V16H16V3Z" stroke="currentColor" stroke-width="1.5" stroke-linecap="round" stroke-linejoin="round"></path>
    <path d="M16 8H20L23 11V16H16V8Z" stroke="currentColor" stroke-width="1.5" stroke-linecap="round" stroke-linejoin="round"></path>
    <path d="M5.5 21C6.88071 21 8 19.8807 8 18.5C8 17.1193 6.88071 16 5.5 16C4.11929 16 3 17.1193 3 18.5C3 19.8807 4.11929 21 5.5 21Z" stroke="currentColor" stroke-width="1.5" stroke-linecap="round" stroke-linejoin="round"></path>
    <path d="M18.5 21C19.8807 21 21 19.8807 21 18.5C21 17.1193 19.8807 16 18.5 16C17.1193 16 16 17.1193 16 18.5C16 19.8807 17.1193 21 18.5 21Z" stroke="currentColor" stroke-width="1.5" stroke-linecap="round" stroke-linejoin="round"></path>
  </symbol>
  <symbol fill="none" xmlns="http://www.w3.org/2000/svg" viewBox="0 0 24 24" id="ic_services_industry1">
    <path d="M20.24 12.24C21.3658 11.1142 21.9983 9.58722 21.9983 7.99504C21.9983 6.40285 21.3658 4.87588 20.24 3.75004C19.1142 2.62419 17.5872 1.9917 15.995 1.9917C14.4028 1.9917 12.8758 2.62419 11.75 3.75004L5 10.5V19H13.5L20.24 12.24Z" stroke="currentColor" stroke-width="1.5" stroke-linecap="round" stroke-linejoin="round"></path>
    <path d="M16 8L2 22" stroke="currentColor" stroke-width="1.5" stroke-linecap="round" stroke-linejoin="round"></path>
    <path d="M17.5 15H9" stroke="currentColor" stroke-width="1.5" stroke-linecap="round" stroke-linejoin="round"></path>
  </symbol>
  <symbol fill="none" xmlns="http://www.w3.org/2000/svg" viewBox="0 0 24 24" id="ic_services_industry2">
    <path d="M16 13V21" stroke="currentColor" stroke-width="1.5" stroke-linecap="round" stroke-linejoin="round"></path>
    <path d="M8 13V21" stroke="currentColor" stroke-width="1.5" stroke-linecap="round" stroke-linejoin="round"></path>
    <path d="M12 15V23" stroke="currentColor" stroke-width="1.5" stroke-linecap="round" stroke-linejoin="round"></path>
    <path d="M20 16.5802C21.0512 16.1198 21.9121 15.3118 22.4381 14.2917C22.964 13.2717 23.1231 12.1018 22.8886 10.9784C22.654 9.85496 22.0402 8.84641 21.15 8.12204C20.2599 7.39766 19.1476 7.00155 18 7.0002H16.74C16.423 5.77272 15.8188 4.63815 14.9773 3.69C14.1357 2.74185 13.0809 2.00728 11.8997 1.54682C10.7186 1.08637 9.44488 0.913218 8.18365 1.04165C6.92243 1.17007 5.70978 1.5964 4.64567 2.28548C3.58155 2.97457 2.69644 3.90669 2.06328 5.005C1.43012 6.10331 1.06704 7.33637 1.00398 8.60255C0.940923 9.86873 1.17968 11.1318 1.70058 12.2876C2.22147 13.4433 3.00959 14.4588 3.99997 15.2502" stroke="currentColor" stroke-width="1.5" stroke-linecap="round" stroke-linejoin="round"></path>
  </symbol>
  <symbol fill="none" xmlns="http://www.w3.org/2000/svg" viewBox="0 0 24 24" id="ic_services_industry3">
    <path d="M16 3H1V16H16V3Z" stroke="currentColor" stroke-width="1.5" stroke-linecap="round" stroke-linejoin="round"></path>
    <path d="M16 8H20L23 11V16H16V8Z" stroke="currentColor" stroke-width="1.5" stroke-linecap="round" stroke-linejoin="round"></path>
    <path d="M5.5 21C6.88071 21 8 19.8807 8 18.5C8 17.1193 6.88071 16 5.5 16C4.11929 16 3 17.1193 3 18.5C3 19.8807 4.11929 21 5.5 21Z" stroke="currentColor" stroke-width="1.5" stroke-linecap="round" stroke-linejoin="round"></path>
    <path d="M18.5 21C19.8807 21 21 19.8807 21 18.5C21 17.1193 19.8807 16 18.5 16C17.1193 16 16 17.1193 16 18.5C16 19.8807 17.1193 21 18.5 21Z" stroke="currentColor" stroke-width="1.5" stroke-linecap="round" stroke-linejoin="round"></path>
  </symbol>
  <symbol fill="none" xmlns="http://www.w3.org/2000/svg" viewBox="0 0 24 24" id="ic_services_industry4">
    <path d="M10.29 3.8602L1.82002 18.0002C1.64539 18.3026 1.55299 18.6455 1.55201 18.9947C1.55103 19.3439 1.64151 19.6873 1.81445 19.9907C1.98738 20.2941 2.23675 20.547 2.53773 20.7241C2.83871 20.9012 3.18082 20.9964 3.53002 21.0002H20.47C20.8192 20.9964 21.1613 20.9012 21.4623 20.7241C21.7633 20.547 22.0127 20.2941 22.1856 19.9907C22.3585 19.6873 22.449 19.3439 22.448 18.9947C22.4471 18.6455 22.3547 18.3026 22.18 18.0002L13.71 3.8602C13.5318 3.56631 13.2807 3.32332 12.9812 3.15469C12.6817 2.98605 12.3438 2.89746 12 2.89746C11.6563 2.89746 11.3184 2.98605 11.0188 3.15469C10.7193 3.32332 10.4683 3.56631 10.29 3.8602Z" stroke="currentColor" stroke-width="1.5" stroke-linecap="round" stroke-linejoin="round"></path>
  </symbol>
  <symbol fill="none" xmlns="http://www.w3.org/2000/svg" viewBox="0 0 24 24" id="ic_services_industry5">
    <path d="M13 2L3 14H12L11 22L21 10H12L13 2Z" stroke="currentColor" stroke-width="1.5" stroke-linecap="round" stroke-linejoin="round"></path>
  </symbol>
  <symbol fill="none" xmlns="http://www.w3.org/2000/svg" viewBox="0 0 24 24" id="ic_services_industry6">
    <path d="M20.84 4.60987C20.3292 4.09888 19.7228 3.69352 19.0554 3.41696C18.3879 3.14039 17.6725 2.99805 16.95 2.99805C16.2275 2.99805 15.5121 3.14039 14.8446 3.41696C14.1772 3.69352 13.5708 4.09888 13.06 4.60987L12 5.66987L10.94 4.60987C9.9083 3.57818 8.50903 2.99858 7.05 2.99858C5.59096 2.99858 4.19169 3.57818 3.16 4.60987C2.1283 5.64156 1.54871 7.04084 1.54871 8.49987C1.54871 9.95891 2.1283 11.3582 3.16 12.3899L4.22 13.4499L12 21.2299L19.78 13.4499L20.84 12.3899C21.351 11.8791 21.7563 11.2727 22.0329 10.6052C22.3095 9.93777 22.4518 9.22236 22.4518 8.49987C22.4518 7.77738 22.3095 7.06198 22.0329 6.39452C21.7563 5.72706 21.351 5.12063 20.84 4.60987Z" stroke="currentColor" stroke-width="1.5" stroke-linecap="round" stroke-linejoin="round"></path>
  </symbol>
  <symbol fill="none" xmlns="http://www.w3.org/2000/svg" viewBox="0 0 24 24" id="ic_services_industry7">
    <path d="M18 8H19C20.0609 8 21.0783 8.42143 21.8284 9.17157C22.5786 9.92172 23 10.9391 23 12C23 13.0609 22.5786 14.0783 21.8284 14.8284C21.0783 15.5786 20.0609 16 19 16H18" stroke="currentColor" stroke-width="1.5" stroke-linecap="round" stroke-linejoin="round"></path>
    <path d="M2 8H18V17C18 18.0609 17.5786 19.0783 16.8284 19.8284C16.0783 20.5786 15.0609 21 14 21H6C4.93913 21 3.92172 20.5786 3.17157 19.8284C2.42143 19.0783 2 18.0609 2 17V8Z" stroke="currentColor" stroke-width="1.5" stroke-linecap="round" stroke-linejoin="round"></path>
    <path d="M6 1V4" stroke="currentColor" stroke-width="1.5" stroke-linecap="round" stroke-linejoin="round"></path>
    <path d="M10 1V4" stroke="currentColor" stroke-width="1.5" stroke-linecap="round" stroke-linejoin="round"></path>
    <path d="M14 1V4" stroke="currentColor" stroke-width="1.5" stroke-linecap="round" stroke-linejoin="round"></path>
  </symbol>
  <symbol fill="none" xmlns="http://www.w3.org/2000/svg" viewBox="0 0 20 20" id="ic_solution1">
    <path d="M12.2499 5.24994C12.0972 5.40572 12.0117 5.61515 12.0117 5.83328C12.0117 6.0514 12.0972 6.26083 12.2499 6.41661L13.5832 7.74994C13.739 7.90263 13.9484 7.98816 14.1665 7.98816C14.3847 7.98816 14.5941 7.90263 14.7499 7.74994L17.8915 4.60828C18.3106 5.53427 18.4374 6.56597 18.2553 7.5659C18.0731 8.56582 17.5905 9.48648 16.8718 10.2052C16.1531 10.9239 15.2324 11.4065 14.2325 11.5887C13.2326 11.7708 12.2009 11.644 11.2749 11.2249L5.51655 16.9833C5.18503 17.3148 4.73539 17.501 4.26655 17.501C3.79771 17.501 3.34807 17.3148 3.01655 16.9833C2.68503 16.6518 2.49878 16.2021 2.49878 15.7333C2.49878 15.2644 2.68503 14.8148 3.01655 14.4833L8.77488 8.72494C8.35585 7.79895 8.22898 6.76725 8.41116 5.76732C8.59335 4.7674 9.07595 3.84674 9.79465 3.12804C10.5133 2.40935 11.434 1.92675 12.4339 1.74456C13.4339 1.56237 14.4656 1.68925 15.3915 2.10828L12.2582 5.24161L12.2499 5.24994Z" stroke="currentColor" stroke-width="1.5" stroke-linecap="round" stroke-linejoin="round"></path>
  </symbol>
  <symbol fill="none" xmlns="http://www.w3.org/2000/svg" viewBox="0 0 20 20" id="ic_solution2">
    <path d="M9.99984 18.3334C14.6022 18.3334 18.3332 14.6025 18.3332 10.0001C18.3332 5.39771 14.6022 1.66675 9.99984 1.66675C5.39746 1.66675 1.6665 5.39771 1.6665 10.0001C1.6665 14.6025 5.39746 18.3334 9.99984 18.3334Z" stroke="currentColor" stroke-width="1.5" stroke-linecap="round" stroke-linejoin="round"></path>
    <path d="M10 6.66675V10.0001" stroke="currentColor" stroke-width="1.5" stroke-linecap="round" stroke-linejoin="round"></path>
    <path d="M10 13.3333H10.0083" stroke="currentColor" stroke-width="1.5" stroke-linecap="round" stroke-linejoin="round"></path>
  </symbol>
  <symbol fill="none" xmlns="http://www.w3.org/2000/svg" viewBox="0 0 20 20" id="ic_solution3">
    <path d="M18.3334 10H13.3334L11.6667 12.5H8.33341L6.66675 10H1.66675" stroke="currentColor" stroke-width="1.5" stroke-linecap="round" stroke-linejoin="round"></path>
    <path d="M4.54175 4.25825L1.66675 9.99992V14.9999C1.66675 15.4419 1.84234 15.8659 2.1549 16.1784C2.46746 16.491 2.89139 16.6666 3.33341 16.6666H16.6667C17.1088 16.6666 17.5327 16.491 17.8453 16.1784C18.1578 15.8659 18.3334 15.4419 18.3334 14.9999V9.99992L15.4584 4.25825C15.3204 3.98057 15.1077 3.74689 14.8442 3.58348C14.5807 3.42008 14.2768 3.33342 13.9667 3.33325H6.03341C5.72334 3.33342 5.41947 3.42008 5.15595 3.58348C4.89244 3.74689 4.67973 3.98057 4.54175 4.25825Z" stroke="currentColor" stroke-width="1.5" stroke-linecap="round" stroke-linejoin="round"></path>
  </symbol>
  <symbol fill="none" xmlns="http://www.w3.org/2000/svg" viewBox="0 0 20 20" id="ic_solution4">
    <path d="M7.49984 18.3334C7.96007 18.3334 8.33317 17.9603 8.33317 17.5001C8.33317 17.0398 7.96007 16.6667 7.49984 16.6667C7.0396 16.6667 6.6665 17.0398 6.6665 17.5001C6.6665 17.9603 7.0396 18.3334 7.49984 18.3334Z" stroke="currentColor" stroke-width="1.5" stroke-linecap="round" stroke-linejoin="round"></path>
    <path d="M16.6668 18.3334C17.1271 18.3334 17.5002 17.9603 17.5002 17.5001C17.5002 17.0398 17.1271 16.6667 16.6668 16.6667C16.2066 16.6667 15.8335 17.0398 15.8335 17.5001C15.8335 17.9603 16.2066 18.3334 16.6668 18.3334Z" stroke="currentColor" stroke-width="1.5" stroke-linecap="round" stroke-linejoin="round"></path>
    <path d="M0.833496 0.833252H4.16683L6.40016 11.9916C6.47637 12.3752 6.68509 12.7199 6.98978 12.9652C7.29448 13.2104 7.67574 13.3407 8.06683 13.3333H16.1668C16.5579 13.3407 16.9392 13.2104 17.2439 12.9652C17.5486 12.7199 17.7573 12.3752 17.8335 11.9916L19.1668 4.99992H5.00016" stroke="currentColor" stroke-width="1.5" stroke-linecap="round" stroke-linejoin="round"></path>
  </symbol>
  <symbol fill="none" xmlns="http://www.w3.org/2000/svg" viewBox="0 0 20 20" id="ic_solution5">
    <path d="M8.5749 3.21659L1.51656 14.9999C1.37104 15.2519 1.29403 15.5377 1.29322 15.8287C1.2924 16.1197 1.3678 16.4059 1.51192 16.6587C1.65603 16.9115 1.86383 17.1222 2.11465 17.2698C2.36547 17.4174 2.65056 17.4967 2.94156 17.4999H17.0582C17.3492 17.4967 17.6343 17.4174 17.8851 17.2698C18.136 17.1222 18.3438 16.9115 18.4879 16.6587C18.632 16.4059 18.7074 16.1197 18.7066 15.8287C18.7058 15.5377 18.6288 15.2519 18.4832 14.9999L11.4249 3.21659C11.2763 2.97168 11.0672 2.76919 10.8176 2.62866C10.568 2.48813 10.2863 2.41431 9.9999 2.41431C9.71345 2.41431 9.43184 2.48813 9.18223 2.62866C8.93263 2.76919 8.72345 2.97168 8.5749 3.21659Z" stroke="currentColor" stroke-width="1.5" stroke-linecap="round" stroke-linejoin="round"></path>
    <path d="M10 7.5V10.8333" stroke="currentColor" stroke-width="1.5" stroke-linecap="round" stroke-linejoin="round"></path>
    <path d="M10 14.1667H10.0083" stroke="currentColor" stroke-width="1.5" stroke-linecap="round" stroke-linejoin="round"></path>
  </symbol>
  <symbol fill="none" xmlns="http://www.w3.org/2000/svg" viewBox="0 0 20 20" id="ic_solution6">
    <path d="M9.99984 12.4999C13.2215 12.4999 15.8332 9.88825 15.8332 6.66659C15.8332 3.44492 13.2215 0.833252 9.99984 0.833252C6.77818 0.833252 4.1665 3.44492 4.1665 6.66659C4.1665 9.88825 6.77818 12.4999 9.99984 12.4999Z" stroke="currentColor" stroke-width="1.5" stroke-linecap="round" stroke-linejoin="round"></path>
    <path d="M6.84183 11.575L5.8335 19.1667L10.0002 16.6667L14.1668 19.1667L13.1585 11.5667" stroke="currentColor" stroke-width="1.5" stroke-linecap="round" stroke-linejoin="round"></path>
  </symbol>
  <symbol fill="none" xmlns="http://www.w3.org/2000/svg" viewBox="0 0 20 20" id="ic_solution7">
    <path d="M13.75 7.8333L6.25 3.5083" stroke="currentColor" stroke-width="1.5" stroke-linecap="round" stroke-linejoin="round"></path>
    <path d="M17.5 13.3334V6.66675C17.4997 6.37448 17.4225 6.08742 17.2763 5.83438C17.13 5.58134 16.9198 5.37122 16.6667 5.22508L10.8333 1.89175C10.58 1.74547 10.2926 1.66846 10 1.66846C9.70744 1.66846 9.42003 1.74547 9.16667 1.89175L3.33333 5.22508C3.08022 5.37122 2.86998 5.58134 2.72372 5.83438C2.57745 6.08742 2.5003 6.37448 2.5 6.66675V13.3334C2.5003 13.6257 2.57745 13.9127 2.72372 14.1658C2.86998 14.4188 3.08022 14.6289 3.33333 14.7751L9.16667 18.1084C9.42003 18.2547 9.70744 18.3317 10 18.3317C10.2926 18.3317 10.58 18.2547 10.8333 18.1084L16.6667 14.7751C16.9198 14.6289 17.13 14.4188 17.2763 14.1658C17.4225 13.9127 17.4997 13.6257 17.5 13.3334Z" stroke="currentColor" stroke-width="1.5" stroke-linecap="round" stroke-linejoin="round"></path>
    <path d="M2.7251 5.80005L10.0001 10.0084L17.2751 5.80005" stroke="currentColor" stroke-width="1.5" stroke-linecap="round" stroke-linejoin="round"></path>
    <path d="M10 18.4V10" stroke="currentColor" stroke-width="1.5" stroke-linecap="round" stroke-linejoin="round"></path>
  </symbol>
  <symbol fill="none" xmlns="http://www.w3.org/2000/svg" viewBox="0 0 20 20" id="ic_solution8">
    <path d="M17.5 13.3334V6.66675C17.4997 6.37448 17.4225 6.08742 17.2763 5.83438C17.13 5.58134 16.9198 5.37122 16.6667 5.22508L10.8333 1.89175C10.58 1.74547 10.2926 1.66846 10 1.66846C9.70744 1.66846 9.42003 1.74547 9.16667 1.89175L3.33333 5.22508C3.08022 5.37122 2.86998 5.58134 2.72372 5.83438C2.57745 6.08742 2.5003 6.37448 2.5 6.66675V13.3334C2.5003 13.6257 2.57745 13.9127 2.72372 14.1658C2.86998 14.4188 3.08022 14.6289 3.33333 14.7751L9.16667 18.1084C9.42003 18.2547 9.70744 18.3317 10 18.3317C10.2926 18.3317 10.58 18.2547 10.8333 18.1084L16.6667 14.7751C16.9198 14.6289 17.13 14.4188 17.2763 14.1658C17.4225 13.9127 17.4997 13.6257 17.5 13.3334Z" stroke="currentColor" stroke-width="1.5" stroke-linecap="round" stroke-linejoin="round"></path>
    <path d="M2.7251 5.80005L10.0001 10.0084L17.2751 5.80005" stroke="currentColor" stroke-width="1.5" stroke-linecap="round" stroke-linejoin="round"></path>
    <path d="M10 18.4V10" stroke="currentColor" stroke-width="1.5" stroke-linecap="round" stroke-linejoin="round"></path>
  </symbol>
  <symbol fill="none" xmlns="http://www.w3.org/2000/svg" viewBox="0 0 24 24" id="ic_tg">
    <path d="M22 2L11 13" stroke="currentColor" stroke-width="2" stroke-linecap="round" stroke-linejoin="round"></path>
    <path d="M22 2L15 22L11 13L2 9L22 2Z" stroke="currentColor" stroke-width="2" stroke-linecap="round" stroke-linejoin="round"></path>
  </symbol>
  <symbol fill="none" xmlns="http://www.w3.org/2000/svg" viewBox="0 0 19 18" id="ic_time">
    <path d="M9.5 16.5C13.6421 16.5 17 13.1421 17 9C17 4.85786 13.6421 1.5 9.5 1.5C5.35786 1.5 2 4.85786 2 9C2 13.1421 5.35786 16.5 9.5 16.5Z" stroke="currentColor" stroke-width="1.5" stroke-linecap="round" stroke-linejoin="round"></path>
    <path d="M9.5 4.5V9L12.5 10.5" stroke="currentColor" stroke-width="1.5" stroke-linecap="round" stroke-linejoin="round"></path>
  </symbol>
  <symbol fill="none" xmlns="http://www.w3.org/2000/svg" viewBox="0 0 15 18" id="ic_video_play">
    <path d="M15 9L-8.15666e-07 17.6603L-5.85621e-08 0.339745L15 9Z" fill="currentColor"></path>
  </symbol>
</svg>